<svg width="51" height="43" viewBox="0 0 51 43" fill="none" xmlns="http://www.w3.org/2000/svg">
<path d="M21.4936 16.7017C22.7127 16.7017 23.6838 17.7477 23.6648 19.0118C23.6648 20.2848 22.703 21.3217 21.4936 21.3217C20.3035 21.3217 19.3227 20.2848 19.3227 19.0118C19.3227 17.7386 20.2845 16.7017 21.4936 16.7017Z" fill="black"/>
<path d="M29.521 16.7017C30.7397 16.7017 31.7109 17.7477 31.6918 19.0118C31.6918 20.2848 30.7397 21.3217 29.521 21.3217C28.3306 21.3217 27.3498 20.2848 27.3498 19.0118C27.3498 17.7386 28.3116 16.7017 29.521 16.7017Z" fill="black"/>
<path fill-rule="evenodd" clip-rule="evenodd" d="M5.4052 9.54908C9.60882 4.41617 18.5173 -2.4928 33.0485 0.90322C55.5155 6.15388 53.4445 31.7059 45.3861 30.5355C29.5559 28.2362 25.3143 32.9433 22.1556 36.4487C19.5136 39.3806 17.6291 41.4719 10.3553 37.9202C-2.05465 31.8607 -2.80272 19.5716 5.4052 9.54908ZM37.4749 23.9261C37.9786 18.9826 36.6312 14.6885 33.9029 10.8816C33.8963 10.869 33.8851 10.8598 33.8715 10.8544C32.3317 10.1841 30.6808 9.69031 28.9545 9.40746C28.939 9.40471 28.923 9.40667 28.9088 9.41305C28.8946 9.41944 28.8829 9.42991 28.8753 9.44299C28.6631 9.80122 28.4278 10.2686 28.2629 10.636C26.4061 10.3724 24.5589 10.3724 22.7402 10.636C22.5753 10.2606 22.3316 9.80122 22.1184 9.44299C22.1021 9.41663 22.0707 9.40287 22.0393 9.40746C20.3138 9.68945 18.6629 10.1832 17.1219 10.8544C17.1087 10.8598 17.0972 10.869 17.0896 10.8808C13.9579 15.3196 13.1 19.6492 13.5209 23.9252C13.5227 23.9461 13.5351 23.9662 13.5523 23.9788C15.6184 25.4186 17.6202 26.2924 19.5845 26.8718C19.6159 26.881 19.6492 26.8698 19.6694 26.8454C20.1338 26.2433 20.5481 25.6086 20.9033 24.9411C20.9244 24.9019 20.9042 24.8557 20.8616 24.8403C20.2045 24.6038 19.5788 24.3155 18.977 23.988C18.9293 23.9616 18.9256 23.8971 18.9694 23.8662C19.0959 23.7762 19.2228 23.6825 19.3436 23.5879C19.3656 23.5707 19.3961 23.567 19.4218 23.5779C23.3752 25.2902 27.6554 25.2902 31.5626 23.5779C31.5883 23.5661 31.6188 23.5696 31.6414 23.5871C31.7625 23.6816 31.889 23.7762 32.0168 23.8662C32.0606 23.8971 32.0575 23.9616 32.0101 23.988C31.4083 24.3218 30.7826 24.6038 30.1246 24.8391C30.0817 24.8546 30.0627 24.9019 30.0835 24.9411C30.4465 25.6077 30.8608 26.2425 31.3168 26.8446C31.3262 26.857 31.3394 26.8662 31.3546 26.8711C31.3698 26.876 31.3863 26.8762 31.4017 26.8718C33.3753 26.2924 35.3771 25.4186 37.4432 23.9788C37.4613 23.9662 37.4728 23.947 37.4749 23.9261Z" fill="black"/>
<path d="M27.8158 42.2111C21.0984 38.5809 31.9949 32.7933 40.6688 34.3222C49.3428 35.8512 34.5332 45.8413 27.8158 42.2111Z" fill="black"/>
</svg>
