<svg width="32" height="32" viewBox="0 0 32 32" fill="none" xmlns="http://www.w3.org/2000/svg">
<path d="M14.2441 16.8787C14.2441 18.1637 13.3235 19.2093 12.166 19.2093C11.0266 19.2093 10.0879 18.1637 10.0879 16.8787C10.0879 15.5943 11.0085 14.5481 12.166 14.5481C13.3323 14.5481 14.2623 15.6037 14.2441 16.8787Z" fill="black"/>
<path d="M21.9268 16.8787C21.9268 18.1637 21.0155 19.2093 19.8486 19.2093C18.7093 19.2093 17.7705 18.1637 17.7705 16.8787C17.7705 15.5943 18.6911 14.5481 19.8486 14.5481C21.0155 14.5481 21.9449 15.6037 21.9268 16.8787Z" fill="black"/>
<path d="M16 0C7.16375 0 0 7.16375 0 16C0 24.8363 7.16375 32 16 32C24.8363 32 32 24.8363 32 16C32 7.16375 24.8363 0 16 0ZM27.4319 21.8906C25.4544 23.3431 23.5381 24.225 21.6488 24.8094C21.6188 24.8188 21.5862 24.8075 21.5675 24.7819C21.1312 24.1744 20.735 23.5337 20.3875 22.8612C20.3675 22.8219 20.3856 22.7744 20.4269 22.7588C21.0562 22.5206 21.655 22.2362 22.2313 21.9C22.2769 21.8731 22.2794 21.8081 22.2375 21.7769C22.1156 21.6862 21.9944 21.5906 21.8787 21.495C21.8569 21.4775 21.8275 21.4737 21.8031 21.4856C18.0631 23.2137 13.9663 23.2137 10.1819 21.4856C10.1575 21.475 10.1281 21.4788 10.1075 21.4963C9.99188 21.5913 9.87063 21.6862 9.74938 21.7769C9.7075 21.8081 9.71063 21.8731 9.75625 21.9C10.3325 22.23 10.9313 22.5206 11.56 22.7594C11.6013 22.775 11.6206 22.8219 11.6 22.8612C11.2606 23.535 10.8638 24.175 10.4194 24.7825C10.4 24.8075 10.3681 24.8188 10.3381 24.8094C8.4575 24.225 6.54187 23.3431 4.56375 21.8906C4.5475 21.8775 4.53563 21.8575 4.53375 21.8363C4.13125 17.5219 4.9525 13.1538 7.95 8.675C7.9575 8.66313 7.96812 8.65375 7.98125 8.64875C9.45562 7.97125 11.0362 7.47312 12.6875 7.18875C12.7175 7.18437 12.7475 7.19812 12.7631 7.22437C12.9675 7.58625 13.2006 8.04938 13.3588 8.42813C15.0994 8.1625 16.8675 8.1625 18.645 8.42813C18.8025 8.0575 19.0275 7.58625 19.2306 7.22437C19.2463 7.19687 19.2762 7.18312 19.3062 7.18875C20.9587 7.47375 22.5394 7.9725 24.0131 8.64875C24.0262 8.65375 24.0369 8.66313 24.0431 8.67625C26.6544 12.5169 27.9444 16.8494 27.4619 21.8375C27.46 21.8587 27.4494 21.8775 27.4319 21.8906Z" fill="black"/>
</svg>
