<svg width="50" height="82" viewBox="0 0 50 82" fill="none" xmlns="http://www.w3.org/2000/svg">
    <g style="mix-blend-mode:multiply">
        <path
            d="M0.0297852 0V13.5602L0.0842285 13.7836L2.48334 18.4129L2.63385 18.5858L14.3753 26.9006V27.3759L2.63385 35.6907L2.48334 35.8636L0.0842285 40.4929L0.0297852 40.7164V68.2298L0.0842285 68.4532L2.48334 73.0825L2.63385 73.2554L14.2362 81.4718L14.5169 81.5611H35.3011L35.5818 81.4718L47.1841 73.2554L47.3347 73.0825L49.7338 68.4532L49.7882 68.2298V40.7164L49.7338 40.4929L47.3347 35.8636L47.1842 35.6907L35.4428 27.3759V26.9006L47.1842 18.5858L47.3347 18.4129L49.7338 13.7836L49.7882 13.5602V0H48.817V13.4418L46.5266 17.8613L34.6765 26.2531L34.4715 26.6494V27.6271L34.6765 28.0234L46.5266 36.4152L48.817 40.8347V68.1114L46.5266 72.5309L35.1466 80.5898H14.6714L3.29144 72.5309L1.00107 68.1114V40.8347L3.29141 36.4152L15.1416 28.0234L15.3466 27.6271V26.6494L15.1416 26.2531L3.29144 17.8613L1.00107 13.4418V0H0.0297852Z"
            fill="black" />
        <path
            d="M10.8809 0V10.6116L10.9353 10.8351L11.1887 11.3239L11.3392 11.4967L24.2788 20.6602L24.5595 20.7495H25.2585L25.5392 20.6602L38.4789 11.4967L38.6294 11.3239L38.8827 10.8351L38.9372 10.6116V0H37.9659V10.4932L37.8213 10.7723L25.104 19.7782H24.714L11.9967 10.7723L11.8521 10.4932V0H10.8809Z"
            fill="black" />
        <path fill-rule="evenodd" clip-rule="evenodd"
            d="M24.2788 33.6164L24.5595 33.527H25.2585L25.5392 33.6164L38.4789 42.7798L38.6294 42.9526L38.8827 43.4414L38.9372 43.6649V65.2812L38.8827 65.5047L38.6294 65.9935L38.4789 66.1663L25.5392 75.3298L25.2585 75.4191H24.5595L24.2788 75.3298L11.3392 66.1663L11.1887 65.9935L10.9353 65.5047L10.8809 65.2812V43.6649L10.9353 43.4414L11.1887 42.9526L11.3392 42.7798L24.2788 33.6164ZM24.714 34.4983L11.9967 43.5043L11.8521 43.7833V65.1628L11.9967 65.4419L24.714 74.4478H25.104L37.8213 65.4419L37.9659 65.1628V43.7833L37.8213 43.5043L25.104 34.4983H24.714Z"
            fill="black" />
    </g>
</svg>