<svg width="12" height="13" viewBox="0 0 12 13" fill="none" xmlns="http://www.w3.org/2000/svg">
<path d="M11.8305 5.99377L10.2983 5.80235C10.1986 5.43027 10.0505 5.07285 9.858 4.73919L10.8064 3.51983C10.8353 3.48258 10.8497 3.43604 10.8467 3.38895C10.8438 3.34187 10.8237 3.29749 10.7903 3.26415L9.69503 2.17003C9.66167 2.13668 9.61728 2.11666 9.57019 2.11374C9.52311 2.11082 9.47659 2.12519 9.43935 2.15415L8.22 3.10254C7.88658 2.91046 7.52949 2.76275 7.15781 2.66319L6.96619 1.13009C6.96048 1.08318 6.93779 1.03999 6.90243 1.00865C6.86706 0.977309 6.82145 0.959992 6.77419 0.959961H5.22581C5.17864 0.959974 5.1331 0.97721 5.09775 1.00843C5.06239 1.03965 5.03965 1.08271 5.03381 1.12951L4.84219 2.66319C4.47018 2.76278 4.11286 2.91082 3.77942 3.10351L2.56006 2.15512C2.52283 2.12616 2.47631 2.11178 2.42922 2.11471C2.38214 2.11763 2.33775 2.13765 2.30439 2.17099L1.21006 3.26493C1.17669 3.29827 1.15664 3.34265 1.15368 3.38973C1.15072 3.43681 1.16506 3.48335 1.194 3.52061L2.14239 4.73996C1.9504 5.07347 1.80277 5.43062 1.70323 5.80235L0.170129 5.99377C0.123221 5.99948 0.0800262 6.02217 0.0486872 6.05753C0.0173482 6.0929 3.08353e-05 6.13851 0 6.18577V7.73415C1.33114e-05 7.78132 0.0172493 7.82686 0.0484697 7.86221C0.0796901 7.89757 0.122746 7.92031 0.169548 7.92615L1.70265 8.11757C1.80235 8.48964 1.95031 8.84706 2.14277 9.18073L1.19439 10.4001C1.16542 10.4373 1.15105 10.4838 1.15397 10.5309C1.15689 10.578 1.17691 10.6224 1.21026 10.6558L2.30516 11.7507C2.33852 11.784 2.38292 11.804 2.43 11.807C2.47708 11.8099 2.52361 11.7955 2.56084 11.7665L3.78019 10.8182C4.11377 11.0105 4.47105 11.1585 4.84297 11.2583L5.03458 12.7906C5.04046 12.8372 5.0631 12.8801 5.09829 12.9113C5.13348 12.9425 5.1788 12.9598 5.22581 12.96H6.77419C6.82136 12.9599 6.8669 12.9427 6.90225 12.9115C6.93761 12.8803 6.96034 12.8372 6.96619 12.7904L7.15761 11.2583C7.52973 11.1586 7.88717 11.0106 8.22077 10.818L9.44013 11.7663C9.47736 11.7953 9.52389 11.8097 9.57097 11.8068C9.61805 11.8038 9.66244 11.7838 9.69581 11.7505L10.7907 10.6556C10.8241 10.6222 10.8441 10.5779 10.8471 10.5308C10.8501 10.4837 10.8357 10.4371 10.8068 10.3999L9.85839 9.18054C10.0508 8.84684 10.1987 8.48943 10.2985 8.11738L11.8308 7.92596C11.8775 7.92003 11.9205 7.89728 11.9516 7.86198C11.9827 7.82667 12 7.78123 12 7.73415V6.18577C12 6.1386 11.9828 6.09306 11.9515 6.05771C11.9203 6.02235 11.8773 5.99962 11.8305 5.99377ZM6 9.08899C5.57892 9.08899 5.16729 8.96413 4.81717 8.73019C4.46706 8.49624 4.19417 8.16374 4.03303 7.77471C3.87189 7.38568 3.82973 6.9576 3.91188 6.54461C3.99403 6.13162 4.1968 5.75226 4.49455 5.45451C4.7923 5.15676 5.17165 4.95399 5.58465 4.87184C5.99764 4.78969 6.42572 4.83185 6.81475 4.99299C7.20378 5.15413 7.53628 5.42702 7.77023 5.77713C8.00417 6.12725 8.12903 6.53888 8.12903 6.95996C8.12903 7.52462 7.90472 8.06614 7.50545 8.46541C7.10618 8.86468 6.56465 9.08899 6 9.08899Z" fill="black"/>
</svg>
