<svg width="40" height="41" viewBox="0 0 40 41" fill="none" xmlns="http://www.w3.org/2000/svg">
<rect y="0.445312" width="40" height="40" rx="6" fill="black"/>
<path fill-rule="evenodd" clip-rule="evenodd" d="M10 9.44531C7.79086 9.44531 6 11.2362 6 13.4453V24.4453C6 25.4918 6.40184 26.4444 7.05964 27.1572C6.41138 27.7075 6 28.5284 6 29.4453C6 31.1022 7.34315 32.4453 9 32.4453H31C32.6569 32.4453 34 31.1022 34 29.4453C34 28.5284 33.5886 27.7075 32.9404 27.1572C33.5982 26.4444 34 25.4918 34 24.4453V13.4453C34 11.2362 32.2091 9.44531 30 9.44531H10ZM30 26.4453C31.1046 26.4453 32 25.5499 32 24.4453V13.4453C32 12.3407 31.1046 11.4453 30 11.4453H10C8.89543 11.4453 8 12.3407 8 13.4453V24.4453C8 25.5499 8.89543 26.4453 10 26.4453H30ZM9 28.4453C8.44772 28.4453 8 28.893 8 29.4453C8 29.9976 8.44772 30.4453 9 30.4453H31C31.5523 30.4453 32 29.9976 32 29.4453C32 28.893 31.5523 28.4453 31 28.4453H9Z" fill="white"/>
</svg>
