<svg fill="#000000" xmlns="http://www.w3.org/2000/svg" viewBox="0 0 64 64" width="64px" height="64px">
    <path
        d="M 31.970703 7.0019531 C 24.760703 7.0019531 18.268078 10.056453 13.705078 14.939453 L 22.029297 27.314453 C 23.791297 23.586453 27.573703 21 31.970703 21 L 54.423828 21 C 50.352828 12.71 41.829703 7.0019531 31.970703 7.0019531 z M 11.560547 17.572266 C 8.6725469 21.649266 6.9707031 26.625953 6.9707031 32.001953 C 6.9707031 44.411953 16.014141 54.703156 27.869141 56.660156 L 33.34375 42.90625 C 32.89275 42.96225 32.436703 43.001953 31.970703 43.001953 C 27.431249 43.001953 24.082516 40.570225 21.853516 36.326172 L 21.853516 36.324219 L 11.560547 17.572266 z M 55.701172 24.138672 L 40.677734 25.294922 C 42.110734 27.152922 42.972656 29.473953 42.972656 32.001953 C 42.972656 33.728953 42.563516 35.355547 41.853516 36.810547 L 31.380859 56.986328 C 31.577859 56.991328 31.773703 57.001953 31.970703 57.001953 C 45.777703 57.001953 56.970703 45.808953 56.970703 32.001953 C 56.971703 29.253953 56.520172 26.611672 55.701172 24.138672 z M 32.320312 24.857422 A 7.151 7.151 0 0 0 29.234375 25.392578 A 7.151 7.151 0 0 0 34.707031 38.607422 A 7.151 7.151 0 0 0 32.320312 24.857422 z" />
</svg>