<svg width="238" height="61" viewBox="0 0 238 61" fill="none" xmlns="http://www.w3.org/2000/svg">
<path d="M2.5567 60.849C4.98307 60.849 6.30654 59.3486 6.30654 57.2743C6.30654 55.1999 4.98307 53.6996 2.5567 53.6996H0V60.849H2.5567ZM4.76249 57.2743C4.76249 58.6135 4.07068 59.4996 2.5166 59.4996H1.46384V55.0489H2.5166C4.07068 55.0489 4.76249 55.935 4.76249 57.2743Z" fill="#0C0D0E"/>
<path d="M10.9497 53.6996H9.48582V60.849H10.9497V53.6996Z" fill="#0C0D0E"/>
<path d="M15.9217 60.849V57.8986H19.0298V56.5492H15.9217V55.0489H19.1802V53.6996H14.4578V60.849H15.9217Z" fill="#0C0D0E"/>
<path d="M23.694 60.849V57.8986H26.8022V56.5492H23.694V55.0489H26.9526V53.6996H22.2302V60.849H23.694Z" fill="#0C0D0E"/>
<path d="M35.126 59.4996H31.4664V57.8986H34.9756V56.5492H31.4664V55.0489H35.126V53.6996H30.0025V60.849H35.126V59.4996Z" fill="#0C0D0E"/>
<path d="M44.2774 60.849L42.7233 57.9791C43.5555 57.6368 43.9866 56.8816 43.9866 55.935C43.9866 54.626 43.1645 53.6996 41.6104 53.6996H38.3819V60.849H39.8458V58.1402H41.2494L42.5829 60.849H44.2774ZM42.5228 55.935C42.5228 56.4586 42.222 56.7909 41.6104 56.7909H39.8458V55.0489H41.6104C42.222 55.0489 42.5228 55.4114 42.5228 55.935Z" fill="#0C0D0E"/>
<path d="M52.2666 59.4996H48.607V57.8986H52.1162V56.5492H48.607V55.0489H52.2666V53.6996H47.1432V60.849H52.2666V59.4996Z" fill="#0C0D0E"/>
<path d="M56.9463 56.1263L60.0545 60.849H61.5283V53.6996H60.1046V58.4222L56.9965 53.6996H55.5226V60.849H56.9463V56.1263Z" fill="#0C0D0E"/>
<path d="M69.71 53.6996H64.3359V55.0791H66.2911V60.849H67.7549V55.0791H69.71V53.6996Z" fill="#0C0D0E"/>
<path d="M81.7984 53.6996H76.4243V55.0791H78.3794V60.849H79.8433V55.0791H81.7984V53.6996Z" fill="#0C0D0E"/>
<path d="M90.5002 60.849L88.9461 57.9791C89.7783 57.6368 90.2094 56.8816 90.2094 55.935C90.2094 54.626 89.3873 53.6996 87.8332 53.6996H84.6047V60.849H86.0686V58.1402H87.4723L88.8057 60.849H90.5002ZM88.7456 55.935C88.7456 56.4586 88.4448 56.7909 87.8332 56.7909H86.0686V55.0489H87.8332C88.4448 55.0489 88.7456 55.4114 88.7456 55.935Z" fill="#0C0D0E"/>
<path d="M94.8298 53.6996H93.366V60.849H94.8298V53.6996Z" fill="#0C0D0E"/>
<path d="M101.476 60.849C103.02 60.849 103.812 60.0535 103.812 58.825C103.812 58.0597 103.371 57.4958 102.72 57.2441C103.331 56.9722 103.712 56.4083 103.712 55.6631C103.712 54.5756 102.98 53.6996 101.346 53.6996H98.338V60.849H101.476ZM101.436 57.8986C102.058 57.8986 102.339 58.2309 102.339 58.7142C102.339 59.2177 102.058 59.5298 101.436 59.5298H99.7617V57.8986H101.436ZM101.336 55.0187C101.978 55.0187 102.238 55.3711 102.238 55.794C102.238 56.3076 101.897 56.5694 101.336 56.5694H99.7617V55.0187H101.336Z" fill="#0C0D0E"/>
<path d="M112.135 59.4996H108.475V57.8986H111.984V56.5492H108.475V55.0489H112.135V53.6996H107.011V60.849H112.135V59.4996Z" fill="#0C0D0E"/>
<path d="M127.036 59.6809C126.114 59.6809 125.693 59.1673 125.653 58.5833H124.209C124.249 59.7614 124.981 60.9899 126.956 60.9899C128.651 60.9899 129.774 60.0837 129.774 58.8048C129.774 55.9652 125.923 57.093 125.923 55.6631C125.923 55.1999 126.365 54.8576 127.056 54.8576C127.818 54.8576 128.26 55.3107 128.29 55.935H129.723C129.683 54.6461 128.741 53.5485 127.077 53.5485C125.432 53.5485 124.48 54.5454 124.48 55.7538C124.48 58.5531 128.29 57.4454 128.29 58.8552C128.29 59.3788 127.818 59.6809 127.036 59.6809Z" fill="#0C0D0E"/>
<path d="M133.634 60.849L134.065 59.6205H136.993L137.424 60.849H138.998L136.321 53.6996H134.777L132.1 60.849H133.634ZM135.539 55.5121L136.522 58.3014H134.536L135.519 55.5121H135.539Z" fill="#0C0D0E"/>
<path d="M143.075 53.6996H141.731V60.849H143.135V55.9753L145.14 58.5632H145.18L147.185 55.9753V60.849H148.589V53.6996H147.246L145.16 56.4687L143.075 53.6996Z" fill="#0C0D0E"/>
<path d="M157.222 59.4996H153.562V57.8986H157.071V56.5492H153.562V55.0489H157.222V53.6996H152.098V60.849H157.222V59.4996Z" fill="#0C0D0E"/>
<path d="M168.226 60.849C169.77 60.849 170.562 60.0535 170.562 58.825C170.562 58.0597 170.121 57.4958 169.469 57.2441C170.08 56.9722 170.461 56.4083 170.461 55.6631C170.461 54.5756 169.729 53.6996 168.095 53.6996H165.087V60.849H168.226ZM168.185 57.8986C168.807 57.8986 169.088 58.2309 169.088 58.7142C169.088 59.2177 168.807 59.5298 168.185 59.5298H166.511V57.8986H168.185ZM168.085 55.0187C168.727 55.0187 168.988 55.3711 168.988 55.794C168.988 56.3076 168.647 56.5694 168.085 56.5694H166.511V55.0187H168.085Z" fill="#0C0D0E"/>
<path d="M178.383 59.4996H175.224V53.6996H173.76V60.849H178.383V59.4996Z" fill="#0C0D0E"/>
<path d="M187.984 57.2743C187.984 55.1294 186.44 53.5485 184.285 53.5485C182.129 53.5485 180.585 55.1294 180.585 57.2743C180.585 59.4191 182.129 61 184.285 61C186.44 61 187.984 59.4191 187.984 57.2743ZM186.44 57.2743C186.44 58.684 185.548 59.6003 184.285 59.6003C183.021 59.6003 182.129 58.684 182.129 57.2743C182.129 55.8645 183.021 54.9482 184.285 54.9482C185.548 54.9482 186.44 55.8645 186.44 57.2743Z" fill="#0C0D0E"/>
<path d="M198.234 57.2743C198.234 55.1294 196.69 53.5485 194.534 53.5485C192.379 53.5485 190.835 55.1294 190.835 57.2743C190.835 59.4191 192.379 61 194.534 61C196.69 61 198.234 59.4191 198.234 57.2743ZM196.69 57.2743C196.69 58.684 195.798 59.6003 194.534 59.6003C193.271 59.6003 192.379 58.684 192.379 57.2743C192.379 55.8645 193.271 54.9482 194.534 54.9482C195.798 54.9482 196.69 55.8645 196.69 57.2743Z" fill="#0C0D0E"/>
<path d="M203.972 60.849C206.398 60.849 207.722 59.3486 207.722 57.2743C207.722 55.1999 206.398 53.6996 203.972 53.6996H201.415V60.849H203.972ZM206.178 57.2743C206.178 58.6135 205.486 59.4996 203.932 59.4996H202.879V55.0489H203.932C205.486 55.0489 206.178 55.935 206.178 57.2743Z" fill="#0C0D0E"/>
<path d="M215.523 59.4996H212.365V53.6996H210.901V60.849H215.523V59.4996Z" fill="#0C0D0E"/>
<path d="M219.853 53.6996H218.389V60.849H219.853V53.6996Z" fill="#0C0D0E"/>
<path d="M224.785 56.1263L227.893 60.849H229.367V53.6996H227.943V58.4222L224.835 53.6996H223.361V60.849H224.785V56.1263Z" fill="#0C0D0E"/>
<path d="M238 59.4996H234.34V57.8986H237.849V56.5492H234.34V55.0489H238V53.6996H232.876V60.849H238V59.4996Z" fill="#0C0D0E"/>
<path d="M117.692 56.1824H119.197V57.6943H117.692V56.1824Z" fill="#0C0D0E"/>
<path fill-rule="evenodd" clip-rule="evenodd" d="M0 4.20737L4.1789 0.0237723H28.1406L32.3195 4.20737V36.6895L28.1406 40.8731H4.1789L0 36.6895V4.20737ZM8.43395 8.02283L7.99006 8.46722V32.4297L8.43395 32.8741H23.8855L24.3294 32.4297V8.46722L23.8855 8.02283H8.43395Z" fill="#0C0D0E"/>
<path d="M92.9641 30.3417L92.9684 30.3474L89.8369 40.8731H81.4984L92.7576 3.02707L96.7751 0.0237723H108.27L112.288 3.02707L123.547 40.8731H115.209L105.536 8.35936L105.11 8.04181H99.9352L99.5098 8.35936L96.0397 20.0237L96.0422 20.0271L92.9641 30.3417Z" fill="#0C0D0E"/>
<path fill-rule="evenodd" clip-rule="evenodd" d="M129.738 4.22214L133.917 0.0237723H158.628L162.807 4.22214V24.4179L158.628 28.6163H138.171L137.728 29.0607V40.8732H129.738V4.22214ZM138.171 8.05324L137.728 8.49763V20.1424L138.171 20.5868H154.373L154.817 20.1424V8.49763L154.373 8.05324H138.171Z" fill="#0C0D0E"/>
<path d="M169.098 4.22566L173.278 0.0237723H195.751L199.93 4.22566V36.6712L195.751 40.8731H173.278L169.098 36.6712V29.5313H177.088V32.392L177.532 32.8364H191.496L191.94 32.392V24.8884L191.496 24.444H177.976V16.4073H191.496L191.94 15.9629V8.5049L191.496 8.06051H177.532L177.088 8.5049V11.3651H169.098V4.22566Z" fill="#0C0D0E"/>
<path d="M207.168 4.20814L211.347 0.0237723H233.821L238 4.20813V11.543H230.01V8.46879L229.566 8.0244H215.602L215.158 8.46879V14.2043L215.499 14.6365L234.785 19.2589L238 23.3394V36.6888L233.821 40.8731H211.347L207.168 36.6887V29.5076H215.158V32.4281L215.602 32.8725H229.566L230.01 32.4281V26.6916L229.669 26.2595L210.383 21.637L207.168 17.5565V4.20814Z" fill="#0C0D0E"/>
<path d="M39.8159 10.405V0H47.806V8.22092L47.9925 8.58299L57.5204 15.3706H58.0352L67.5631 8.58299L67.7497 8.22092V0H75.7397V10.405L73.9732 13.8341L65.1766 20.1007V20.8248L73.9732 27.0914L75.7397 30.5205V40.8732H67.7497V32.7046L67.5631 32.3425L58.0352 25.5549H57.5204L47.9925 32.3425L47.806 32.7046V40.8732H39.8159V30.5205L41.5824 27.0914L50.379 20.8248V20.1007L41.5824 13.8341L39.8159 10.405Z" fill="#0C0D0E"/>
</svg>
