<svg width="40" height="41" viewBox="0 0 40 41" fill="none" xmlns="http://www.w3.org/2000/svg">
<rect y="0.445312" width="40" height="40" rx="6" fill="black"/>
<path fill-rule="evenodd" clip-rule="evenodd" d="M6 12.4453C6 10.2362 7.79086 8.44531 10 8.44531H30C32.2091 8.44531 34 10.2362 34 12.4453V23.4453C34 25.6545 32.2091 27.4453 30 27.4453H24V30.4453H27V32.4453H13V30.4453H16V27.4453H10C7.79086 27.4453 6 25.6545 6 23.4453V12.4453ZM18 30.4453H22V27.4453H18V30.4453ZM30 25.4453H10C8.89543 25.4453 8 24.5499 8 23.4453V12.4453C8 11.3407 8.89543 10.4453 10 10.4453H30C31.1046 10.4453 32 11.3407 32 12.4453V23.4453C32 24.5499 31.1046 25.4453 30 25.4453Z" fill="white"/>
</svg>
