<svg width="113" height="18" viewBox="0 0 113 18" fill="none" xmlns="http://www.w3.org/2000/svg">
<path d="M21.8239 17.884C22.7376 17.884 23.4783 17.1342 23.4783 16.2092V12.9358H30.8274V8.24538H23.4783V5.44446H35.5497V17.884H38.8897C39.8034 17.884 40.5441 17.1342 40.5441 16.2092V5.44367H46.8806L44.4741 0.658323L20.0102 0.649353C19.1 0.654312 18.3647 1.40264 18.3647 2.32404V17.884H21.8239Z" fill="black"/>
<path d="M0 0.658318H4.76664L10.7847 9.39883V2.33258C10.7847 1.40766 11.5254 0.658318 12.4391 0.658318H15.8682V17.884H11.1015L5.10016 9.36413V16.2092C5.10016 17.1342 4.35947 17.884 3.44578 17.884H0V0.658318Z" fill="black"/>
<path d="M60.2842 0.658323H46.5589L53.1956 13.3706C54.6435 16.1439 57.516 17.8832 60.6485 17.8832C66.9451 17.8832 71.0055 11.2256 68.1153 5.64064L67.9481 5.31746C66.4671 2.45577 63.5105 0.658323 60.2842 0.658323Z" fill="black"/>
<path d="M87.5848 17.884H72.7297C71.7768 17.884 71.0044 17.1128 71.0044 16.1615V0.659129H78.8369C83.5414 0.659129 86.3897 2.98956 86.3897 6.91578C86.3897 9.24621 85.4234 10.994 83.4651 12.1846L87.5848 17.884Z" fill="black"/>
<path d="M89.3606 2.38161C89.3606 1.43031 90.1331 0.659129 91.0859 0.659129H94.4721V16.1615C94.4721 17.1128 93.6997 17.884 92.7468 17.884H89.3606V2.38161Z" fill="black"/>
<path d="M96.97 17.884V0.659129H104.243C109.126 0.659129 112.025 3.09087 112.025 7.21975C112.025 11.45 109.075 13.9071 104.065 13.9071H102.082V16.1615C102.082 17.1128 101.309 17.884 100.356 17.884H96.97Z" fill="black"/>
</svg>
