<svg width="1500" height="500" viewBox="0 0 1500 500" fill="none" xmlns="http://www.w3.org/2000/svg">
    <path opacity="0.4"
        d="M1251.47 419.416V418.731L1268.17 406.887L1271.52 400.406V361.886L1268.17 355.404L1252.64 344.388H1222.21L1206.68 355.404L1203.33 361.886V400.406L1206.68 406.887L1223.38 418.731V419.416M1251.47 419.416V420.1L1268.17 431.944L1271.52 438.426V476.845L1268.17 483.326L1251.47 495.17V496.539L1268.17 508.384L1271.52 514.865V553.385L1268.17 559.866L1251.47 571.711V573.079L1268.17 584.924L1271.52 591.405V610.973H1256.35V595.533L1256 594.849L1237.91 582.02H1236.94L1218.85 594.849L1218.5 595.533V610.973H1203.33V591.405L1206.68 584.924L1223.38 573.079V571.711L1206.68 559.866L1203.33 553.385V514.865L1206.68 508.384L1223.38 496.539V495.17L1206.68 483.326L1203.33 476.845V438.426L1206.68 431.944L1223.38 420.1V419.416M1251.47 419.416H1223.38M-127 17.3486V-2.31775H-111.833V13.2205L-111.479 13.9049L-93.3924 26.7341H-92.4153L-74.3289 13.9049L-73.9748 13.2205V-2.31775H-58.8077V17.3486L-62.1611 23.8299L-78.8591 35.6743V37.043L-62.161 48.8874L-58.8077 55.3687L-58.8077 93.8889L-62.1611 100.37L-78.8591 112.215V113.583L-62.161 125.428L-58.8077 131.909L-58.8077 170.328L-62.1611 176.809L-78.8591 188.654V190.022L-62.161 201.867L-58.8077 208.348L-58.8077 246.868L-62.1611 253.349L-78.8591 265.194V266.563L-62.161 278.407L-58.8077 284.888L-58.8077 323.865L-62.1611 330.346L-78.8591 342.191V343.56L-62.161 355.404L-58.8077 361.885L-58.8077 400.405L-62.1611 406.887L-78.8591 418.731V420.1L-62.161 431.944L-58.8077 438.425L-58.8077 476.845L-62.1611 483.326L-78.8591 495.17V496.539L-62.161 508.383L-58.8077 514.865L-58.8077 553.385L-62.1611 559.866L-78.8591 571.71V573.079L-62.161 584.924L-58.8077 591.405V610.972H-73.9748V595.533L-74.3289 594.849L-92.4153 582.019H-93.3924L-111.479 594.849L-111.833 595.533V610.972H-127V591.405L-123.647 584.924L-106.949 573.079V571.71L-123.647 559.866L-127 553.385L-127 514.865L-123.647 508.383L-106.949 496.539V495.17L-123.647 483.326L-127 476.845L-127 438.425L-123.647 431.944L-106.949 420.1V418.731L-123.647 406.887L-127 400.405L-127 361.885L-123.647 355.404L-106.949 343.56V342.191L-123.647 330.346L-127 323.865L-127 284.888L-123.647 278.407L-106.949 266.563V265.194L-123.647 253.349L-127 246.868L-127 208.348L-123.647 201.867L-106.949 190.022V188.654L-123.647 176.809L-127 170.328L-127 131.909L-123.647 125.428L-106.949 113.583V112.215L-123.647 100.37L-127 93.8889L-127 55.3687L-123.647 48.8874L-106.949 37.043V35.6743L-123.647 23.8299L-127 17.3486ZM-73.9748 289.016L-74.3289 288.332L-92.4153 275.503H-93.3924L-111.479 288.332L-111.833 289.016V319.737L-111.479 320.421L-93.3924 333.251H-92.4153L-74.3289 320.421L-73.9748 319.737L-73.9748 289.016ZM-111.833 166.2L-111.479 166.884L-93.3924 179.713H-92.4153L-74.3289 166.884L-73.9748 166.2L-73.9748 136.037L-74.3289 135.353L-92.4153 122.523H-93.3924L-111.479 135.353L-111.833 136.037V166.2ZM-74.3289 58.8125L-73.9748 59.4968L-73.9748 89.7607L-74.3289 90.4451L-92.4153 103.274H-93.3924L-111.479 90.4451L-111.833 89.7607V59.4968L-111.479 58.8125L-93.3924 45.9832H-92.4153L-74.3289 58.8125ZM-74.3289 211.792L-73.9748 212.476L-73.9748 242.74L-74.3289 243.424L-92.4153 256.254H-93.3924L-111.479 243.424L-111.833 242.74V212.476L-111.479 211.792L-93.3924 198.963H-92.4153L-74.3289 211.792ZM-111.833 472.716L-111.479 473.401L-93.3924 486.23H-92.4153L-74.3289 473.401L-73.9748 472.716L-73.9748 442.554L-74.3289 441.869L-92.4153 429.04H-93.3924L-111.479 441.869L-111.833 442.554V472.716ZM-74.3289 365.329L-73.9748 366.013L-73.9748 396.277L-74.3289 396.962L-92.4153 409.791H-93.3924L-111.479 396.962L-111.833 396.277V366.013L-111.479 365.329L-93.3924 352.5H-92.4153L-74.3289 365.329ZM-74.3289 518.308L-73.9748 518.993L-73.9748 549.257L-74.3289 549.941L-92.4153 562.77H-93.3924L-111.479 549.941L-111.833 549.257V518.993L-111.479 518.308L-93.3924 505.479H-92.4153L-74.3289 518.308ZM-48.7249 17.3486V-2.31775H-33.5578V13.2205L-33.2037 13.9049L-15.1173 26.7341H-14.1403L3.94618 13.9049L4.30023 13.2205V-2.31775H19.4673V17.3486L16.114 23.8299L-0.584023 35.6743V37.043L16.114 48.8874L19.4674 55.3687L19.4673 93.8889L16.114 100.37L-0.584023 112.215V113.583L16.114 125.428L19.4674 131.909L19.4673 170.328L16.114 176.809L-0.584023 188.654V190.022L16.114 201.867L19.4674 208.348L19.4673 246.868L16.114 253.349L-0.584023 265.194V266.563L16.114 278.407L19.4674 284.888L19.4673 323.865L16.114 330.346L-0.584023 342.191V343.56L16.114 355.404L19.4674 361.885L19.4673 400.405L16.114 406.887L-0.584023 418.731V420.1L16.114 431.944L19.4674 438.425L19.4673 476.845L16.114 483.326L-0.584023 495.17V496.539L16.114 508.383L19.4674 514.865L19.4673 553.385L16.114 559.866L-0.584023 571.71V573.079L16.114 584.924L19.4674 591.405V610.972H4.30026V595.533L3.94618 594.849L-14.1403 582.019H-15.1173L-33.2038 594.849L-33.5578 595.533V610.972H-48.7249V591.405L-45.3716 584.924L-28.6735 573.079V571.71L-45.3716 559.866L-48.7249 553.385L-48.7249 514.865L-45.3716 508.383L-28.6735 496.539V495.17L-45.3716 483.326L-48.7249 476.845L-48.7249 438.425L-45.3716 431.944L-28.6735 420.1V418.731L-45.3716 406.887L-48.7249 400.405L-48.7249 361.885L-45.3716 355.404L-28.6735 343.56V342.191L-45.3716 330.346L-48.7249 323.865L-48.7249 284.888L-45.3716 278.407L-28.6735 266.563V265.194L-45.3716 253.349L-48.7249 246.868L-48.7249 208.348L-45.3716 201.867L-28.6735 190.022V188.654L-45.3716 176.809L-48.7249 170.328L-48.7249 131.909L-45.3716 125.428L-28.6735 113.583V112.215L-45.3716 100.37L-48.7249 93.8889L-48.7249 55.3687L-45.3716 48.8874L-28.6735 37.043V35.6743L-45.3716 23.8299L-48.7249 17.3486ZM4.30026 289.016L3.94618 288.332L-14.1403 275.503H-15.1173L-33.2038 288.332L-33.5578 289.016V319.737L-33.2037 320.421L-15.1173 333.251H-14.1403L3.94618 320.421L4.30023 319.737L4.30026 289.016ZM-33.5578 166.2L-33.2037 166.884L-15.1173 179.713H-14.1403L3.94618 166.884L4.30023 166.2L4.30026 136.037L3.94618 135.353L-14.1403 122.523H-15.1173L-33.2038 135.353L-33.5578 136.037V166.2ZM3.94618 58.8125L4.30026 59.4968L4.30023 89.7607L3.94618 90.4451L-14.1403 103.274H-15.1173L-33.2037 90.4451L-33.5578 89.7607V59.4968L-33.2038 58.8125L-15.1173 45.9832H-14.1403L3.94618 58.8125ZM3.94618 211.792L4.30026 212.476L4.30023 242.74L3.94618 243.424L-14.1403 256.254H-15.1173L-33.2037 243.424L-33.5578 242.74V212.476L-33.2038 211.792L-15.1173 198.963H-14.1403L3.94618 211.792ZM-33.5578 472.716L-33.2037 473.401L-15.1173 486.23H-14.1403L3.94618 473.401L4.30023 472.716L4.30026 442.554L3.94618 441.869L-14.1403 429.04H-15.1173L-33.2038 441.869L-33.5578 442.554V472.716ZM3.94618 365.329L4.30026 366.013L4.30023 396.277L3.94618 396.962L-14.1403 409.791H-15.1173L-33.2037 396.962L-33.5578 396.277V366.013L-33.2038 365.329L-15.1173 352.5H-14.1403L3.94618 365.329ZM3.94618 518.308L4.30026 518.993L4.30023 549.257L3.94618 549.941L-14.1403 562.77H-15.1173L-33.2037 549.941L-33.5578 549.257V518.993L-33.2038 518.308L-15.1173 505.479H-14.1403L3.94618 518.308ZM29.548 17.3486V-2.31775H44.7151V13.2205L45.0691 13.9049L63.1555 26.7341H64.1326L82.2191 13.9049L82.5731 13.2205V-2.31775H97.7402V17.3486L94.3869 23.8299L77.6889 35.6743V37.043L94.3869 48.8874L97.7402 55.3687V93.8889L94.3869 100.37L77.6889 112.215V113.583L94.3869 125.428L97.7402 131.909V170.328L94.3869 176.809L77.6889 188.654V190.022L94.3869 201.867L97.7402 208.348V246.868L94.3869 253.349L77.6889 265.194V266.563L94.3869 278.407L97.7402 284.888V323.865L94.3869 330.346L77.6889 342.191V343.56L94.3869 355.404L97.7402 361.885V400.405L94.3869 406.887L77.6889 418.731V420.1L94.3869 431.944L97.7402 438.425V476.845L94.3869 483.326L77.6889 495.17V496.539L94.3869 508.383L97.7402 514.865V553.385L94.3869 559.866L77.6889 571.71V573.079L94.3869 584.924L97.7402 591.405V610.972H82.5732V595.533L82.2191 594.849L64.1326 582.019H63.1555L45.0691 594.849L44.7151 595.533V610.972H29.548V591.405L32.9013 584.924L49.5993 573.079V571.71L32.9013 559.866L29.548 553.385L29.548 514.865L32.9013 508.383L49.5993 496.539V495.17L32.9013 483.326L29.548 476.845L29.548 438.425L32.9013 431.944L49.5993 420.1V418.731L32.9013 406.887L29.548 400.405L29.548 361.885L32.9013 355.404L49.5993 343.56V342.191L32.9013 330.346L29.548 323.865L29.548 284.888L32.9013 278.407L49.5993 266.563V265.194L32.9013 253.349L29.548 246.868L29.548 208.348L32.9013 201.867L49.5993 190.022V188.654L32.9013 176.809L29.548 170.328L29.548 131.909L32.9013 125.428L49.5993 113.583V112.215L32.9013 100.37L29.548 93.8889L29.548 55.3687L32.9013 48.8874L49.5993 37.043V35.6743L32.9013 23.8299L29.548 17.3486ZM82.5732 289.016L82.2191 288.332L64.1326 275.503H63.1555L45.0691 288.332L44.7151 289.016V319.737L45.0691 320.421L63.1555 333.251H64.1326L82.2191 320.421L82.5731 319.737L82.5732 289.016ZM44.7151 166.2L45.0691 166.884L63.1555 179.713H64.1326L82.2191 166.884L82.5731 166.2L82.5732 136.037L82.2191 135.353L64.1326 122.523H63.1555L45.0691 135.353L44.7151 136.037V166.2ZM82.2191 58.8125L82.5732 59.4968L82.5731 89.7607L82.2191 90.4451L64.1326 103.274H63.1555L45.0691 90.4451L44.7151 89.7607V59.4968L45.0691 58.8125L63.1555 45.9832H64.1326L82.2191 58.8125ZM82.2191 211.792L82.5732 212.476L82.5731 242.74L82.2191 243.424L64.1326 256.254H63.1555L45.0691 243.424L44.7151 242.74V212.476L45.0691 211.792L63.1555 198.963H64.1326L82.2191 211.792ZM44.7151 472.716L45.0691 473.401L63.1555 486.23H64.1326L82.2191 473.401L82.5731 472.716L82.5732 442.554L82.2191 441.869L64.1326 429.04H63.1555L45.0691 441.869L44.7151 442.554V472.716ZM82.2191 365.329L82.5732 366.013L82.5731 396.277L82.2191 396.962L64.1326 409.791H63.1555L45.0691 396.962L44.7151 396.277V366.013L45.0691 365.329L63.1555 352.5H64.1326L82.2191 365.329ZM82.2191 518.308L82.5732 518.993L82.5731 549.257L82.2191 549.941L64.1326 562.77H63.1555L45.0691 549.941L44.7151 549.257V518.993L45.0691 518.308L63.1555 505.479H64.1326L82.2191 518.308ZM107.823 17.3486V-2.31775H122.99V13.2205L123.344 13.9049L141.431 26.7341H142.408L160.494 13.9049L160.848 13.2205V-2.31775H176.015V17.3486L172.662 23.8299L155.964 35.6743V37.043L172.662 48.8874L176.015 55.3687V93.8889L172.662 100.37L155.964 112.215V113.583L172.662 125.428L176.015 131.909V170.328L172.662 176.809L155.964 188.654V190.022L172.662 201.867L176.015 208.348V246.868L172.662 253.349L155.964 265.194V266.563L172.662 278.407L176.015 284.888V323.865L172.662 330.346L155.964 342.191V343.56L172.662 355.404L176.015 361.885V400.405L172.662 406.887L155.964 418.731V420.1L172.662 431.944L176.015 438.425V476.845L172.662 483.326L155.964 495.17V496.539L172.662 508.383L176.015 514.865V553.385L172.662 559.866L155.964 571.71V573.079L172.662 584.924L176.015 591.405V610.972H160.848V595.533L160.494 594.849L142.408 582.019H141.431L123.344 594.849L122.99 595.533V610.972H107.823V591.405L111.176 584.924L127.874 573.079V571.71L111.176 559.866L107.823 553.385L107.823 514.865L111.176 508.383L127.874 496.539V495.17L111.176 483.326L107.823 476.845L107.823 438.425L111.176 431.944L127.874 420.1V418.731L111.176 406.887L107.823 400.405L107.823 361.885L111.176 355.404L127.874 343.56V342.191L111.176 330.346L107.823 323.865L107.823 284.888L111.176 278.407L127.874 266.563V265.194L111.176 253.349L107.823 246.868L107.823 208.348L111.176 201.867L127.874 190.022V188.654L111.176 176.809L107.823 170.328L107.823 131.909L111.176 125.428L127.874 113.583V112.215L111.176 100.37L107.823 93.8889L107.823 55.3687L111.176 48.8874L127.874 37.043V35.6743L111.176 23.8299L107.823 17.3486ZM160.848 289.016L160.494 288.332L142.408 275.503H141.431L123.344 288.332L122.99 289.016V319.737L123.344 320.421L141.431 333.251H142.408L160.494 320.421L160.848 319.737L160.848 289.016ZM122.99 166.2L123.344 166.884L141.431 179.713H142.408L160.494 166.884L160.848 166.2L160.848 136.037L160.494 135.353L142.408 122.523H141.431L123.344 135.353L122.99 136.037V166.2ZM160.494 58.8125L160.848 59.4968L160.848 89.7607L160.494 90.4451L142.408 103.274H141.431L123.344 90.4451L122.99 89.7607V59.4968L123.344 58.8125L141.431 45.9832H142.408L160.494 58.8125ZM160.494 211.792L160.848 212.476L160.848 242.74L160.494 243.424L142.408 256.254H141.431L123.344 243.424L122.99 242.74V212.476L123.344 211.792L141.431 198.963H142.408L160.494 211.792ZM122.99 472.716L123.344 473.401L141.431 486.23H142.408L160.494 473.401L160.848 472.716L160.848 442.554L160.494 441.869L142.408 429.04H141.431L123.344 441.869L122.99 442.554V472.716ZM160.494 365.329L160.848 366.013L160.848 396.277L160.494 396.962L142.408 409.791H141.431L123.344 396.962L122.99 396.277V366.013L123.344 365.329L141.431 352.5H142.408L160.494 365.329ZM160.494 518.308L160.848 518.993L160.848 549.257L160.494 549.941L142.408 562.77H141.431L123.344 549.941L122.99 549.257V518.993L123.344 518.308L141.431 505.479H142.408L160.494 518.308ZM186.097 17.3486V-2.31775H201.264V13.2205L201.618 13.9049L219.704 26.7341H220.681L238.768 13.9049L239.122 13.2205V-2.31775H254.289V17.3486L250.936 23.8299L234.238 35.6743V37.043L250.936 48.8874L254.289 55.3687V93.8889L250.936 100.37L234.238 112.215V113.583L250.936 125.428L254.289 131.909V170.328L250.936 176.809L234.238 188.654V190.022L250.936 201.867L254.289 208.348V246.868L250.936 253.349L234.238 265.194V266.563L250.936 278.407L254.289 284.888V323.865L250.936 330.346L234.238 342.191V343.56L250.936 355.404L254.289 361.885V400.405L250.936 406.887L234.238 418.731V420.1L250.936 431.944L254.289 438.425V476.845L250.936 483.326L234.238 495.17V496.539L250.936 508.383L254.289 514.865V553.385L250.936 559.866L234.238 571.71V573.079L250.936 584.924L254.289 591.405V610.972H239.122V595.533L238.768 594.849L220.681 582.019H219.704L201.618 594.849L201.264 595.533V610.972H186.097V591.405L189.45 584.924L206.148 573.079V571.71L189.45 559.866L186.097 553.385L186.097 514.865L189.45 508.383L206.148 496.539V495.17L189.45 483.326L186.097 476.845L186.097 438.425L189.45 431.944L206.148 420.1V418.731L189.45 406.887L186.097 400.405L186.097 361.885L189.45 355.404L206.148 343.56V342.191L189.45 330.346L186.097 323.865L186.097 284.888L189.45 278.407L206.148 266.563V265.194L189.45 253.349L186.097 246.868L186.097 208.348L189.45 201.867L206.148 190.022V188.654L189.45 176.809L186.097 170.328L186.097 131.909L189.45 125.428L206.148 113.583V112.215L189.45 100.37L186.097 93.8889L186.097 55.3687L189.45 48.8874L206.148 37.043V35.6743L189.45 23.8299L186.097 17.3486ZM239.122 289.016L238.768 288.332L220.681 275.503H219.704L201.618 288.332L201.264 289.016V319.737L201.618 320.421L219.704 333.251H220.681L238.768 320.421L239.122 319.737V289.016ZM201.264 166.2L201.618 166.884L219.704 179.713H220.681L238.768 166.884L239.122 166.2V136.037L238.768 135.353L220.681 122.523H219.704L201.618 135.353L201.264 136.037V166.2ZM238.768 58.8125L239.122 59.4968V89.7607L238.768 90.4451L220.681 103.274H219.704L201.618 90.4451L201.264 89.7607V59.4968L201.618 58.8125L219.704 45.9832H220.681L238.768 58.8125ZM238.768 211.792L239.122 212.476V242.74L238.768 243.424L220.681 256.254H219.704L201.618 243.424L201.264 242.74V212.476L201.618 211.792L219.704 198.963H220.681L238.768 211.792ZM201.264 472.716L201.618 473.401L219.704 486.23H220.681L238.768 473.401L239.122 472.716V442.554L238.768 441.869L220.681 429.04H219.704L201.618 441.869L201.264 442.554V472.716ZM238.768 365.329L239.122 366.013V396.277L238.768 396.962L220.681 409.791H219.704L201.618 396.962L201.264 396.277V366.013L201.618 365.329L219.704 352.5H220.681L238.768 365.329ZM238.768 518.308L239.122 518.993V549.257L238.768 549.941L220.681 562.77H219.704L201.618 549.941L201.264 549.257V518.993L201.618 518.308L219.704 505.479H220.681L238.768 518.308ZM264.37 17.3486V-2.31775H279.537V13.2205L279.891 13.9049L297.977 26.7341H298.954L317.041 13.9049L317.395 13.2205V-2.31775H332.562V17.3486L329.208 23.8299L312.51 35.6743V37.043L329.208 48.8874L332.562 55.3687L332.562 93.8889L329.208 100.37L312.51 112.215V113.583L329.208 125.428L332.562 131.909L332.562 170.328L329.208 176.809L312.51 188.654V190.022L329.208 201.867L332.562 208.348L332.562 246.868L329.208 253.349L312.51 265.194V266.563L329.208 278.407L332.562 284.888L332.562 323.865L329.208 330.346L312.51 342.191V343.56L329.208 355.404L332.562 361.885L332.562 400.405L329.208 406.887L312.51 418.731V420.1L329.208 431.944L332.562 438.425L332.562 476.845L329.208 483.326L312.51 495.17V496.539L329.208 508.383L332.562 514.865L332.562 553.385L329.208 559.866L312.51 571.71V573.079L329.208 584.924L332.562 591.405V610.972H317.395V595.533L317.041 594.849L298.954 582.019H297.977L279.891 594.849L279.537 595.533V610.972H264.37V591.405L267.723 584.924L284.421 573.079V571.71L267.723 559.866L264.37 553.385V514.865L267.723 508.383L284.421 496.539V495.17L267.723 483.326L264.37 476.845V438.425L267.723 431.944L284.421 420.1V418.731L267.723 406.887L264.37 400.405V361.885L267.723 355.404L284.421 343.56V342.191L267.723 330.346L264.37 323.865V284.888L267.723 278.407L284.421 266.563V265.194L267.723 253.349L264.37 246.868V208.348L267.723 201.867L284.421 190.022V188.654L267.723 176.809L264.37 170.328V131.909L267.723 125.428L284.421 113.583V112.215L267.723 100.37L264.37 93.8889V55.3687L267.723 48.8874L284.421 37.043V35.6743L267.723 23.8299L264.37 17.3486ZM317.395 289.016L317.041 288.332L298.954 275.503H297.977L279.891 288.332L279.537 289.016V319.737L279.891 320.421L297.977 333.251H298.954L317.041 320.421L317.395 319.737L317.395 289.016ZM279.537 166.2L279.891 166.884L297.977 179.713H298.954L317.041 166.884L317.395 166.2L317.395 136.037L317.041 135.353L298.954 122.523H297.977L279.891 135.353L279.537 136.037V166.2ZM317.041 58.8125L317.395 59.4968L317.395 89.7607L317.041 90.4451L298.954 103.274H297.977L279.891 90.4451L279.537 89.7607V59.4968L279.891 58.8125L297.977 45.9832H298.954L317.041 58.8125ZM317.041 211.792L317.395 212.476L317.395 242.74L317.041 243.424L298.954 256.254H297.977L279.891 243.424L279.537 242.74V212.476L279.891 211.792L297.977 198.963H298.954L317.041 211.792ZM279.537 472.716L279.891 473.401L297.977 486.23H298.954L317.041 473.401L317.395 472.716L317.395 442.554L317.041 441.869L298.954 429.04H297.977L279.891 441.869L279.537 442.554V472.716ZM317.041 365.329L317.395 366.013L317.395 396.277L317.041 396.962L298.954 409.791H297.977L279.891 396.962L279.537 396.277V366.013L279.891 365.329L297.977 352.5H298.954L317.041 365.329ZM317.041 518.308L317.395 518.993L317.395 549.257L317.041 549.941L298.954 562.77H297.977L279.891 549.941L279.537 549.257V518.993L279.891 518.308L297.977 505.479H298.954L317.041 518.308ZM342.645 17.3486V-2.31775H357.812V13.2205L358.166 13.9049L376.253 26.7341H377.23L395.316 13.9049L395.67 13.2205V-2.31775H410.838V17.3486L407.484 23.8299L390.786 35.6743V37.043L407.484 48.8874L410.838 55.3687L410.838 93.8889L407.484 100.37L390.786 112.215V113.583L407.484 125.428L410.838 131.909L410.838 170.328L407.484 176.809L390.786 188.654V190.022L407.484 201.867L410.838 208.348L410.838 246.868L407.484 253.349L390.786 265.194V266.563L407.484 278.407L410.838 284.888L410.838 323.865L407.484 330.346L390.786 342.191V343.56L407.484 355.404L410.838 361.885L410.838 400.405L407.484 406.887L390.786 418.731V420.1L407.484 431.944L410.838 438.425L410.838 476.845L407.484 483.326L390.786 495.17V496.539L407.484 508.383L410.838 514.865L410.838 553.385L407.484 559.866L390.786 571.71V573.079L407.484 584.924L410.838 591.405V610.972H395.671V595.533L395.316 594.849L377.23 582.019H376.253L358.166 594.849L357.812 595.533V610.972H342.645V591.405L345.999 584.924L362.697 573.079V571.71L345.999 559.866L342.645 553.385V514.865L345.999 508.383L362.697 496.539V495.17L345.999 483.326L342.645 476.845V438.425L345.999 431.944L362.697 420.1V418.731L345.999 406.887L342.645 400.405V361.885L345.999 355.404L362.697 343.56V342.191L345.999 330.346L342.645 323.865V284.888L345.999 278.407L362.697 266.563V265.194L345.999 253.349L342.645 246.868V208.348L345.999 201.867L362.697 190.022V188.654L345.999 176.809L342.645 170.328V131.909L345.999 125.428L362.697 113.583V112.215L345.999 100.37L342.645 93.8889V55.3687L345.999 48.8874L362.697 37.043V35.6743L345.999 23.8299L342.645 17.3486ZM395.671 289.016L395.316 288.332L377.23 275.503H376.253L358.166 288.332L357.812 289.016V319.737L358.166 320.421L376.253 333.251H377.23L395.316 320.421L395.67 319.737L395.671 289.016ZM357.812 166.2L358.166 166.884L376.253 179.713H377.23L395.316 166.884L395.67 166.2L395.671 136.037L395.316 135.353L377.23 122.523H376.253L358.166 135.353L357.812 136.037V166.2ZM395.316 58.8125L395.671 59.4968L395.67 89.7607L395.316 90.4451L377.23 103.274H376.253L358.166 90.4451L357.812 89.7607V59.4968L358.166 58.8125L376.253 45.9832H377.23L395.316 58.8125ZM395.316 211.792L395.671 212.476L395.67 242.74L395.316 243.424L377.23 256.254H376.253L358.166 243.424L357.812 242.74V212.476L358.166 211.792L376.253 198.963H377.23L395.316 211.792ZM357.812 472.716L358.166 473.401L376.253 486.23H377.23L395.316 473.401L395.67 472.716L395.671 442.554L395.316 441.869L377.23 429.04H376.253L358.166 441.869L357.812 442.554V472.716ZM395.316 365.329L395.671 366.013L395.67 396.277L395.316 396.962L377.23 409.791H376.253L358.166 396.962L357.812 396.277V366.013L358.166 365.329L376.253 352.5H377.23L395.316 365.329ZM395.316 518.308L395.671 518.993L395.67 549.257L395.316 549.941L377.23 562.77H376.253L358.166 549.941L357.812 549.257V518.993L358.166 518.308L376.253 505.479H377.23L395.316 518.308ZM420.918 17.3486V-2.31775H436.085V13.2205L436.439 13.9049L454.526 26.7341H455.503L473.589 13.9049L473.943 13.2205V-2.31775H489.11V17.3486L485.757 23.8299L469.059 35.6743V37.043L485.757 48.8874L489.111 55.3687L489.11 93.8889L485.757 100.37L469.059 112.215V113.583L485.757 125.428L489.111 131.909L489.11 170.328L485.757 176.809L469.059 188.654V190.022L485.757 201.867L489.111 208.348L489.11 246.868L485.757 253.349L469.059 265.194V266.563L485.757 278.407L489.111 284.888L489.11 323.865L485.757 330.346L469.059 342.191V343.56L485.757 355.404L489.111 361.885L489.11 400.405L485.757 406.887L469.059 418.731V420.1L485.757 431.944L489.111 438.425L489.11 476.845L485.757 483.326L469.059 495.17V496.539L485.757 508.383L489.111 514.865L489.11 553.385L485.757 559.866L469.059 571.71V573.079L485.757 584.924L489.111 591.405V610.972H473.943V595.533L473.589 594.849L455.503 582.019H454.526L436.439 594.849L436.085 595.533V610.972H420.918V591.405L424.272 584.924L440.97 573.079V571.71L424.272 559.866L420.918 553.385V514.865L424.272 508.383L440.97 496.539V495.17L424.272 483.326L420.918 476.845V438.425L424.272 431.944L440.97 420.1V418.731L424.272 406.887L420.918 400.405V361.885L424.272 355.404L440.97 343.56V342.191L424.272 330.346L420.918 323.865V284.888L424.272 278.407L440.97 266.563V265.194L424.272 253.349L420.918 246.868V208.348L424.272 201.867L440.97 190.022V188.654L424.272 176.809L420.918 170.328V131.909L424.272 125.428L440.97 113.583V112.215L424.272 100.37L420.918 93.8889V55.3687L424.272 48.8874L440.97 37.043V35.6743L424.272 23.8299L420.918 17.3486ZM473.943 289.016L473.589 288.332L455.503 275.503H454.526L436.439 288.332L436.085 289.016V319.737L436.439 320.421L454.526 333.251H455.503L473.589 320.421L473.943 319.737L473.943 289.016ZM436.085 166.2L436.439 166.884L454.526 179.713H455.503L473.589 166.884L473.943 166.2L473.943 136.037L473.589 135.353L455.503 122.523H454.526L436.439 135.353L436.085 136.037V166.2ZM473.589 58.8125L473.943 59.4968L473.943 89.7607L473.589 90.4451L455.503 103.274H454.526L436.439 90.4451L436.085 89.7607V59.4968L436.439 58.8125L454.526 45.9832H455.503L473.589 58.8125ZM473.589 211.792L473.943 212.476L473.943 242.74L473.589 243.424L455.503 256.254H454.526L436.439 243.424L436.085 242.74V212.476L436.439 211.792L454.526 198.963H455.503L473.589 211.792ZM436.085 472.716L436.439 473.401L454.526 486.23H455.503L473.589 473.401L473.943 472.716L473.943 442.554L473.589 441.869L455.503 429.04H454.526L436.439 441.869L436.085 442.554V472.716ZM473.589 365.329L473.943 366.013L473.943 396.277L473.589 396.962L455.503 409.791H454.526L436.439 396.962L436.085 396.277V366.013L436.439 365.329L454.526 352.5H455.503L473.589 365.329ZM473.589 518.308L473.943 518.993L473.943 549.257L473.589 549.941L455.503 562.77H454.526L436.439 549.941L436.085 549.257V518.993L436.439 518.308L454.526 505.479H455.503L473.589 518.308ZM499.192 17.3486V-2.31775H514.359V13.2205L514.713 13.9049L532.799 26.7341H533.776L551.863 13.9049L552.217 13.2205V-2.31775H567.384V17.3486L564.031 23.8299L547.333 35.6743V37.043L564.031 48.8874L567.384 55.3687L567.384 93.8889L564.031 100.37L547.333 112.215V113.583L564.031 125.428L567.384 131.909L567.384 170.328L564.031 176.809L547.333 188.654V190.022L564.031 201.867L567.384 208.348L567.384 246.868L564.031 253.349L547.333 265.194V266.563L564.031 278.407L567.384 284.888L567.384 323.865L564.031 330.346L547.333 342.191V343.56L564.031 355.404L567.384 361.885L567.384 400.405L564.031 406.887L547.333 418.731V420.1L564.031 431.944L567.384 438.425L567.384 476.845L564.031 483.326L547.333 495.17V496.539L564.031 508.383L567.384 514.865L567.384 553.385L564.031 559.866L547.333 571.71V573.079L564.031 584.924L567.384 591.405V610.972H552.217V595.533L551.863 594.849L533.776 582.019H532.799L514.713 594.849L514.359 595.533V610.972H499.192V591.405L502.545 584.924L519.243 573.079V571.71L502.545 559.866L499.192 553.385V514.865L502.545 508.383L519.243 496.539V495.17L502.545 483.326L499.192 476.845V438.425L502.545 431.944L519.243 420.1V418.731L502.545 406.887L499.192 400.405V361.885L502.545 355.404L519.243 343.56V342.191L502.545 330.346L499.192 323.865V284.888L502.545 278.407L519.243 266.563V265.194L502.545 253.349L499.192 246.868V208.348L502.545 201.867L519.243 190.022V188.654L502.545 176.809L499.192 170.328V131.909L502.545 125.428L519.243 113.583V112.215L502.545 100.37L499.192 93.8889V55.3687L502.545 48.8874L519.243 37.043V35.6743L502.545 23.8299L499.192 17.3486ZM552.217 289.016L551.863 288.332L533.776 275.503H532.799L514.713 288.332L514.359 289.016V319.737L514.713 320.421L532.799 333.251H533.776L551.863 320.421L552.217 319.737L552.217 289.016ZM514.359 166.2L514.713 166.884L532.799 179.713H533.776L551.863 166.884L552.217 166.2L552.217 136.037L551.863 135.353L533.776 122.523H532.799L514.713 135.353L514.359 136.037V166.2ZM551.863 58.8125L552.217 59.4968L552.217 89.7607L551.863 90.4451L533.776 103.274H532.799L514.713 90.4451L514.359 89.7607V59.4968L514.713 58.8125L532.799 45.9832H533.776L551.863 58.8125ZM551.863 211.792L552.217 212.476L552.217 242.74L551.863 243.424L533.776 256.254H532.799L514.713 243.424L514.359 242.74V212.476L514.713 211.792L532.799 198.963H533.776L551.863 211.792ZM514.359 472.716L514.713 473.401L532.799 486.23H533.776L551.863 473.401L552.217 472.716L552.217 442.554L551.863 441.869L533.776 429.04H532.799L514.713 441.869L514.359 442.554V472.716ZM551.863 365.329L552.217 366.013L552.217 396.277L551.863 396.962L533.776 409.791H532.799L514.713 396.962L514.359 396.277V366.013L514.713 365.329L532.799 352.5H533.776L551.863 365.329ZM551.863 518.308L552.217 518.993L552.217 549.257L551.863 549.941L533.776 562.77H532.799L514.713 549.941L514.359 549.257V518.993L514.713 518.308L532.799 505.479H533.776L551.863 518.308ZM577.465 17.3486V-2.31775H592.633V13.2205L592.987 13.9049L611.073 26.7341H612.05L630.137 13.9049L630.491 13.2205V-2.31775H645.658V17.3486L642.304 23.8299L625.606 35.6743V37.043L642.304 48.8874L645.658 55.3687L645.658 93.8889L642.304 100.37L625.606 112.215V113.583L642.304 125.428L645.658 131.909L645.658 170.328L642.304 176.809L625.606 188.654V190.022L642.304 201.867L645.658 208.348L645.658 246.868L642.304 253.349L625.606 265.194V266.563L642.304 278.407L645.658 284.888L645.658 323.865L642.304 330.346L625.606 342.191V343.56L642.304 355.404L645.658 361.885L645.658 400.405L642.304 406.887L625.606 418.731V420.1L642.304 431.944L645.658 438.425L645.658 476.845L642.304 483.326L625.606 495.17V496.539L642.304 508.383L645.658 514.865L645.658 553.385L642.304 559.866L625.606 571.71V573.079L642.304 584.924L645.658 591.405V610.972H630.491V595.533L630.137 594.849L612.05 582.019H611.073L592.987 594.849L592.633 595.533V610.972H577.465V591.405L580.819 584.924L597.517 573.079V571.71L580.819 559.866L577.465 553.385V514.865L580.819 508.383L597.517 496.539V495.17L580.819 483.326L577.465 476.845V438.425L580.819 431.944L597.517 420.1V418.731L580.819 406.887L577.465 400.405V361.885L580.819 355.404L597.517 343.56V342.191L580.819 330.346L577.465 323.865V284.888L580.819 278.407L597.517 266.563V265.194L580.819 253.349L577.465 246.868V208.348L580.819 201.867L597.517 190.022V188.654L580.819 176.809L577.465 170.328V131.909L580.819 125.428L597.517 113.583V112.215L580.819 100.37L577.465 93.8889V55.3687L580.819 48.8874L597.517 37.043V35.6743L580.819 23.8299L577.465 17.3486ZM630.491 289.016L630.137 288.332L612.05 275.503H611.073L592.987 288.332L592.633 289.016V319.737L592.987 320.421L611.073 333.251H612.05L630.137 320.421L630.491 319.737L630.491 289.016ZM592.633 166.2L592.987 166.884L611.073 179.713H612.05L630.137 166.884L630.491 166.2L630.491 136.037L630.137 135.353L612.05 122.523H611.073L592.987 135.353L592.633 136.037V166.2ZM630.137 58.8125L630.491 59.4968L630.491 89.7607L630.137 90.4451L612.05 103.274H611.073L592.987 90.4451L592.633 89.7607V59.4968L592.987 58.8125L611.073 45.9832H612.05L630.137 58.8125ZM630.137 211.792L630.491 212.476L630.491 242.74L630.137 243.424L612.05 256.254H611.073L592.987 243.424L592.633 242.74V212.476L592.987 211.792L611.073 198.963H612.05L630.137 211.792ZM592.633 472.716L592.987 473.401L611.073 486.23H612.05L630.137 473.401L630.491 472.716L630.491 442.554L630.137 441.869L612.05 429.04H611.073L592.987 441.869L592.633 442.554V472.716ZM630.137 365.329L630.491 366.013L630.491 396.277L630.137 396.962L612.05 409.791H611.073L592.987 396.962L592.633 396.277V366.013L592.987 365.329L611.073 352.5H612.05L630.137 365.329ZM630.137 518.308L630.491 518.993L630.491 549.257L630.137 549.941L612.05 562.77H611.073L592.987 549.941L592.633 549.257V518.993L592.987 518.308L611.073 505.479H612.05L630.137 518.308ZM655.74 17.3486V-2.31775H670.907V13.2205L671.261 13.9049L689.347 26.7341H690.324L708.411 13.9049L708.765 13.2205V-2.31775H723.932V17.3486L720.579 23.8299L703.881 35.6743V37.043L720.579 48.8874L723.932 55.3687V93.8889L720.579 100.37L703.881 112.215V113.583L720.579 125.428L723.932 131.909V170.328L720.579 176.809L703.881 188.654V190.022L720.579 201.867L723.932 208.348V246.868L720.579 253.349L703.881 265.194V266.563L720.579 278.407L723.932 284.888V323.865L720.579 330.346L703.881 342.191V343.56L720.579 355.404L723.932 361.885V400.405L720.579 406.887L703.881 418.731V420.1L720.579 431.944L723.932 438.425V476.845L720.579 483.326L703.881 495.17V496.539L720.579 508.383L723.932 514.865V553.385L720.579 559.866L703.881 571.71V573.079L720.579 584.924L723.932 591.405V610.972H708.765V595.533L708.411 594.849L690.324 582.019H689.347L671.261 594.849L670.907 595.533V610.972H655.74V591.405L659.093 584.924L675.791 573.079V571.71L659.093 559.866L655.74 553.385V514.865L659.093 508.383L675.791 496.539V495.17L659.093 483.326L655.74 476.845V438.425L659.093 431.944L675.791 420.1V418.731L659.093 406.887L655.74 400.405V361.885L659.093 355.404L675.791 343.56V342.191L659.093 330.346L655.74 323.865V284.888L659.093 278.407L675.791 266.563V265.194L659.093 253.349L655.74 246.868V208.348L659.093 201.867L675.791 190.022V188.654L659.093 176.809L655.74 170.328V131.909L659.093 125.428L675.791 113.583V112.215L659.093 100.37L655.74 93.8889V55.3687L659.093 48.8874L675.791 37.043V35.6743L659.093 23.8299L655.74 17.3486ZM708.765 289.016L708.411 288.332L690.324 275.503H689.347L671.261 288.332L670.907 289.016V319.737L671.261 320.421L689.347 333.251H690.324L708.411 320.421L708.765 319.737V289.016ZM670.907 166.2L671.261 166.884L689.347 179.713H690.324L708.411 166.884L708.765 166.2V136.037L708.411 135.353L690.324 122.523H689.347L671.261 135.353L670.907 136.037V166.2ZM708.411 58.8125L708.765 59.4968V89.7607L708.411 90.4451L690.324 103.274H689.347L671.261 90.4451L670.907 89.7607V59.4968L671.261 58.8125L689.347 45.9832H690.324L708.411 58.8125ZM708.411 211.792L708.765 212.476V242.74L708.411 243.424L690.324 256.254H689.347L671.261 243.424L670.907 242.74V212.476L671.261 211.792L689.347 198.963H690.324L708.411 211.792ZM670.907 472.716L671.261 473.401L689.347 486.23H690.324L708.411 473.401L708.765 472.716V442.554L708.411 441.869L690.324 429.04H689.347L671.261 441.869L670.907 442.554V472.716ZM708.411 365.329L708.765 366.013V396.277L708.411 396.962L690.324 409.791H689.347L671.261 396.962L670.907 396.277V366.013L671.261 365.329L689.347 352.5H690.324L708.411 365.329ZM708.411 518.308L708.765 518.993V549.257L708.411 549.941L690.324 562.77H689.347L671.261 549.941L670.907 549.257V518.993L671.261 518.308L689.347 505.479H690.324L708.411 518.308ZM734.015 17.3486V-2.31775H749.182V13.2205L749.536 13.9049L767.622 26.7341H768.6L786.686 13.9049L787.04 13.2205V-2.31775H802.207V17.3486L798.854 23.8299L782.156 35.6743V37.043L798.854 48.8874L802.207 55.3687V93.8889L798.854 100.37L782.156 112.215V113.583L798.854 125.428L802.207 131.909V170.328L798.854 176.809L782.156 188.654V190.022L798.854 201.867L802.207 208.348V246.868L798.854 253.349L782.156 265.194V266.563L798.854 278.407L802.207 284.888V323.865L798.854 330.346L782.156 342.191V343.56L798.854 355.404L802.207 361.885V400.405L798.854 406.887L782.156 418.731V420.1L798.854 431.944L802.207 438.425V476.845L798.854 483.326L782.156 495.17V496.539L798.854 508.383L802.207 514.865V553.385L798.854 559.866L782.156 571.71V573.079L798.854 584.924L802.207 591.405V610.972H787.04V595.533L786.686 594.849L768.6 582.019H767.622L749.536 594.849L749.182 595.533V610.972H734.015V591.405L737.368 584.924L754.066 573.079V571.71L737.368 559.866L734.015 553.385V514.865L737.368 508.383L754.066 496.539V495.17L737.368 483.326L734.015 476.845V438.425L737.368 431.944L754.066 420.1V418.731L737.368 406.887L734.015 400.405V361.885L737.368 355.404L754.066 343.56V342.191L737.368 330.346L734.015 323.865V284.888L737.368 278.407L754.066 266.563V265.194L737.368 253.349L734.015 246.868V208.348L737.368 201.867L754.066 190.022V188.654L737.368 176.809L734.015 170.328V131.909L737.368 125.428L754.066 113.583V112.215L737.368 100.37L734.015 93.8889V55.3687L737.368 48.8874L754.066 37.043V35.6743L737.368 23.8299L734.015 17.3486ZM787.04 289.016L786.686 288.332L768.6 275.503H767.622L749.536 288.332L749.182 289.016V319.737L749.536 320.421L767.622 333.251H768.6L786.686 320.421L787.04 319.737V289.016ZM749.182 166.2L749.536 166.884L767.622 179.713H768.6L786.686 166.884L787.04 166.2V136.037L786.686 135.353L768.6 122.523H767.622L749.536 135.353L749.182 136.037V166.2ZM786.686 58.8125L787.04 59.4968V89.7607L786.686 90.4451L768.6 103.274H767.622L749.536 90.4451L749.182 89.7607V59.4968L749.536 58.8125L767.622 45.9832H768.6L786.686 58.8125ZM786.686 211.792L787.04 212.476V242.74L786.686 243.424L768.6 256.254H767.622L749.536 243.424L749.182 242.74V212.476L749.536 211.792L767.622 198.963H768.6L786.686 211.792ZM749.182 472.716L749.536 473.401L767.622 486.23H768.6L786.686 473.401L787.04 472.716V442.554L786.686 441.869L768.6 429.04H767.622L749.536 441.869L749.182 442.554V472.716ZM786.686 365.329L787.04 366.013V396.277L786.686 396.962L768.6 409.791H767.622L749.536 396.962L749.182 396.277V366.013L749.536 365.329L767.622 352.5H768.6L786.686 365.329ZM786.686 518.308L787.04 518.993V549.257L786.686 549.941L768.6 562.77H767.622L749.536 549.941L749.182 549.257V518.993L749.536 518.308L767.622 505.479H768.6L786.686 518.308ZM812.289 17.3486V-2.31775H827.456V13.2205L827.81 13.9049L845.897 26.7341H846.874L864.96 13.9049L865.314 13.2205V-2.31775H880.481V17.3486L877.128 23.8299L860.43 35.6743V37.043L877.128 48.8874L880.481 55.3687V93.8889L877.128 100.37L860.43 112.215V113.583L877.128 125.428L880.481 131.909V170.328L877.128 176.809L860.43 188.654V190.022L877.128 201.867L880.481 208.348V246.868L877.128 253.349L860.43 265.194V266.563L877.128 278.407L880.481 284.888V323.865L877.128 330.346L860.43 342.191V343.56L877.128 355.404L880.481 361.885V400.405L877.128 406.887L860.43 418.731V420.1L877.128 431.944L880.481 438.425V476.845L877.128 483.326L860.43 495.17V496.539L877.128 508.383L880.481 514.865V553.385L877.128 559.866L860.43 571.71V573.079L877.128 584.924L880.481 591.405V610.972H865.314V595.533L864.96 594.849L846.874 582.019H845.897L827.81 594.849L827.456 595.533V610.972H812.289V591.405L815.643 584.924L832.341 573.079V571.71L815.643 559.866L812.289 553.385V514.865L815.643 508.383L832.341 496.539V495.17L815.643 483.326L812.289 476.845V438.425L815.643 431.944L832.341 420.1V418.731L815.643 406.887L812.289 400.405V361.885L815.643 355.404L832.341 343.56V342.191L815.643 330.346L812.289 323.865V284.888L815.643 278.407L832.341 266.563V265.194L815.643 253.349L812.289 246.868V208.348L815.643 201.867L832.341 190.022V188.654L815.643 176.809L812.289 170.328V131.909L815.643 125.428L832.341 113.583V112.215L815.643 100.37L812.289 93.8889V55.3687L815.643 48.8874L832.341 37.043V35.6743L815.643 23.8299L812.289 17.3486ZM865.314 289.016L864.96 288.332L846.874 275.503H845.897L827.81 288.332L827.456 289.016V319.737L827.81 320.421L845.897 333.251H846.874L864.96 320.421L865.314 319.737V289.016ZM827.456 166.2L827.81 166.884L845.897 179.713H846.874L864.96 166.884L865.314 166.2V136.037L864.96 135.353L846.874 122.523H845.897L827.81 135.353L827.456 136.037V166.2ZM864.96 58.8125L865.314 59.4968V89.7607L864.96 90.4451L846.874 103.274H845.897L827.81 90.4451L827.456 89.7607V59.4968L827.81 58.8125L845.897 45.9832H846.874L864.96 58.8125ZM864.96 211.792L865.314 212.476V242.74L864.96 243.424L846.874 256.254H845.897L827.81 243.424L827.456 242.74V212.476L827.81 211.792L845.897 198.963H846.874L864.96 211.792ZM827.456 472.716L827.81 473.401L845.897 486.23H846.874L864.96 473.401L865.314 472.716V442.554L864.96 441.869L846.874 429.04H845.897L827.81 441.869L827.456 442.554V472.716ZM864.96 365.329L865.314 366.013V396.277L864.96 396.962L846.874 409.791H845.897L827.81 396.962L827.456 396.277V366.013L827.81 365.329L845.897 352.5H846.874L864.96 365.329ZM864.96 518.308L865.314 518.993V549.257L864.96 549.941L846.874 562.77H845.897L827.81 549.941L827.456 549.257V518.993L827.81 518.308L845.897 505.479H846.874L864.96 518.308ZM890.564 17.3486V-2.31775H905.731V13.2205L906.085 13.9049L924.171 26.7341H925.148L943.235 13.9049L943.589 13.2205V-2.31775H958.756V17.3486L955.402 23.8299L938.704 35.6743V37.043L955.402 48.8874L958.756 55.3687V93.8889L955.402 100.37L938.704 112.215V113.583L955.402 125.428L958.756 131.909V170.328L955.402 176.809L938.704 188.654V190.022L955.402 201.867L958.756 208.348V246.868L955.402 253.349L938.704 265.194V266.563L955.402 278.407L958.756 284.888V323.865L955.402 330.346L938.704 342.191V343.56L955.402 355.404L958.756 361.885V400.405L955.402 406.887L938.704 418.731V420.1L955.402 431.944L958.756 438.425V476.845L955.402 483.326L938.704 495.17V496.539L955.402 508.383L958.756 514.865V553.385L955.402 559.866L938.704 571.71V573.079L955.402 584.924L958.756 591.405V610.972H943.589V595.533L943.235 594.849L925.148 582.019H924.171L906.085 594.849L905.731 595.533V610.972H890.564V591.405L893.917 584.924L910.615 573.079V571.71L893.917 559.866L890.564 553.385V514.865L893.917 508.383L910.615 496.539V495.17L893.917 483.326L890.564 476.845V438.425L893.917 431.944L910.615 420.1V418.731L893.917 406.887L890.564 400.405V361.885L893.917 355.404L910.615 343.56V342.191L893.917 330.346L890.564 323.865V284.888L893.917 278.407L910.615 266.563V265.194L893.917 253.349L890.564 246.868V208.348L893.917 201.867L910.615 190.022V188.654L893.917 176.809L890.564 170.328V131.909L893.917 125.428L910.615 113.583V112.215L893.917 100.37L890.564 93.8889V55.3687L893.917 48.8874L910.615 37.043V35.6743L893.917 23.8299L890.564 17.3486ZM943.589 289.016L943.235 288.332L925.148 275.503H924.171L906.085 288.332L905.731 289.016V319.737L906.085 320.421L924.171 333.251H925.148L943.235 320.421L943.589 319.737V289.016ZM905.731 166.2L906.085 166.884L924.171 179.713H925.148L943.235 166.884L943.589 166.2V136.037L943.235 135.353L925.148 122.523H924.171L906.085 135.353L905.731 136.037V166.2ZM943.235 58.8125L943.589 59.4968V89.7607L943.235 90.4451L925.148 103.274H924.171L906.085 90.4451L905.731 89.7607V59.4968L906.085 58.8125L924.171 45.9832H925.148L943.235 58.8125ZM943.235 211.792L943.589 212.476V242.74L943.235 243.424L925.148 256.254H924.171L906.085 243.424L905.731 242.74V212.476L906.085 211.792L924.171 198.963H925.148L943.235 211.792ZM905.731 472.716L906.085 473.401L924.171 486.23H925.148L943.235 473.401L943.589 472.716V442.554L943.235 441.869L925.148 429.04H924.171L906.085 441.869L905.731 442.554V472.716ZM943.235 365.329L943.589 366.013V396.277L943.235 396.962L925.148 409.791H924.171L906.085 396.962L905.731 396.277V366.013L906.085 365.329L924.171 352.5H925.148L943.235 365.329ZM943.235 518.308L943.589 518.993V549.257L943.235 549.941L925.148 562.77H924.171L906.085 549.941L905.731 549.257V518.993L906.085 518.308L924.171 505.479H925.148L943.235 518.308ZM968.839 17.3486V-2.31775H984.006V13.2205L984.36 13.9049L1002.45 26.7341H1003.42L1021.51 13.9049L1021.86 13.2205V-2.31775H1037.03V17.3486L1033.68 23.8299L1016.98 35.6743V37.043L1033.68 48.8874L1037.03 55.3687V93.8889L1033.68 100.37L1016.98 112.215V113.583L1033.68 125.428L1037.03 131.909V170.328L1033.68 176.809L1016.98 188.654V190.022L1033.68 201.867L1037.03 208.348V246.868L1033.68 253.349L1016.98 265.194V266.563L1033.68 278.407L1037.03 284.888V323.865L1033.68 330.346L1016.98 342.191V343.56L1033.68 355.404L1037.03 361.885V400.405L1033.68 406.887L1016.98 418.731V420.1L1033.68 431.944L1037.03 438.425V476.845L1033.68 483.326L1016.98 495.17V496.539L1033.68 508.383L1037.03 514.865V553.385L1033.68 559.866L1016.98 571.71V573.079L1033.68 584.924L1037.03 591.405V610.972H1021.86V595.533L1021.51 594.849L1003.42 582.019H1002.45L984.36 594.849L984.006 595.533V610.972H968.839V591.405L972.192 584.924L988.89 573.079V571.71L972.192 559.866L968.839 553.385V514.865L972.192 508.383L988.89 496.539V495.17L972.192 483.326L968.839 476.845V438.425L972.192 431.944L988.89 420.1V418.731L972.192 406.887L968.839 400.405V361.885L972.192 355.404L988.89 343.56V342.191L972.192 330.346L968.839 323.865V284.888L972.192 278.407L988.89 266.563V265.194L972.192 253.349L968.839 246.868V208.348L972.192 201.867L988.89 190.022V188.654L972.192 176.809L968.839 170.328V131.909L972.192 125.428L988.89 113.583V112.215L972.192 100.37L968.839 93.8889V55.3687L972.192 48.8874L988.89 37.043V35.6743L972.192 23.8299L968.839 17.3486ZM1021.86 289.016L1021.51 288.332L1003.42 275.503H1002.45L984.36 288.332L984.006 289.016V319.737L984.36 320.421L1002.45 333.251H1003.42L1021.51 320.421L1021.86 319.737V289.016ZM984.006 166.2L984.36 166.884L1002.45 179.713H1003.42L1021.51 166.884L1021.86 166.2V136.037L1021.51 135.353L1003.42 122.523H1002.45L984.36 135.353L984.006 136.037V166.2ZM1021.51 58.8125L1021.86 59.4968V89.7607L1021.51 90.4451L1003.42 103.274H1002.45L984.36 90.4451L984.006 89.7607V59.4968L984.36 58.8125L1002.45 45.9832H1003.42L1021.51 58.8125ZM1021.51 211.792L1021.86 212.476V242.74L1021.51 243.424L1003.42 256.254H1002.45L984.36 243.424L984.006 242.74V212.476L984.36 211.792L1002.45 198.963H1003.42L1021.51 211.792ZM984.006 472.716L984.36 473.401L1002.45 486.23H1003.42L1021.51 473.401L1021.86 472.716V442.554L1021.51 441.869L1003.42 429.04H1002.45L984.36 441.869L984.006 442.554V472.716ZM1021.51 365.329L1021.86 366.013V396.277L1021.51 396.962L1003.42 409.791H1002.45L984.36 396.962L984.006 396.277V366.013L984.36 365.329L1002.45 352.5H1003.42L1021.51 365.329ZM1021.51 518.308L1021.86 518.993V549.257L1021.51 549.941L1003.42 562.77H1002.45L984.36 549.941L984.006 549.257V518.993L984.36 518.308L1002.45 505.479H1003.42L1021.51 518.308ZM1047.11 17.3486V-2.31775H1062.28V13.2205L1062.63 13.9049L1080.72 26.7341H1081.7L1099.78 13.9049L1100.14 13.2205V-2.31775H1115.3V17.3486L1111.95 23.8299L1095.25 35.6743V37.043L1111.95 48.8874L1115.3 55.3687V93.8889L1111.95 100.37L1095.25 112.215V113.583L1111.95 125.428L1115.3 131.909V170.328L1111.95 176.809L1095.25 188.654V190.022L1111.95 201.867L1115.3 208.348V246.868L1111.95 253.349L1095.25 265.194V266.563L1111.95 278.407L1115.3 284.888V323.865L1111.95 330.346L1095.25 342.191V343.56L1111.95 355.404L1115.3 361.885V400.405L1111.95 406.887L1095.25 418.731V420.1L1111.95 431.944L1115.3 438.425V476.845L1111.95 483.326L1095.25 495.17V496.539L1111.95 508.383L1115.3 514.865V553.385L1111.95 559.866L1095.25 571.71V573.079L1111.95 584.924L1115.3 591.405V610.972H1100.14V595.533L1099.78 594.849L1081.7 582.019H1080.72L1062.63 594.849L1062.28 595.533V610.972H1047.11V591.405L1050.46 584.924L1067.16 573.079V571.71L1050.46 559.866L1047.11 553.385V514.865L1050.46 508.383L1067.16 496.539V495.17L1050.46 483.326L1047.11 476.845V438.425L1050.46 431.944L1067.16 420.1V418.731L1050.46 406.887L1047.11 400.405V361.885L1050.46 355.404L1067.16 343.56V342.191L1050.46 330.346L1047.11 323.865V284.888L1050.46 278.407L1067.16 266.563V265.194L1050.46 253.349L1047.11 246.868V208.348L1050.46 201.867L1067.16 190.022V188.654L1050.46 176.809L1047.11 170.328V131.909L1050.46 125.428L1067.16 113.583V112.215L1050.46 100.37L1047.11 93.8889V55.3687L1050.46 48.8874L1067.16 37.043V35.6743L1050.46 23.8299L1047.11 17.3486ZM1100.14 289.016L1099.78 288.332L1081.7 275.503H1080.72L1062.63 288.332L1062.28 289.016V319.737L1062.63 320.421L1080.72 333.251H1081.7L1099.78 320.421L1100.14 319.737V289.016ZM1062.28 166.2L1062.63 166.884L1080.72 179.713H1081.7L1099.78 166.884L1100.14 166.2V136.037L1099.78 135.353L1081.7 122.523H1080.72L1062.63 135.353L1062.28 136.037V166.2ZM1099.78 58.8125L1100.14 59.4968V89.7607L1099.78 90.4451L1081.7 103.274H1080.72L1062.63 90.4451L1062.28 89.7607V59.4968L1062.63 58.8125L1080.72 45.9832H1081.7L1099.78 58.8125ZM1099.78 211.792L1100.14 212.476V242.74L1099.78 243.424L1081.7 256.254H1080.72L1062.63 243.424L1062.28 242.74V212.476L1062.63 211.792L1080.72 198.963H1081.7L1099.78 211.792ZM1062.28 472.716L1062.63 473.401L1080.72 486.23H1081.7L1099.78 473.401L1100.14 472.716V442.554L1099.78 441.869L1081.7 429.04H1080.72L1062.63 441.869L1062.28 442.554V472.716ZM1099.78 365.329L1100.14 366.013V396.277L1099.78 396.962L1081.7 409.791H1080.72L1062.63 396.962L1062.28 396.277V366.013L1062.63 365.329L1080.72 352.5H1081.7L1099.78 365.329ZM1099.78 518.308L1100.14 518.993V549.257L1099.78 549.941L1081.7 562.77H1080.72L1062.63 549.941L1062.28 549.257V518.993L1062.63 518.308L1080.72 505.479H1081.7L1099.78 518.308ZM1360.21 17.3486V-2.31775H1375.38V13.2205L1375.73 13.9049L1393.82 26.7341H1394.79L1412.88 13.9049L1413.23 13.2205V-2.31775H1428.4V17.3486L1425.05 23.8299L1408.35 35.6743V37.043L1425.05 48.8874L1428.4 55.3687V93.8889L1425.05 100.37L1408.35 112.215V113.583L1425.05 125.428L1428.4 131.909V170.328L1425.05 176.809L1408.35 188.654V190.022L1425.05 201.867L1428.4 208.348V246.868L1425.05 253.349L1408.35 265.194V266.563L1425.05 278.407L1428.4 284.888V323.865L1425.05 330.346L1408.35 342.191V343.56L1425.05 355.404L1428.4 361.885V400.405L1425.05 406.887L1408.35 418.731V420.1L1425.05 431.944L1428.4 438.425V476.845L1425.05 483.326L1408.35 495.17V496.539L1425.05 508.383L1428.4 514.865V553.385L1425.05 559.866L1408.35 571.71V573.079L1425.05 584.924L1428.4 591.405V610.972H1413.23V595.533L1412.88 594.849L1394.79 582.019H1393.82L1375.73 594.849L1375.38 595.533V610.972H1360.21V591.405L1363.56 584.924L1380.26 573.079V571.71L1363.56 559.866L1360.21 553.385V514.865L1363.56 508.383L1380.26 496.539V495.17L1363.56 483.326L1360.21 476.845V438.425L1363.56 431.944L1380.26 420.1V418.731L1363.56 406.887L1360.21 400.405V361.885L1363.56 355.404L1380.26 343.56V342.191L1363.56 330.346L1360.21 323.865V284.888L1363.56 278.407L1380.26 266.563V265.194L1363.56 253.349L1360.21 246.868V208.348L1363.56 201.867L1380.26 190.022V188.654L1363.56 176.809L1360.21 170.328V131.909L1363.56 125.428L1380.26 113.583V112.215L1363.56 100.37L1360.21 93.8889V55.3687L1363.56 48.8874L1380.26 37.043V35.6743L1363.56 23.8299L1360.21 17.3486ZM1413.23 289.016L1412.88 288.332L1394.79 275.503H1393.82L1375.73 288.332L1375.38 289.016V319.737L1375.73 320.421L1393.82 333.251H1394.79L1412.88 320.421L1413.23 319.737V289.016ZM1375.38 166.2L1375.73 166.884L1393.82 179.713H1394.79L1412.88 166.884L1413.23 166.2V136.037L1412.88 135.353L1394.79 122.523H1393.82L1375.73 135.353L1375.38 136.037V166.2ZM1412.88 58.8125L1413.23 59.4968V89.7607L1412.88 90.4451L1394.79 103.274H1393.82L1375.73 90.4451L1375.38 89.7607V59.4968L1375.73 58.8125L1393.82 45.9832H1394.79L1412.88 58.8125ZM1412.88 211.792L1413.23 212.476V242.74L1412.88 243.424L1394.79 256.254H1393.82L1375.73 243.424L1375.38 242.74V212.476L1375.73 211.792L1393.82 198.963H1394.79L1412.88 211.792ZM1375.38 472.716L1375.73 473.401L1393.82 486.23H1394.79L1412.88 473.401L1413.23 472.716V442.554L1412.88 441.869L1394.79 429.04H1393.82L1375.73 441.869L1375.38 442.554V472.716ZM1412.88 365.329L1413.23 366.013V396.277L1412.88 396.962L1394.79 409.791H1393.82L1375.73 396.962L1375.38 396.277V366.013L1375.73 365.329L1393.82 352.5H1394.79L1412.88 365.329ZM1412.88 518.308L1413.23 518.993V549.257L1412.88 549.941L1394.79 562.77H1393.82L1375.73 549.941L1375.38 549.257V518.993L1375.73 518.308L1393.82 505.479H1394.79L1412.88 518.308ZM1438.48 17.3486V-2.31775H1453.65V13.2205L1454 13.9049L1472.09 26.7341H1473.07L1491.15 13.9049L1491.51 13.2205V-2.31775H1506.68V17.3486L1503.32 23.8299L1486.62 35.6743V37.043L1503.32 48.8874L1506.68 55.3687V93.8889L1503.32 100.37L1486.62 112.215V113.583L1503.32 125.428L1506.68 131.909V170.328L1503.32 176.809L1486.62 188.654V190.022L1503.32 201.867L1506.68 208.348V246.868L1503.32 253.349L1486.62 265.194V266.563L1503.32 278.407L1506.68 284.888V323.865L1503.32 330.346L1486.62 342.191V343.56L1503.32 355.404L1506.68 361.885V400.405L1503.32 406.887L1486.62 418.731V420.1L1503.32 431.944L1506.68 438.425V476.845L1503.32 483.326L1486.62 495.17V496.539L1503.32 508.383L1506.68 514.865V553.385L1503.32 559.866L1486.62 571.71V573.079L1503.32 584.924L1506.68 591.405V610.972H1491.51V595.533L1491.15 594.849L1473.07 582.019H1472.09L1454 594.849L1453.65 595.533V610.972H1438.48V591.405L1441.84 584.924L1458.53 573.079V571.71L1441.84 559.866L1438.48 553.385V514.865L1441.84 508.383L1458.53 496.539V495.17L1441.84 483.326L1438.48 476.845V438.425L1441.84 431.944L1458.53 420.1V418.731L1441.84 406.887L1438.48 400.405V361.885L1441.84 355.404L1458.53 343.56V342.191L1441.84 330.346L1438.48 323.865V284.888L1441.84 278.407L1458.53 266.563V265.194L1441.84 253.349L1438.48 246.868V208.348L1441.84 201.867L1458.53 190.022V188.654L1441.84 176.809L1438.48 170.328V131.909L1441.84 125.428L1458.53 113.583V112.215L1441.84 100.37L1438.48 93.8889V55.3687L1441.84 48.8874L1458.53 37.043V35.6743L1441.84 23.8299L1438.48 17.3486ZM1491.51 289.016L1491.15 288.332L1473.07 275.503H1472.09L1454 288.332L1453.65 289.016V319.737L1454 320.421L1472.09 333.251H1473.07L1491.15 320.421L1491.51 319.737V289.016ZM1453.65 166.2L1454 166.884L1472.09 179.713H1473.07L1491.15 166.884L1491.51 166.2V136.037L1491.15 135.353L1473.07 122.523H1472.09L1454 135.353L1453.65 136.037V166.2ZM1491.15 58.8125L1491.51 59.4968V89.7607L1491.15 90.4451L1473.07 103.274H1472.09L1454 90.4451L1453.65 89.7607V59.4968L1454 58.8125L1472.09 45.9832H1473.07L1491.15 58.8125ZM1491.15 211.792L1491.51 212.476V242.74L1491.15 243.424L1473.07 256.254H1472.09L1454 243.424L1453.65 242.74V212.476L1454 211.792L1472.09 198.963H1473.07L1491.15 211.792ZM1453.65 472.716L1454 473.401L1472.09 486.23H1473.07L1491.15 473.401L1491.51 472.716V442.554L1491.15 441.869L1473.07 429.04H1472.09L1454 441.869L1453.65 442.554V472.716ZM1491.15 365.329L1491.51 366.013V396.277L1491.15 396.962L1473.07 409.791H1472.09L1454 396.962L1453.65 396.277V366.013L1454 365.329L1472.09 352.5H1473.07L1491.15 365.329ZM1491.15 518.308L1491.51 518.993V549.257L1491.15 549.941L1473.07 562.77H1472.09L1454 549.941L1453.65 549.257V518.993L1454 518.308L1472.09 505.479H1473.07L1491.15 518.308ZM1516.76 17.3486V-2.31775H1531.92V13.2205L1532.28 13.9049L1550.36 26.7341H1551.34L1569.43 13.9049L1569.78 13.2205V-2.31775H1584.95V17.3486L1581.6 23.8299L1564.9 35.6743V37.043L1581.6 48.8874L1584.95 55.3687V93.8889L1581.6 100.37L1564.9 112.215V113.583L1581.6 125.428L1584.95 131.909V170.328L1581.6 176.809L1564.9 188.654V190.022L1581.6 201.867L1584.95 208.348V246.868L1581.6 253.349L1564.9 265.194V266.563L1581.6 278.407L1584.95 284.888V323.865L1581.6 330.346L1564.9 342.191V343.56L1581.6 355.404L1584.95 361.885V400.405L1581.6 406.887L1564.9 418.731V420.1L1581.6 431.944L1584.95 438.425V476.845L1581.6 483.326L1564.9 495.17V496.539L1581.6 508.383L1584.95 514.865V553.385L1581.6 559.866L1564.9 571.71V573.079L1581.6 584.924L1584.95 591.405V610.972H1569.78V595.533L1569.43 594.849L1551.34 582.019H1550.36L1532.28 594.849L1531.92 595.533V610.972H1516.76V591.405L1520.11 584.924L1536.81 573.079V571.71L1520.11 559.866L1516.76 553.385V514.865L1520.11 508.383L1536.81 496.539V495.17L1520.11 483.326L1516.76 476.845V438.425L1520.11 431.944L1536.81 420.1V418.731L1520.11 406.887L1516.76 400.405V361.885L1520.11 355.404L1536.81 343.56V342.191L1520.11 330.346L1516.76 323.865V284.888L1520.11 278.407L1536.81 266.563V265.194L1520.11 253.349L1516.76 246.868V208.348L1520.11 201.867L1536.81 190.022V188.654L1520.11 176.809L1516.76 170.328V131.909L1520.11 125.428L1536.81 113.583V112.215L1520.11 100.37L1516.76 93.8889V55.3687L1520.11 48.8874L1536.81 37.043V35.6743L1520.11 23.8299L1516.76 17.3486ZM1569.78 289.016L1569.43 288.332L1551.34 275.503H1550.36L1532.28 288.332L1531.92 289.016V319.737L1532.28 320.421L1550.36 333.251H1551.34L1569.43 320.421L1569.78 319.737V289.016ZM1531.92 166.2L1532.28 166.884L1550.36 179.713H1551.34L1569.43 166.884L1569.78 166.2V136.037L1569.43 135.353L1551.34 122.523H1550.36L1532.28 135.353L1531.92 136.037V166.2ZM1569.43 58.8125L1569.78 59.4968V89.7607L1569.43 90.4451L1551.34 103.274H1550.36L1532.28 90.4451L1531.92 89.7607V59.4968L1532.28 58.8125L1550.36 45.9832H1551.34L1569.43 58.8125ZM1569.43 211.792L1569.78 212.476V242.74L1569.43 243.424L1551.34 256.254H1550.36L1532.28 243.424L1531.92 242.74V212.476L1532.28 211.792L1550.36 198.963H1551.34L1569.43 211.792ZM1531.92 472.716L1532.28 473.401L1550.36 486.23H1551.34L1569.43 473.401L1569.78 472.716V442.554L1569.43 441.869L1551.34 429.04H1550.36L1532.28 441.869L1531.92 442.554V472.716ZM1569.43 365.329L1569.78 366.013V396.277L1569.43 396.962L1551.34 409.791H1550.36L1532.28 396.962L1531.92 396.277V366.013L1532.28 365.329L1550.36 352.5H1551.34L1569.43 365.329ZM1569.43 518.308L1569.78 518.993V549.257L1569.43 549.941L1551.34 562.77H1550.36L1532.28 549.941L1531.92 549.257V518.993L1532.28 518.308L1550.36 505.479H1551.34L1569.43 518.308ZM1124.89 -2.31744V17.3489L1128.24 23.8302L1144.94 35.6746V37.0433L1128.24 48.8877L1124.89 55.369V93.8892L1128.24 100.37L1144.46 111.874H1173.51L1189.73 100.37L1193.08 93.8892V55.369L1189.73 48.8877L1173.03 37.0433V35.6746L1189.73 23.8302L1193.08 17.3489V-2.31744H1177.91V13.2208L1177.56 13.9052L1159.47 26.7344H1158.5L1140.41 13.9052L1140.06 13.2208V-2.31744H1124.89ZM1143.77 344.388L1128.24 355.404L1124.89 361.886V400.406L1128.24 406.887L1144.94 418.731V420.1L1128.24 431.945L1124.89 438.426V476.845L1128.24 483.326L1144.94 495.171V496.539L1128.24 508.384L1124.89 514.865V553.385L1128.24 559.866L1144.94 571.711V573.079L1128.24 584.924L1124.89 591.405V610.973H1140.06V595.533L1140.41 594.849L1158.5 582.02H1159.47L1177.56 594.849L1177.91 595.533V610.973H1193.08V591.405L1189.73 584.924L1173.03 573.079V571.711L1189.73 559.866L1193.08 553.385V514.865L1189.73 508.384L1173.03 496.539V495.171L1189.73 483.326L1193.08 476.845V438.426L1189.73 431.945L1173.03 420.1V418.731L1189.73 406.887L1193.08 400.406V361.886L1189.73 355.404L1174.2 344.388H1143.77ZM1285.12 355.404L1300.65 344.388H1331.08L1346.61 355.404L1349.96 361.886V400.406L1346.61 406.887L1329.91 418.732V420.1L1346.61 431.945L1349.96 438.426V476.845L1346.61 483.326L1329.91 495.171V496.539L1346.61 508.384L1349.96 514.865V553.385L1346.61 559.866L1329.91 571.711V573.08L1346.61 584.924L1349.96 591.405V610.973H1334.79V595.533L1334.44 594.849L1316.35 582.02H1315.38L1297.29 594.849L1296.94 595.533V610.973H1281.77V591.405L1285.12 584.924L1301.82 573.08V571.711L1285.12 559.866L1281.77 553.385V514.865L1285.12 508.384L1301.82 496.539V495.171L1285.12 483.326L1281.77 476.845V438.426L1285.12 431.945L1301.82 420.1V418.732L1285.12 406.887L1281.77 400.406V361.886L1285.12 355.404ZM1301.34 111.874H1330.39L1346.61 100.371L1349.96 93.8893V55.3691L1346.61 48.8879L1329.91 37.0434V35.6747L1346.61 23.8303L1349.96 17.349V-2.31732H1334.79V13.2209L1334.44 13.9053L1316.35 26.7345H1315.38L1297.29 13.9053L1296.94 13.2209V-2.31732H1281.77V17.3491L1285.12 23.8303L1301.82 35.6747V37.0434L1285.12 48.8879L1281.77 55.3691V93.8893L1285.12 100.371L1301.34 111.874ZM1222.9 111.874H1251.95L1268.17 100.37L1271.52 93.8892V55.369L1268.17 48.8877L1251.47 37.0433V35.6746L1268.17 23.8302L1271.52 17.3489V-2.31744H1256.35V13.2208L1256 13.9052L1237.91 26.7344H1236.94L1218.85 13.9052L1218.5 13.2208V-2.31744H1203.33V17.3489L1206.68 23.8302L1223.38 35.6746V37.0433L1206.68 48.8877L1203.33 55.369V93.8892L1206.68 100.37L1222.9 111.874ZM1177.91 59.4971L1177.56 58.8128L1159.47 45.9835H1158.5L1140.41 58.8128L1140.06 59.4971V89.761L1140.41 90.4454L1158.5 103.275H1159.47L1177.56 90.4454L1177.91 89.761V59.4971ZM1140.41 473.401L1140.06 472.717V442.554L1140.41 441.87L1158.5 429.04H1159.47L1177.56 441.87L1177.91 442.554V472.717L1177.56 473.401L1159.47 486.23H1158.5L1140.41 473.401ZM1177.91 366.014L1177.56 365.329L1159.47 352.5H1158.5L1140.41 365.329L1140.06 366.014V396.278L1140.41 396.962L1158.5 409.791H1159.47L1177.56 396.962L1177.91 396.278V366.014ZM1177.91 518.993L1177.56 518.309L1159.47 505.479H1158.5L1140.41 518.309L1140.06 518.993V549.257L1140.41 549.941L1158.5 562.771H1159.47L1177.56 549.941L1177.91 549.257V518.993ZM1256 58.8128L1256.35 59.4971V89.761L1256 90.4454L1237.91 103.275H1236.94L1218.85 90.4454L1218.5 89.761V59.4971L1218.85 58.8128L1236.94 45.9835H1237.91L1256 58.8128ZM1218.5 472.717L1218.85 473.401L1236.94 486.23H1237.91L1256 473.401L1256.35 472.717V442.554L1256 441.87L1237.91 429.04H1236.94L1218.85 441.87L1218.5 442.554V472.717ZM1256 365.329L1256.35 366.014V396.278L1256 396.962L1237.91 409.791H1236.94L1218.85 396.962L1218.5 396.278V366.014L1218.85 365.329L1236.94 352.5H1237.91L1256 365.329ZM1256 518.309L1256.35 518.993V549.257L1256 549.941L1237.91 562.771H1236.94L1218.85 549.941L1218.5 549.257V518.993L1218.85 518.309L1236.94 505.479H1237.91L1256 518.309ZM1334.44 58.8129L1334.79 59.4972V89.7612L1334.44 90.4455L1316.35 103.275H1315.38L1297.29 90.4455L1296.94 89.7612V59.4972L1297.29 58.8129L1315.38 45.9836H1316.35L1334.44 58.8129ZM1296.94 472.717L1297.29 473.401L1315.38 486.23H1316.35L1334.44 473.401L1334.79 472.717V442.554L1334.44 441.87L1316.35 429.04H1315.38L1297.29 441.87L1296.94 442.554V472.717ZM1334.44 365.329L1334.79 366.014V396.278L1334.44 396.962L1316.35 409.791H1315.38L1297.29 396.962L1296.94 396.278V366.014L1297.29 365.329L1315.38 352.5H1316.35L1334.44 365.329ZM1334.44 518.309L1334.79 518.993V549.257L1334.44 549.941L1316.35 562.771H1315.38L1297.29 549.941L1296.94 549.257V518.993L1297.29 518.309L1315.38 505.48H1316.35L1334.44 518.309Z"
        stroke="#FFFFFF" stroke-width="0.77" stroke-linejoin="bevel" />
</svg>