<svg width="106" height="1165" viewBox="0 0 106 1165" fill="none" xmlns="http://www.w3.org/2000/svg">
    <g style="mix-blend-mode:multiply">
        <path
            d="M56 0V13.5599L56.0545 13.7834L58.4536 18.4127L58.6041 18.5855L70.3454 26.9004V27.3757L58.6041 35.6905L58.4536 35.8634L56.0545 40.4927L56 40.7161V68.2295L56.0545 68.453L58.4536 73.0823L58.6041 73.2551L70.3454 81.57V82.0452L58.6041 90.3601L58.4536 90.533L56.0545 95.1623L56 95.3857V122.827L56.0545 123.05L58.4536 127.68L58.6041 127.853L70.3454 136.167V136.643L58.6041 144.957L58.4536 145.13L56.0545 149.76L56 149.983V177.497L56.0545 177.72L58.4536 182.349L58.6041 182.522L70.3454 190.837V191.312L58.6041 199.627L58.4536 199.8L56.0545 204.429L56 204.653V232.492L56.0545 232.716L58.4536 237.345L58.6041 237.518L70.3454 245.833V246.308L58.6041 254.623L58.4536 254.796L56.0545 259.425L56 259.649V287.162L56.0545 287.385L58.4536 292.015L58.6041 292.188L70.3454 300.502V300.978L58.6041 309.293L58.4536 309.465L56.0545 314.095L56 314.318V341.759L56.0545 341.983L58.4536 346.612L58.6041 346.785L70.3454 355.1V355.575L58.6041 363.89L58.4536 364.063L56.0545 368.692L56 368.915V396.429L56.0545 396.652L56.7552 398.005H57.8492L56.9713 396.311V369.034L59.2617 364.614L71.1117 356.223L71.3167 355.826V354.849L71.1117 354.452L59.2617 346.06L56.9713 341.641V314.436L59.2617 310.017L71.1117 301.625L71.3167 301.229V300.251L71.1117 299.855L59.2617 291.463L56.9713 287.044V259.767L59.2617 255.347L71.1117 246.956L71.3167 246.559V245.582L71.1117 245.185L59.2616 236.793L56.9713 232.374V204.771L59.2616 200.352L71.1117 191.96L71.3167 191.563V190.586L71.1117 190.189L59.2616 181.798L56.9713 177.378V150.101L59.2616 145.682L71.1117 137.29L71.3167 136.894V135.916L71.1117 135.52L59.2616 127.128L56.9713 122.709V95.5041L59.2617 91.0846L71.1117 82.6927L71.3167 82.2964V81.3188L71.1117 80.9225L59.2617 72.5307L56.9713 68.1112V40.8345L59.2617 36.415L71.1117 28.0232L71.3167 27.6268V26.6492L71.1117 26.2529L59.2617 17.861L56.9713 13.4416V0H56Z"
            fill="black" />
        <path
            d="M66.8511 0V10.6114L66.9055 10.8348L67.1589 11.3236L67.3094 11.4965L80.249 20.6599L80.5297 20.7492H81.2287L81.5094 20.6599L94.4491 11.4965L94.5996 11.3236L94.8529 10.8348L94.9074 10.6114V0H93.9361V10.493L93.7915 10.772L81.0742 19.7779H80.6842L67.9669 10.772L67.8223 10.493V0H66.8511Z"
            fill="black" />
        <path
            d="M105.758 0H104.787V13.4416L102.497 17.8611L90.6467 26.2529L90.4417 26.6492V27.6268L90.6467 28.0232L102.497 36.415L104.787 40.8345V68.1112L102.497 72.5307L90.6467 80.9225L90.4417 81.3188V82.2964L90.6467 82.6927L102.497 91.0846L104.787 95.5041V122.709L102.497 127.128L90.6467 135.52L90.4417 135.916V136.894L90.6467 137.29L102.497 145.682L104.787 150.101V177.378L102.497 181.798L90.6467 190.189L90.4417 190.586V191.563L90.6467 191.96L102.497 200.352L104.787 204.771V232.374L102.497 236.793L90.6467 245.185L90.4417 245.582V246.559L90.6467 246.956L102.497 255.347L104.787 259.767V287.044L102.497 291.463L90.6467 299.855L90.4417 300.251V301.229L90.6467 301.625L102.497 310.017L104.787 314.436V341.641L102.497 346.06L90.6467 354.452L90.4417 354.849V355.826L90.6467 356.223L102.497 364.614L104.787 369.034V396.311L103.909 398.005H105.003L105.704 396.652L105.758 396.429V368.915L105.704 368.692L103.305 364.063L103.154 363.89L91.4129 355.575V355.1L103.154 346.785L103.305 346.612L105.704 341.983L105.758 341.759V314.318L105.704 314.095L103.305 309.465L103.154 309.293L91.4129 300.978V300.502L103.154 292.188L103.305 292.015L105.704 287.385L105.758 287.162V259.649L105.704 259.425L103.305 254.796L103.154 254.623L91.4129 246.308V245.833L103.154 237.518L103.305 237.345L105.704 232.716L105.758 232.492V204.653L105.704 204.429L103.305 199.8L103.154 199.627L91.4129 191.312V190.837L103.154 182.522L103.305 182.349L105.704 177.72L105.758 177.497V149.983L105.704 149.76L103.305 145.13L103.154 144.957L91.4129 136.643V136.167L103.154 127.853L103.305 127.68L105.704 123.05L105.758 122.827V95.3857L105.704 95.1623L103.305 90.533L103.154 90.3601L91.4129 82.0453V81.57L103.154 73.2551L103.305 73.0823L105.704 68.453L105.758 68.2295V40.7161L105.704 40.4927L103.305 35.8634L103.154 35.6905L91.4129 27.3757V26.9004L103.154 18.5855L103.305 18.4127L105.704 13.7834L105.758 13.5599V0Z"
            fill="black" />
        <path
            d="M89.3104 398.005L94.4491 394.366L94.5995 394.193L94.8529 393.704L94.9074 393.48V371.864L94.8529 371.641L94.5996 371.152L94.4491 370.979L81.5094 361.816L81.2287 361.726H80.5297L80.249 361.816L67.3094 370.979L67.1589 371.152L66.9055 371.641L66.8511 371.864V393.48L66.9055 393.704L67.1589 394.193L67.3094 394.366L72.448 398.005H74.1287L67.9669 393.641L67.8223 393.362V371.982L67.9669 371.703L80.6842 362.698H81.0742L93.7915 371.703L93.9361 371.982V393.362L93.7915 393.641L87.6297 398.005H89.3104Z"
            fill="black" />
        <path fill-rule="evenodd" clip-rule="evenodd"
            d="M80.249 33.6161L80.5297 33.5268H81.2287L81.5094 33.6161L94.4491 42.7795L94.5996 42.9524L94.8529 43.4412L94.9074 43.6647V65.281L94.8529 65.5044L94.5996 65.9932L94.4491 66.1661L81.5094 75.3295L81.2287 75.4188H80.5297L80.249 75.3295L67.3094 66.1661L67.1589 65.9932L66.9055 65.5044L66.8511 65.281V43.6647L66.9055 43.4412L67.1589 42.9524L67.3094 42.7795L80.249 33.6161ZM80.6842 34.4981L67.9669 43.504L67.8223 43.783V65.1626L67.9669 65.4416L80.6842 74.4476H81.0742L93.7915 65.4416L93.9361 65.1626V43.7831L93.7915 43.504L81.0742 34.4981H80.6842Z"
            fill="black" />
        <path fill-rule="evenodd" clip-rule="evenodd"
            d="M80.249 88.2857L80.5297 88.1964H81.2287L81.5094 88.2857L94.4491 97.4491L94.5996 97.622L94.8529 98.1108L94.9074 98.3343V119.878L94.8529 120.102L94.5996 120.591L94.4491 120.764L81.5094 129.927L81.2287 130.016H80.5297L80.249 129.927L67.3094 120.764L67.1589 120.591L66.9055 120.102L66.8511 119.878V98.3343L66.9055 98.1108L67.1589 97.622L67.3094 97.4491L80.249 88.2857ZM80.6842 89.1677L67.9669 98.1736L67.8223 98.4527V119.76L67.9669 120.039L80.6842 129.045H81.0742L93.7915 120.039L93.9361 119.76V98.4527L93.7915 98.1736L81.0742 89.1677H80.6842Z"
            fill="black" />
        <path fill-rule="evenodd" clip-rule="evenodd"
            d="M80.249 142.883L80.5297 142.794H81.2287L81.5094 142.883L94.4491 152.047L94.5995 152.219L94.8529 152.708L94.9074 152.932V174.548L94.8529 174.771L94.5996 175.26L94.4491 175.433L81.5094 184.597L81.2287 184.686H80.5297L80.249 184.597L67.3094 175.433L67.1589 175.26L66.9055 174.771L66.8511 174.548V152.932L66.9055 152.708L67.1589 152.219L67.3094 152.047L80.249 142.883ZM67.9669 152.771L80.6843 143.765H81.0742L93.7915 152.771L93.9361 153.05V174.43L93.7915 174.709L81.0742 183.715H80.6842L67.9669 174.709L67.8223 174.43V153.05L67.9669 152.771Z"
            fill="black" />
        <path fill-rule="evenodd" clip-rule="evenodd"
            d="M80.249 197.553L80.5297 197.463H81.2287L81.5094 197.553L94.4491 206.716L94.5996 206.889L94.8529 207.378L94.9074 207.601V229.544L94.8529 229.767L94.5996 230.256L94.4491 230.429L81.5094 239.592L81.2287 239.682H80.5297L80.249 239.592L67.3094 230.429L67.1589 230.256L66.9055 229.767L66.8511 229.544V207.601L66.9055 207.378L67.1589 206.889L67.3094 206.716L80.249 197.553ZM80.6842 198.435L67.9669 207.441L67.8223 207.72V229.425L67.9669 229.704L80.6842 238.71H81.0742L93.7915 229.704L93.9361 229.425V207.72L93.7915 207.441L81.0742 198.435H80.6842Z"
            fill="black" />
        <path fill-rule="evenodd" clip-rule="evenodd"
            d="M80.249 252.549L80.5297 252.459H81.2287L81.5094 252.549L94.4491 261.712L94.5995 261.885L94.8529 262.374L94.9074 262.597V284.213L94.8529 284.437L94.5996 284.926L94.4491 285.099L81.5094 294.262L81.2287 294.351H80.5297L80.249 294.262L67.3094 285.099L67.1589 284.926L66.9055 284.437L66.8511 284.213V262.597L66.9055 262.374L67.1589 261.885L67.3094 261.712L80.249 252.549ZM67.9669 262.436L80.6843 253.43H81.0742L93.7915 262.436L93.9361 262.715V284.095L93.7915 284.374L81.0742 293.38H80.6842L67.9669 284.374L67.8223 284.095V262.715L67.9669 262.436Z"
            fill="black" />
        <path fill-rule="evenodd" clip-rule="evenodd"
            d="M80.249 307.218L80.5297 307.129H81.2287L81.5094 307.218L94.4491 316.382L94.5995 316.554L94.8529 317.043L94.9074 317.267V338.811L94.8529 339.034L94.5996 339.523L94.4491 339.696L81.5094 348.859L81.2287 348.949H80.5297L80.249 348.859L67.3094 339.696L67.1589 339.523L66.9055 339.034L66.8511 338.811V317.267L66.9055 317.043L67.1589 316.554L67.3094 316.382L80.249 307.218ZM80.6843 308.1L67.9669 317.106L67.8223 317.385V338.692L67.9669 338.971L80.6843 347.977H81.0742L93.7915 338.971L93.9361 338.692V317.385L93.7915 317.106L81.0742 308.1H80.6843Z"
            fill="black" />
    </g>
    <g style="mix-blend-mode:multiply">
        <path
            d="M56 383V396.56L56.0545 396.783L58.4536 401.413L58.6041 401.586L70.3454 409.9V410.376L58.6041 418.69L58.4536 418.863L56.0545 423.493L56 423.716V451.23L56.0545 451.453L58.4536 456.082L58.6041 456.255L70.3454 464.57V465.045L58.6041 473.36L58.4536 473.533L56.0545 478.162L56 478.386V505.827L56.0545 506.05L58.4536 510.68L58.6041 510.853L70.3454 519.167V519.643L58.6041 527.957L58.4536 528.13L56.0545 532.76L56 532.983V560.497L56.0545 560.72L58.4536 565.349L58.6041 565.522L70.3454 573.837V574.312L58.6041 582.627L58.4536 582.8L56.0545 587.429L56 587.653V615.492L56.0545 615.716L58.4536 620.345L58.6041 620.518L70.3454 628.833V629.308L58.6041 637.623L58.4536 637.796L56.0545 642.425L56 642.649V670.162L56.0545 670.385L58.4536 675.015L58.6041 675.188L70.3454 683.502V683.978L58.6041 692.293L58.4536 692.465L56.0545 697.095L56 697.318V724.759L56.0545 724.983L58.4536 729.612L58.6041 729.785L70.3454 738.1V738.575L58.6041 746.89L58.4536 747.063L56.0545 751.692L56 751.915V779.429L56.0545 779.652L56.7552 781.005H57.8492L56.9713 779.311V752.034L59.2617 747.614L71.1117 739.223L71.3167 738.826V737.849L71.1117 737.452L59.2617 729.06L56.9713 724.641V697.436L59.2617 693.017L71.1117 684.625L71.3167 684.229V683.251L71.1117 682.855L59.2617 674.463L56.9713 670.044V642.767L59.2617 638.347L71.1117 629.956L71.3167 629.559V628.582L71.1117 628.185L59.2616 619.793L56.9713 615.374V587.771L59.2616 583.352L71.1117 574.96L71.3167 574.563V573.586L71.1117 573.189L59.2616 564.798L56.9713 560.378V533.101L59.2616 528.682L71.1117 520.29L71.3167 519.894V518.916L71.1117 518.52L59.2616 510.128L56.9713 505.709V478.504L59.2617 474.085L71.1117 465.693L71.3167 465.296V464.319L71.1117 463.922L59.2617 455.531L56.9713 451.111V423.834L59.2617 419.415L71.1117 411.023L71.3167 410.627V409.649L71.1117 409.253L59.2617 400.861L56.9713 396.442V383H56Z"
            fill="black" />
        <path
            d="M66.8511 383V393.611L66.9055 393.835L67.1589 394.324L67.3094 394.496L80.249 403.66L80.5297 403.749H81.2287L81.5094 403.66L94.4491 394.496L94.5996 394.324L94.8529 393.835L94.9074 393.611V383H93.9361V393.493L93.7915 393.772L81.0742 402.778H80.6842L67.9669 393.772L67.8223 393.493V383H66.8511Z"
            fill="black" />
        <path
            d="M105.758 383H104.787V396.442L102.497 400.861L90.6467 409.253L90.4417 409.649V410.627L90.6467 411.023L102.497 419.415L104.787 423.834V451.111L102.497 455.531L90.6467 463.922L90.4417 464.319V465.296L90.6467 465.693L102.497 474.085L104.787 478.504V505.709L102.497 510.128L90.6467 518.52L90.4417 518.916V519.894L90.6467 520.29L102.497 528.682L104.787 533.101V560.378L102.497 564.798L90.6467 573.189L90.4417 573.586V574.563L90.6467 574.96L102.497 583.352L104.787 587.771V615.374L102.497 619.793L90.6467 628.185L90.4417 628.582V629.559L90.6467 629.956L102.497 638.347L104.787 642.767V670.044L102.497 674.463L90.6467 682.855L90.4417 683.251V684.229L90.6467 684.625L102.497 693.017L104.787 697.436V724.641L102.497 729.06L90.6467 737.452L90.4417 737.849V738.826L90.6467 739.223L102.497 747.614L104.787 752.034V779.311L103.909 781.005H105.003L105.704 779.652L105.758 779.429V751.915L105.704 751.692L103.305 747.063L103.154 746.89L91.4129 738.575V738.1L103.154 729.785L103.305 729.612L105.704 724.983L105.758 724.759V697.318L105.704 697.095L103.305 692.465L103.154 692.293L91.4129 683.978V683.502L103.154 675.188L103.305 675.015L105.704 670.385L105.758 670.162V642.649L105.704 642.425L103.305 637.796L103.154 637.623L91.4129 629.308V628.833L103.154 620.518L103.305 620.345L105.704 615.716L105.758 615.492V587.653L105.704 587.429L103.305 582.8L103.154 582.627L91.4129 574.312V573.837L103.154 565.522L103.305 565.349L105.704 560.72L105.758 560.497V532.983L105.704 532.76L103.305 528.13L103.154 527.957L91.4129 519.643V519.167L103.154 510.853L103.305 510.68L105.704 506.05L105.758 505.827V478.386L105.704 478.162L103.305 473.533L103.154 473.36L91.4129 465.045V464.57L103.154 456.255L103.305 456.082L105.704 451.453L105.758 451.23V423.716L105.704 423.493L103.305 418.863L103.154 418.69L91.4129 410.376V409.9L103.154 401.586L103.305 401.413L105.704 396.783L105.758 396.56V383Z"
            fill="black" />
        <path
            d="M89.3104 781.005L94.4491 777.366L94.5995 777.193L94.8529 776.704L94.9074 776.48V754.864L94.8529 754.641L94.5996 754.152L94.4491 753.979L81.5094 744.816L81.2287 744.726H80.5297L80.249 744.816L67.3094 753.979L67.1589 754.152L66.9055 754.641L66.8511 754.864V776.48L66.9055 776.704L67.1589 777.193L67.3094 777.366L72.448 781.005H74.1287L67.9669 776.641L67.8223 776.362V754.982L67.9669 754.703L80.6842 745.698H81.0742L93.7915 754.703L93.9361 754.982V776.362L93.7915 776.641L87.6297 781.005H89.3104Z"
            fill="black" />
        <path fill-rule="evenodd" clip-rule="evenodd"
            d="M80.249 416.616L80.5297 416.527H81.2287L81.5094 416.616L94.4491 425.78L94.5996 425.952L94.8529 426.441L94.9074 426.665V448.281L94.8529 448.504L94.5996 448.993L94.4491 449.166L81.5094 458.33L81.2287 458.419H80.5297L80.249 458.33L67.3094 449.166L67.1589 448.993L66.9055 448.504L66.8511 448.281V426.665L66.9055 426.441L67.1589 425.952L67.3094 425.78L80.249 416.616ZM80.6842 417.498L67.9669 426.504L67.8223 426.783V448.163L67.9669 448.442L80.6842 457.448H81.0742L93.7915 448.442L93.9361 448.163V426.783L93.7915 426.504L81.0742 417.498H80.6842Z"
            fill="black" />
        <path fill-rule="evenodd" clip-rule="evenodd"
            d="M80.249 471.286L80.5297 471.196H81.2287L81.5094 471.286L94.4491 480.449L94.5996 480.622L94.8529 481.111L94.9074 481.334V502.878L94.8529 503.102L94.5996 503.591L94.4491 503.764L81.5094 512.927L81.2287 513.016H80.5297L80.249 512.927L67.3094 503.764L67.1589 503.591L66.9055 503.102L66.8511 502.878V481.334L66.9055 481.111L67.1589 480.622L67.3094 480.449L80.249 471.286ZM80.6842 472.168L67.9669 481.174L67.8223 481.453V502.76L67.9669 503.039L80.6842 512.045H81.0742L93.7915 503.039L93.9361 502.76V481.453L93.7915 481.174L81.0742 472.168H80.6842Z"
            fill="black" />
        <path fill-rule="evenodd" clip-rule="evenodd"
            d="M80.249 525.883L80.5297 525.794H81.2287L81.5094 525.883L94.4491 535.047L94.5995 535.219L94.8529 535.708L94.9074 535.932V557.548L94.8529 557.771L94.5996 558.26L94.4491 558.433L81.5094 567.597L81.2287 567.686H80.5297L80.249 567.597L67.3094 558.433L67.1589 558.26L66.9055 557.771L66.8511 557.548V535.932L66.9055 535.708L67.1589 535.219L67.3094 535.047L80.249 525.883ZM67.9669 535.771L80.6843 526.765H81.0742L93.7915 535.771L93.9361 536.05V557.43L93.7915 557.709L81.0742 566.715H80.6842L67.9669 557.709L67.8223 557.43V536.05L67.9669 535.771Z"
            fill="black" />
        <path fill-rule="evenodd" clip-rule="evenodd"
            d="M80.249 580.553L80.5297 580.463H81.2287L81.5094 580.553L94.4491 589.716L94.5996 589.889L94.8529 590.378L94.9074 590.601V612.544L94.8529 612.767L94.5996 613.256L94.4491 613.429L81.5094 622.592L81.2287 622.682H80.5297L80.249 622.592L67.3094 613.429L67.1589 613.256L66.9055 612.767L66.8511 612.544V590.601L66.9055 590.378L67.1589 589.889L67.3094 589.716L80.249 580.553ZM80.6842 581.435L67.9669 590.441L67.8223 590.72V612.425L67.9669 612.704L80.6842 621.71H81.0742L93.7915 612.704L93.9361 612.425V590.72L93.7915 590.441L81.0742 581.435H80.6842Z"
            fill="black" />
        <path fill-rule="evenodd" clip-rule="evenodd"
            d="M80.249 635.549L80.5297 635.459H81.2287L81.5094 635.549L94.4491 644.712L94.5995 644.885L94.8529 645.374L94.9074 645.597V667.213L94.8529 667.437L94.5996 667.926L94.4491 668.099L81.5094 677.262L81.2287 677.351H80.5297L80.249 677.262L67.3094 668.099L67.1589 667.926L66.9055 667.437L66.8511 667.213V645.597L66.9055 645.374L67.1589 644.885L67.3094 644.712L80.249 635.549ZM67.9669 645.436L80.6843 636.43H81.0742L93.7915 645.436L93.9361 645.715V667.095L93.7915 667.374L81.0742 676.38H80.6842L67.9669 667.374L67.8223 667.095V645.715L67.9669 645.436Z"
            fill="black" />
        <path fill-rule="evenodd" clip-rule="evenodd"
            d="M80.249 690.218L80.5297 690.129H81.2287L81.5094 690.218L94.4491 699.382L94.5995 699.554L94.8529 700.043L94.9074 700.267V721.811L94.8529 722.034L94.5996 722.523L94.4491 722.696L81.5094 731.859L81.2287 731.949H80.5297L80.249 731.859L67.3094 722.696L67.1589 722.523L66.9055 722.034L66.8511 721.811V700.267L66.9055 700.043L67.1589 699.554L67.3094 699.382L80.249 690.218ZM80.6843 691.1L67.9669 700.106L67.8223 700.385V721.692L67.9669 721.971L80.6843 730.977H81.0742L93.7915 721.971L93.9361 721.692V700.385L93.7915 700.106L81.0742 691.1H80.6843Z"
            fill="black" />
    </g>
    <g style="mix-blend-mode:multiply">
        <path
            d="M56 766V779.56L56.0545 779.783L58.4536 784.413L58.6041 784.586L70.3454 792.9V793.376L58.6041 801.69L58.4536 801.863L56.0545 806.493L56 806.716V834.23L56.0545 834.453L58.4536 839.082L58.6041 839.255L70.3454 847.57V848.045L58.6041 856.36L58.4536 856.533L56.0545 861.162L56 861.386V888.827L56.0545 889.05L58.4536 893.68L58.6041 893.853L70.3454 902.167V902.643L58.6041 910.957L58.4536 911.13L56.0545 915.76L56 915.983V943.497L56.0545 943.72L58.4536 948.349L58.6041 948.522L70.3454 956.837V957.312L58.6041 965.627L58.4536 965.8L56.0545 970.429L56 970.653V998.492L56.0545 998.716L58.4536 1003.35L58.6041 1003.52L70.3454 1011.83V1012.31L58.6041 1020.62L58.4536 1020.8L56.0545 1025.43L56 1025.65V1053.16L56.0545 1053.39L58.4536 1058.01L58.6041 1058.19L70.3454 1066.5V1066.98L58.6041 1075.29L58.4536 1075.47L56.0545 1080.09L56 1080.32V1107.76L56.0545 1107.98L58.4536 1112.61L58.6041 1112.78L70.3454 1121.1V1121.58L58.6041 1129.89L58.4536 1130.06L56.0545 1134.69L56 1134.92V1162.43L56.0545 1162.65L56.7552 1164H57.8492L56.9713 1162.31V1135.03L59.2617 1130.61L71.1117 1122.22L71.3167 1121.83V1120.85L71.1117 1120.45L59.2617 1112.06L56.9713 1107.64V1080.44L59.2617 1076.02L71.1117 1067.63L71.3167 1067.23V1066.25L71.1117 1065.85L59.2617 1057.46L56.9713 1053.04V1025.77L59.2617 1021.35L71.1117 1012.96L71.3167 1012.56V1011.58L71.1117 1011.19L59.2616 1002.79L56.9713 998.374V970.771L59.2616 966.352L71.1117 957.96L71.3167 957.563V956.586L71.1117 956.189L59.2616 947.798L56.9713 943.378V916.101L59.2616 911.682L71.1117 903.29L71.3167 902.894V901.916L71.1117 901.52L59.2616 893.128L56.9713 888.709V861.504L59.2617 857.085L71.1117 848.693L71.3167 848.296V847.319L71.1117 846.922L59.2617 838.531L56.9713 834.111V806.834L59.2617 802.415L71.1117 794.023L71.3167 793.627V792.649L71.1117 792.253L59.2617 783.861L56.9713 779.442V766H56Z"
            fill="black" />
        <path
            d="M66.8511 766V776.611L66.9055 776.835L67.1589 777.324L67.3094 777.496L80.249 786.66L80.5297 786.749H81.2287L81.5094 786.66L94.4491 777.496L94.5996 777.324L94.8529 776.835L94.9074 776.611V766H93.9361V776.493L93.7915 776.772L81.0742 785.778H80.6842L67.9669 776.772L67.8223 776.493V766H66.8511Z"
            fill="black" />
        <path
            d="M105.758 766H104.787V779.442L102.497 783.861L90.6467 792.253L90.4417 792.649V793.627L90.6467 794.023L102.497 802.415L104.787 806.834V834.111L102.497 838.531L90.6467 846.922L90.4417 847.319V848.296L90.6467 848.693L102.497 857.085L104.787 861.504V888.709L102.497 893.128L90.6467 901.52L90.4417 901.916V902.894L90.6467 903.29L102.497 911.682L104.787 916.101V943.378L102.497 947.798L90.6467 956.189L90.4417 956.586V957.563L90.6467 957.96L102.497 966.352L104.787 970.771V998.374L102.497 1002.79L90.6467 1011.19L90.4417 1011.58V1012.56L90.6467 1012.96L102.497 1021.35L104.787 1025.77V1053.04L102.497 1057.46L90.6467 1065.85L90.4417 1066.25V1067.23L90.6467 1067.63L102.497 1076.02L104.787 1080.44V1107.64L102.497 1112.06L90.6467 1120.45L90.4417 1120.85V1121.83L90.6467 1122.22L102.497 1130.61L104.787 1135.03V1162.31L103.909 1164H105.003L105.704 1162.65L105.758 1162.43V1134.92L105.704 1134.69L103.305 1130.06L103.154 1129.89L91.4129 1121.58V1121.1L103.154 1112.78L103.305 1112.61L105.704 1107.98L105.758 1107.76V1080.32L105.704 1080.09L103.305 1075.47L103.154 1075.29L91.4129 1066.98V1066.5L103.154 1058.19L103.305 1058.01L105.704 1053.39L105.758 1053.16V1025.65L105.704 1025.43L103.305 1020.8L103.154 1020.62L91.4129 1012.31V1011.83L103.154 1003.52L103.305 1003.35L105.704 998.716L105.758 998.492V970.653L105.704 970.429L103.305 965.8L103.154 965.627L91.4129 957.312V956.837L103.154 948.522L103.305 948.349L105.704 943.72L105.758 943.497V915.983L105.704 915.76L103.305 911.13L103.154 910.957L91.4129 902.643V902.167L103.154 893.853L103.305 893.68L105.704 889.05L105.758 888.827V861.386L105.704 861.162L103.305 856.533L103.154 856.36L91.4129 848.045V847.57L103.154 839.255L103.305 839.082L105.704 834.453L105.758 834.23V806.716L105.704 806.493L103.305 801.863L103.154 801.69L91.4129 793.376V792.9L103.154 784.586L103.305 784.413L105.704 779.783L105.758 779.56V766Z"
            fill="black" />
        <path
            d="M89.3104 1164L94.4491 1160.37L94.5995 1160.19L94.8529 1159.7L94.9074 1159.48V1137.86L94.8529 1137.64L94.5996 1137.15L94.4491 1136.98L81.5094 1127.82L81.2287 1127.73H80.5297L80.249 1127.82L67.3094 1136.98L67.1589 1137.15L66.9055 1137.64L66.8511 1137.86V1159.48L66.9055 1159.7L67.1589 1160.19L67.3094 1160.37L72.448 1164H74.1287L67.9669 1159.64L67.8223 1159.36V1137.98L67.9669 1137.7L80.6842 1128.7H81.0742L93.7915 1137.7L93.9361 1137.98V1159.36L93.7915 1159.64L87.6297 1164H89.3104Z"
            fill="black" />
        <path fill-rule="evenodd" clip-rule="evenodd"
            d="M80.249 799.616L80.5297 799.527H81.2287L81.5094 799.616L94.4491 808.78L94.5996 808.952L94.8529 809.441L94.9074 809.665V831.281L94.8529 831.504L94.5996 831.993L94.4491 832.166L81.5094 841.33L81.2287 841.419H80.5297L80.249 841.33L67.3094 832.166L67.1589 831.993L66.9055 831.504L66.8511 831.281V809.665L66.9055 809.441L67.1589 808.952L67.3094 808.78L80.249 799.616ZM80.6842 800.498L67.9669 809.504L67.8223 809.783V831.163L67.9669 831.442L80.6842 840.448H81.0742L93.7915 831.442L93.9361 831.163V809.783L93.7915 809.504L81.0742 800.498H80.6842Z"
            fill="black" />
        <path fill-rule="evenodd" clip-rule="evenodd"
            d="M80.249 854.286L80.5297 854.196H81.2287L81.5094 854.286L94.4491 863.449L94.5996 863.622L94.8529 864.111L94.9074 864.334V885.878L94.8529 886.102L94.5996 886.591L94.4491 886.764L81.5094 895.927L81.2287 896.016H80.5297L80.249 895.927L67.3094 886.764L67.1589 886.591L66.9055 886.102L66.8511 885.878V864.334L66.9055 864.111L67.1589 863.622L67.3094 863.449L80.249 854.286ZM80.6842 855.168L67.9669 864.174L67.8223 864.453V885.76L67.9669 886.039L80.6842 895.045H81.0742L93.7915 886.039L93.9361 885.76V864.453L93.7915 864.174L81.0742 855.168H80.6842Z"
            fill="black" />
        <path fill-rule="evenodd" clip-rule="evenodd"
            d="M80.249 908.883L80.5297 908.794H81.2287L81.5094 908.883L94.4491 918.047L94.5995 918.219L94.8529 918.708L94.9074 918.932V940.548L94.8529 940.771L94.5996 941.26L94.4491 941.433L81.5094 950.597L81.2287 950.686H80.5297L80.249 950.597L67.3094 941.433L67.1589 941.26L66.9055 940.771L66.8511 940.548V918.932L66.9055 918.708L67.1589 918.219L67.3094 918.047L80.249 908.883ZM67.9669 918.771L80.6843 909.765H81.0742L93.7915 918.771L93.9361 919.05V940.43L93.7915 940.709L81.0742 949.715H80.6842L67.9669 940.709L67.8223 940.43V919.05L67.9669 918.771Z"
            fill="black" />
        <path fill-rule="evenodd" clip-rule="evenodd"
            d="M80.249 963.553L80.5297 963.463H81.2287L81.5094 963.553L94.4491 972.716L94.5996 972.889L94.8529 973.378L94.9074 973.601V995.544L94.8529 995.767L94.5996 996.256L94.4491 996.429L81.5094 1005.59L81.2287 1005.68H80.5297L80.249 1005.59L67.3094 996.429L67.1589 996.256L66.9055 995.767L66.8511 995.544V973.601L66.9055 973.378L67.1589 972.889L67.3094 972.716L80.249 963.553ZM80.6842 964.435L67.9669 973.441L67.8223 973.72V995.425L67.9669 995.704L80.6842 1004.71H81.0742L93.7915 995.704L93.9361 995.425V973.72L93.7915 973.441L81.0742 964.435H80.6842Z"
            fill="black" />
        <path fill-rule="evenodd" clip-rule="evenodd"
            d="M80.249 1018.55L80.5297 1018.46H81.2287L81.5094 1018.55L94.4491 1027.71L94.5995 1027.88L94.8529 1028.37L94.9074 1028.6V1050.21L94.8529 1050.44L94.5996 1050.93L94.4491 1051.1L81.5094 1060.26L81.2287 1060.35H80.5297L80.249 1060.26L67.3094 1051.1L67.1589 1050.93L66.9055 1050.44L66.8511 1050.21V1028.6L66.9055 1028.37L67.1589 1027.88L67.3094 1027.71L80.249 1018.55ZM67.9669 1028.44L80.6843 1019.43H81.0742L93.7915 1028.44L93.9361 1028.72V1050.09L93.7915 1050.37L81.0742 1059.38H80.6842L67.9669 1050.37L67.8223 1050.09V1028.72L67.9669 1028.44Z"
            fill="black" />
        <path fill-rule="evenodd" clip-rule="evenodd"
            d="M80.249 1073.22L80.5297 1073.13H81.2287L81.5094 1073.22L94.4491 1082.38L94.5995 1082.55L94.8529 1083.04L94.9074 1083.27V1104.81L94.8529 1105.03L94.5996 1105.52L94.4491 1105.7L81.5094 1114.86L81.2287 1114.95H80.5297L80.249 1114.86L67.3094 1105.7L67.1589 1105.52L66.9055 1105.03L66.8511 1104.81V1083.27L66.9055 1083.04L67.1589 1082.55L67.3094 1082.38L80.249 1073.22ZM80.6843 1074.1L67.9669 1083.11L67.8223 1083.39V1104.69L67.9669 1104.97L80.6843 1113.98H81.0742L93.7915 1104.97L93.9361 1104.69V1083.39L93.7915 1083.11L81.0742 1074.1H80.6843Z"
            fill="black" />
    </g>
    <g style="mix-blend-mode:multiply">
        <path
            d="M0 0V13.5599L0.0544662 13.7834L2.45356 18.4127L2.60407 18.5855L14.3454 26.9004V27.3757L2.60407 35.6905L2.45356 35.8634L0.0544662 40.4927L0 40.7161V68.2295L0.0544662 68.453L2.45356 73.0823L2.60407 73.2551L14.3454 81.57V82.0452L2.60407 90.3601L2.45356 90.533L0.0544662 95.1623L0 95.3857V122.827L0.0544662 123.05L2.45356 127.68L2.60407 127.853L14.3454 136.167V136.643L2.60407 144.957L2.45356 145.13L0.0544662 149.76L0 149.983V177.497L0.0544662 177.72L2.45356 182.349L2.60407 182.522L14.3454 190.837V191.312L2.60407 199.627L2.45356 199.8L0.0544662 204.429L0 204.653V232.492L0.0544662 232.716L2.45356 237.345L2.60407 237.518L14.3454 245.833V246.308L2.60407 254.623L2.45356 254.796L0.0544662 259.425L0 259.649V287.162L0.0544662 287.385L2.45356 292.015L2.60407 292.188L14.3454 300.502V300.978L2.60407 309.293L2.45356 309.465L0.0544662 314.095L0 314.318V341.759L0.0544662 341.983L2.45356 346.612L2.60407 346.785L14.3454 355.1V355.575L2.60407 363.89L2.45356 364.063L0.0544662 368.692L0 368.915V396.429L0.0544662 396.652L0.755206 398.005H1.84917L0.971283 396.311V369.034L3.26165 364.614L15.1117 356.223L15.3167 355.826V354.849L15.1117 354.452L3.26165 346.06L0.971283 341.641V314.436L3.26165 310.017L15.1117 301.625L15.3167 301.229V300.251L15.1117 299.855L3.26165 291.463L0.971283 287.044V259.767L3.26165 255.347L15.1117 246.956L15.3167 246.559V245.582L15.1117 245.185L3.26163 236.793L0.971283 232.374V204.771L3.26164 200.352L15.1117 191.96L15.3167 191.563V190.586L15.1117 190.189L3.26164 181.798L0.971283 177.378V150.101L3.26163 145.682L15.1117 137.29L15.3167 136.894V135.916L15.1117 135.52L3.26164 127.128L0.971283 122.709V95.5041L3.26165 91.0846L15.1117 82.6927L15.3167 82.2964V81.3188L15.1117 80.9225L3.26165 72.5307L0.971283 68.1112V40.8345L3.26165 36.415L15.1117 28.0232L15.3167 27.6268V26.6492L15.1117 26.2529L3.26165 17.861L0.971283 13.4416V0H0Z"
            fill="black" />
        <path
            d="M10.8511 0V10.6114L10.9055 10.8348L11.1589 11.3236L11.3094 11.4965L24.249 20.6599L24.5297 20.7492H25.2287L25.5094 20.6599L38.4491 11.4965L38.5996 11.3236L38.8529 10.8348L38.9074 10.6114V0H37.9361V10.493L37.7915 10.772L25.0742 19.7779H24.6842L11.9669 10.772L11.8223 10.493V0H10.8511Z"
            fill="black" />
        <path
            d="M49.7584 0H48.7872V13.4416L46.4968 17.8611L34.6467 26.2529L34.4417 26.6492V27.6268L34.6467 28.0232L46.4968 36.415L48.7872 40.8345V68.1112L46.4968 72.5307L34.6467 80.9225L34.4417 81.3188V82.2964L34.6467 82.6927L46.4968 91.0846L48.7872 95.5041V122.709L46.4968 127.128L34.6467 135.52L34.4417 135.916V136.894L34.6467 137.29L46.4968 145.682L48.7872 150.101V177.378L46.4968 181.798L34.6467 190.189L34.4417 190.586V191.563L34.6467 191.96L46.4968 200.352L48.7872 204.771V232.374L46.4968 236.793L34.6467 245.185L34.4417 245.582V246.559L34.6467 246.956L46.4968 255.347L48.7872 259.767V287.044L46.4968 291.463L34.6467 299.855L34.4417 300.251V301.229L34.6467 301.625L46.4968 310.017L48.7872 314.436V341.641L46.4968 346.06L34.6467 354.452L34.4417 354.849V355.826L34.6467 356.223L46.4968 364.614L48.7872 369.034V396.311L47.9093 398.005H49.0032L49.704 396.652L49.7584 396.429V368.915L49.704 368.692L47.3049 364.063L47.1544 363.89L35.4129 355.575V355.1L47.1544 346.785L47.3049 346.612L49.704 341.983L49.7584 341.759V314.318L49.704 314.095L47.3049 309.465L47.1544 309.293L35.4129 300.978V300.502L47.1544 292.188L47.3049 292.015L49.704 287.385L49.7584 287.162V259.649L49.704 259.425L47.3049 254.796L47.1544 254.623L35.4129 246.308V245.833L47.1544 237.518L47.3049 237.345L49.704 232.716L49.7584 232.492V204.653L49.704 204.429L47.3049 199.8L47.1544 199.627L35.4129 191.312V190.837L47.1544 182.522L47.3049 182.349L49.704 177.72L49.7584 177.497V149.983L49.704 149.76L47.3049 145.13L47.1544 144.957L35.4129 136.643V136.167L47.1544 127.853L47.3049 127.68L49.704 123.05L49.7584 122.827V95.3857L49.704 95.1623L47.3049 90.533L47.1544 90.3601L35.4129 82.0453V81.57L47.1544 73.2551L47.3049 73.0823L49.704 68.453L49.7584 68.2295V40.7161L49.704 40.4927L47.3049 35.8634L47.1544 35.6905L35.4129 27.3757V26.9004L47.1544 18.5855L47.3049 18.4127L49.704 13.7834L49.7584 13.5599V0Z"
            fill="black" />
        <path
            d="M33.3104 398.005L38.4491 394.366L38.5995 394.193L38.8529 393.704L38.9074 393.48V371.864L38.8529 371.641L38.5996 371.152L38.4491 370.979L25.5094 361.816L25.2287 361.726H24.5297L24.249 361.816L11.3094 370.979L11.1589 371.152L10.9055 371.641L10.8511 371.864V393.48L10.9055 393.704L11.1589 394.193L11.3094 394.366L16.448 398.005H18.1287L11.9669 393.641L11.8223 393.362V371.982L11.9669 371.703L24.6842 362.698H25.0742L37.7915 371.703L37.9361 371.982V393.362L37.7915 393.641L31.6297 398.005H33.3104Z"
            fill="black" />
        <path fill-rule="evenodd" clip-rule="evenodd"
            d="M24.249 33.6161L24.5297 33.5268H25.2287L25.5094 33.6161L38.4491 42.7795L38.5996 42.9524L38.8529 43.4412L38.9074 43.6647V65.281L38.8529 65.5044L38.5996 65.9932L38.4491 66.1661L25.5094 75.3295L25.2287 75.4188H24.5297L24.249 75.3295L11.3094 66.1661L11.1589 65.9932L10.9055 65.5044L10.8511 65.281V43.6647L10.9055 43.4412L11.1589 42.9524L11.3094 42.7795L24.249 33.6161ZM24.6842 34.4981L11.9669 43.504L11.8223 43.783V65.1626L11.9669 65.4416L24.6842 74.4476H25.0742L37.7915 65.4416L37.9361 65.1626V43.7831L37.7915 43.504L25.0742 34.4981H24.6842Z"
            fill="black" />
        <path fill-rule="evenodd" clip-rule="evenodd"
            d="M24.249 88.2857L24.5297 88.1964H25.2287L25.5094 88.2857L38.4491 97.4491L38.5996 97.622L38.8529 98.1108L38.9074 98.3343V119.878L38.8529 120.102L38.5996 120.591L38.4491 120.764L25.5094 129.927L25.2287 130.016H24.5297L24.249 129.927L11.3094 120.764L11.1589 120.591L10.9055 120.102L10.8511 119.878V98.3343L10.9055 98.1108L11.1589 97.622L11.3094 97.4491L24.249 88.2857ZM24.6842 89.1677L11.9669 98.1736L11.8223 98.4527V119.76L11.9669 120.039L24.6842 129.045H25.0742L37.7915 120.039L37.9361 119.76V98.4527L37.7915 98.1736L25.0742 89.1677H24.6842Z"
            fill="black" />
        <path fill-rule="evenodd" clip-rule="evenodd"
            d="M24.249 142.883L24.5297 142.794H25.2287L25.5094 142.883L38.4491 152.047L38.5995 152.219L38.8529 152.708L38.9074 152.932V174.548L38.8529 174.771L38.5996 175.26L38.4491 175.433L25.5094 184.597L25.2287 184.686H24.5297L24.249 184.597L11.3094 175.433L11.1589 175.26L10.9055 174.771L10.8511 174.548V152.932L10.9055 152.708L11.1589 152.219L11.3094 152.047L24.249 142.883ZM11.9669 152.771L24.6843 143.765H25.0742L37.7915 152.771L37.9361 153.05V174.43L37.7915 174.709L25.0742 183.715H24.6842L11.9669 174.709L11.8223 174.43V153.05L11.9669 152.771Z"
            fill="black" />
        <path fill-rule="evenodd" clip-rule="evenodd"
            d="M24.249 197.553L24.5297 197.463H25.2287L25.5094 197.553L38.4491 206.716L38.5996 206.889L38.8529 207.378L38.9074 207.601V229.544L38.8529 229.767L38.5996 230.256L38.4491 230.429L25.5094 239.592L25.2287 239.682H24.5297L24.249 239.592L11.3094 230.429L11.1589 230.256L10.9055 229.767L10.8511 229.544V207.601L10.9055 207.378L11.1589 206.889L11.3094 206.716L24.249 197.553ZM24.6842 198.435L11.9669 207.441L11.8223 207.72V229.425L11.9669 229.704L24.6842 238.71H25.0742L37.7915 229.704L37.9361 229.425V207.72L37.7915 207.441L25.0742 198.435H24.6842Z"
            fill="black" />
        <path fill-rule="evenodd" clip-rule="evenodd"
            d="M24.249 252.549L24.5297 252.459H25.2287L25.5094 252.549L38.4491 261.712L38.5995 261.885L38.8529 262.374L38.9074 262.597V284.213L38.8529 284.437L38.5996 284.926L38.4491 285.099L25.5094 294.262L25.2287 294.351H24.5297L24.249 294.262L11.3094 285.099L11.1589 284.926L10.9055 284.437L10.8511 284.213V262.597L10.9055 262.374L11.1589 261.885L11.3094 261.712L24.249 252.549ZM11.9669 262.436L24.6843 253.43H25.0742L37.7915 262.436L37.9361 262.715V284.095L37.7915 284.374L25.0742 293.38H24.6842L11.9669 284.374L11.8223 284.095V262.715L11.9669 262.436Z"
            fill="black" />
        <path fill-rule="evenodd" clip-rule="evenodd"
            d="M24.249 307.218L24.5297 307.129H25.2287L25.5094 307.218L38.4491 316.382L38.5995 316.554L38.8529 317.043L38.9074 317.267V338.811L38.8529 339.034L38.5996 339.523L38.4491 339.696L25.5094 348.859L25.2287 348.949H24.5297L24.249 348.859L11.3094 339.696L11.1589 339.523L10.9055 339.034L10.8511 338.811V317.267L10.9055 317.043L11.1589 316.554L11.3094 316.382L24.249 307.218ZM24.6843 308.1L11.9669 317.106L11.8223 317.385V338.692L11.9669 338.971L24.6843 347.977H25.0742L37.7915 338.971L37.9361 338.692V317.385L37.7915 317.106L25.0742 308.1H24.6843Z"
            fill="black" />
    </g>
    <g style="mix-blend-mode:multiply">
        <path
            d="M0 383V396.56L0.0544662 396.783L2.45356 401.413L2.60407 401.586L14.3454 409.9V410.376L2.60407 418.69L2.45356 418.863L0.0544662 423.493L0 423.716V451.23L0.0544662 451.453L2.45356 456.082L2.60407 456.255L14.3454 464.57V465.045L2.60407 473.36L2.45356 473.533L0.0544662 478.162L0 478.386V505.827L0.0544662 506.05L2.45356 510.68L2.60407 510.853L14.3454 519.167V519.643L2.60407 527.957L2.45356 528.13L0.0544662 532.76L0 532.983V560.497L0.0544662 560.72L2.45356 565.349L2.60407 565.522L14.3454 573.837V574.312L2.60407 582.627L2.45356 582.8L0.0544662 587.429L0 587.653V615.492L0.0544662 615.716L2.45356 620.345L2.60407 620.518L14.3454 628.833V629.308L2.60407 637.623L2.45356 637.796L0.0544662 642.425L0 642.649V670.162L0.0544662 670.385L2.45356 675.015L2.60407 675.188L14.3454 683.502V683.978L2.60407 692.293L2.45356 692.465L0.0544662 697.095L0 697.318V724.759L0.0544662 724.983L2.45356 729.612L2.60407 729.785L14.3454 738.1V738.575L2.60407 746.89L2.45356 747.063L0.0544662 751.692L0 751.915V779.429L0.0544662 779.652L0.755206 781.005H1.84917L0.971283 779.311V752.034L3.26165 747.614L15.1117 739.223L15.3167 738.826V737.849L15.1117 737.452L3.26165 729.06L0.971283 724.641V697.436L3.26165 693.017L15.1117 684.625L15.3167 684.229V683.251L15.1117 682.855L3.26165 674.463L0.971283 670.044V642.767L3.26165 638.347L15.1117 629.956L15.3167 629.559V628.582L15.1117 628.185L3.26163 619.793L0.971283 615.374V587.771L3.26164 583.352L15.1117 574.96L15.3167 574.563V573.586L15.1117 573.189L3.26164 564.798L0.971283 560.378V533.101L3.26163 528.682L15.1117 520.29L15.3167 519.894V518.916L15.1117 518.52L3.26164 510.128L0.971283 505.709V478.504L3.26165 474.085L15.1117 465.693L15.3167 465.296V464.319L15.1117 463.922L3.26165 455.531L0.971283 451.111V423.834L3.26165 419.415L15.1117 411.023L15.3167 410.627V409.649L15.1117 409.253L3.26165 400.861L0.971283 396.442V383H0Z"
            fill="black" />
        <path
            d="M10.8511 383V393.611L10.9055 393.835L11.1589 394.324L11.3094 394.496L24.249 403.66L24.5297 403.749H25.2287L25.5094 403.66L38.4491 394.496L38.5996 394.324L38.8529 393.835L38.9074 393.611V383H37.9361V393.493L37.7915 393.772L25.0742 402.778H24.6842L11.9669 393.772L11.8223 393.493V383H10.8511Z"
            fill="black" />
        <path
            d="M49.7584 383H48.7872V396.442L46.4968 400.861L34.6467 409.253L34.4417 409.649V410.627L34.6467 411.023L46.4968 419.415L48.7872 423.834V451.111L46.4968 455.531L34.6467 463.922L34.4417 464.319V465.296L34.6467 465.693L46.4968 474.085L48.7872 478.504V505.709L46.4968 510.128L34.6467 518.52L34.4417 518.916V519.894L34.6467 520.29L46.4968 528.682L48.7872 533.101V560.378L46.4968 564.798L34.6467 573.189L34.4417 573.586V574.563L34.6467 574.96L46.4968 583.352L48.7872 587.771V615.374L46.4968 619.793L34.6467 628.185L34.4417 628.582V629.559L34.6467 629.956L46.4968 638.347L48.7872 642.767V670.044L46.4968 674.463L34.6467 682.855L34.4417 683.251V684.229L34.6467 684.625L46.4968 693.017L48.7872 697.436V724.641L46.4968 729.06L34.6467 737.452L34.4417 737.849V738.826L34.6467 739.223L46.4968 747.614L48.7872 752.034V779.311L47.9093 781.005H49.0032L49.704 779.652L49.7584 779.429V751.915L49.704 751.692L47.3049 747.063L47.1544 746.89L35.4129 738.575V738.1L47.1544 729.785L47.3049 729.612L49.704 724.983L49.7584 724.759V697.318L49.704 697.095L47.3049 692.465L47.1544 692.293L35.4129 683.978V683.502L47.1544 675.188L47.3049 675.015L49.704 670.385L49.7584 670.162V642.649L49.704 642.425L47.3049 637.796L47.1544 637.623L35.4129 629.308V628.833L47.1544 620.518L47.3049 620.345L49.704 615.716L49.7584 615.492V587.653L49.704 587.429L47.3049 582.8L47.1544 582.627L35.4129 574.312V573.837L47.1544 565.522L47.3049 565.349L49.704 560.72L49.7584 560.497V532.983L49.704 532.76L47.3049 528.13L47.1544 527.957L35.4129 519.643V519.167L47.1544 510.853L47.3049 510.68L49.704 506.05L49.7584 505.827V478.386L49.704 478.162L47.3049 473.533L47.1544 473.36L35.4129 465.045V464.57L47.1544 456.255L47.3049 456.082L49.704 451.453L49.7584 451.23V423.716L49.704 423.493L47.3049 418.863L47.1544 418.69L35.4129 410.376V409.9L47.1544 401.586L47.3049 401.413L49.704 396.783L49.7584 396.56V383Z"
            fill="black" />
        <path
            d="M33.3104 781.005L38.4491 777.366L38.5995 777.193L38.8529 776.704L38.9074 776.48V754.864L38.8529 754.641L38.5996 754.152L38.4491 753.979L25.5094 744.816L25.2287 744.726H24.5297L24.249 744.816L11.3094 753.979L11.1589 754.152L10.9055 754.641L10.8511 754.864V776.48L10.9055 776.704L11.1589 777.193L11.3094 777.366L16.448 781.005H18.1287L11.9669 776.641L11.8223 776.362V754.982L11.9669 754.703L24.6842 745.698H25.0742L37.7915 754.703L37.9361 754.982V776.362L37.7915 776.641L31.6297 781.005H33.3104Z"
            fill="black" />
        <path fill-rule="evenodd" clip-rule="evenodd"
            d="M24.249 416.616L24.5297 416.527H25.2287L25.5094 416.616L38.4491 425.78L38.5996 425.952L38.8529 426.441L38.9074 426.665V448.281L38.8529 448.504L38.5996 448.993L38.4491 449.166L25.5094 458.33L25.2287 458.419H24.5297L24.249 458.33L11.3094 449.166L11.1589 448.993L10.9055 448.504L10.8511 448.281V426.665L10.9055 426.441L11.1589 425.952L11.3094 425.78L24.249 416.616ZM24.6842 417.498L11.9669 426.504L11.8223 426.783V448.163L11.9669 448.442L24.6842 457.448H25.0742L37.7915 448.442L37.9361 448.163V426.783L37.7915 426.504L25.0742 417.498H24.6842Z"
            fill="black" />
        <path fill-rule="evenodd" clip-rule="evenodd"
            d="M24.249 471.286L24.5297 471.196H25.2287L25.5094 471.286L38.4491 480.449L38.5996 480.622L38.8529 481.111L38.9074 481.334V502.878L38.8529 503.102L38.5996 503.591L38.4491 503.764L25.5094 512.927L25.2287 513.016H24.5297L24.249 512.927L11.3094 503.764L11.1589 503.591L10.9055 503.102L10.8511 502.878V481.334L10.9055 481.111L11.1589 480.622L11.3094 480.449L24.249 471.286ZM24.6842 472.168L11.9669 481.174L11.8223 481.453V502.76L11.9669 503.039L24.6842 512.045H25.0742L37.7915 503.039L37.9361 502.76V481.453L37.7915 481.174L25.0742 472.168H24.6842Z"
            fill="black" />
        <path fill-rule="evenodd" clip-rule="evenodd"
            d="M24.249 525.883L24.5297 525.794H25.2287L25.5094 525.883L38.4491 535.047L38.5995 535.219L38.8529 535.708L38.9074 535.932V557.548L38.8529 557.771L38.5996 558.26L38.4491 558.433L25.5094 567.597L25.2287 567.686H24.5297L24.249 567.597L11.3094 558.433L11.1589 558.26L10.9055 557.771L10.8511 557.548V535.932L10.9055 535.708L11.1589 535.219L11.3094 535.047L24.249 525.883ZM11.9669 535.771L24.6843 526.765H25.0742L37.7915 535.771L37.9361 536.05V557.43L37.7915 557.709L25.0742 566.715H24.6842L11.9669 557.709L11.8223 557.43V536.05L11.9669 535.771Z"
            fill="black" />
        <path fill-rule="evenodd" clip-rule="evenodd"
            d="M24.249 580.553L24.5297 580.463H25.2287L25.5094 580.553L38.4491 589.716L38.5996 589.889L38.8529 590.378L38.9074 590.601V612.544L38.8529 612.767L38.5996 613.256L38.4491 613.429L25.5094 622.592L25.2287 622.682H24.5297L24.249 622.592L11.3094 613.429L11.1589 613.256L10.9055 612.767L10.8511 612.544V590.601L10.9055 590.378L11.1589 589.889L11.3094 589.716L24.249 580.553ZM24.6842 581.435L11.9669 590.441L11.8223 590.72V612.425L11.9669 612.704L24.6842 621.71H25.0742L37.7915 612.704L37.9361 612.425V590.72L37.7915 590.441L25.0742 581.435H24.6842Z"
            fill="black" />
        <path fill-rule="evenodd" clip-rule="evenodd"
            d="M24.249 635.549L24.5297 635.459H25.2287L25.5094 635.549L38.4491 644.712L38.5995 644.885L38.8529 645.374L38.9074 645.597V667.213L38.8529 667.437L38.5996 667.926L38.4491 668.099L25.5094 677.262L25.2287 677.351H24.5297L24.249 677.262L11.3094 668.099L11.1589 667.926L10.9055 667.437L10.8511 667.213V645.597L10.9055 645.374L11.1589 644.885L11.3094 644.712L24.249 635.549ZM11.9669 645.436L24.6843 636.43H25.0742L37.7915 645.436L37.9361 645.715V667.095L37.7915 667.374L25.0742 676.38H24.6842L11.9669 667.374L11.8223 667.095V645.715L11.9669 645.436Z"
            fill="black" />
        <path fill-rule="evenodd" clip-rule="evenodd"
            d="M24.249 690.218L24.5297 690.129H25.2287L25.5094 690.218L38.4491 699.382L38.5995 699.554L38.8529 700.043L38.9074 700.267V721.811L38.8529 722.034L38.5996 722.523L38.4491 722.696L25.5094 731.859L25.2287 731.949H24.5297L24.249 731.859L11.3094 722.696L11.1589 722.523L10.9055 722.034L10.8511 721.811V700.267L10.9055 700.043L11.1589 699.554L11.3094 699.382L24.249 690.218ZM24.6843 691.1L11.9669 700.106L11.8223 700.385V721.692L11.9669 721.971L24.6843 730.977H25.0742L37.7915 721.971L37.9361 721.692V700.385L37.7915 700.106L25.0742 691.1H24.6843Z"
            fill="black" />
    </g>
    <g style="mix-blend-mode:multiply">
        <path
            d="M0 766V779.56L0.0544662 779.783L2.45356 784.413L2.60407 784.586L14.3454 792.9V793.376L2.60407 801.69L2.45356 801.863L0.0544662 806.493L0 806.716V834.23L0.0544662 834.453L2.45356 839.082L2.60407 839.255L14.3454 847.57V848.045L2.60407 856.36L2.45356 856.533L0.0544662 861.162L0 861.386V888.827L0.0544662 889.05L2.45356 893.68L2.60407 893.853L14.3454 902.167V902.643L2.60407 910.957L2.45356 911.13L0.0544662 915.76L0 915.983V943.497L0.0544662 943.72L2.45356 948.349L2.60407 948.522L14.3454 956.837V957.312L2.60407 965.627L2.45356 965.8L0.0544662 970.429L0 970.653V998.492L0.0544662 998.716L2.45356 1003.35L2.60407 1003.52L14.3454 1011.83V1012.31L2.60407 1020.62L2.45356 1020.8L0.0544662 1025.43L0 1025.65V1053.16L0.0544662 1053.39L2.45356 1058.01L2.60407 1058.19L14.3454 1066.5V1066.98L2.60407 1075.29L2.45356 1075.47L0.0544662 1080.09L0 1080.32V1107.76L0.0544662 1107.98L2.45356 1112.61L2.60407 1112.78L14.3454 1121.1V1121.58L2.60407 1129.89L2.45356 1130.06L0.0544662 1134.69L0 1134.92V1162.43L0.0544662 1162.65L0.755206 1164H1.84917L0.971283 1162.31V1135.03L3.26165 1130.61L15.1117 1122.22L15.3167 1121.83V1120.85L15.1117 1120.45L3.26165 1112.06L0.971283 1107.64V1080.44L3.26165 1076.02L15.1117 1067.63L15.3167 1067.23V1066.25L15.1117 1065.85L3.26165 1057.46L0.971283 1053.04V1025.77L3.26165 1021.35L15.1117 1012.96L15.3167 1012.56V1011.58L15.1117 1011.19L3.26163 1002.79L0.971283 998.374V970.771L3.26164 966.352L15.1117 957.96L15.3167 957.563V956.586L15.1117 956.189L3.26164 947.798L0.971283 943.378V916.101L3.26163 911.682L15.1117 903.29L15.3167 902.894V901.916L15.1117 901.52L3.26164 893.128L0.971283 888.709V861.504L3.26165 857.085L15.1117 848.693L15.3167 848.296V847.319L15.1117 846.922L3.26165 838.531L0.971283 834.111V806.834L3.26165 802.415L15.1117 794.023L15.3167 793.627V792.649L15.1117 792.253L3.26165 783.861L0.971283 779.442V766H0Z"
            fill="black" />
        <path
            d="M10.8511 766V776.611L10.9055 776.835L11.1589 777.324L11.3094 777.496L24.249 786.66L24.5297 786.749H25.2287L25.5094 786.66L38.4491 777.496L38.5996 777.324L38.8529 776.835L38.9074 776.611V766H37.9361V776.493L37.7915 776.772L25.0742 785.778H24.6842L11.9669 776.772L11.8223 776.493V766H10.8511Z"
            fill="black" />
        <path
            d="M49.7584 766H48.7872V779.442L46.4968 783.861L34.6467 792.253L34.4417 792.649V793.627L34.6467 794.023L46.4968 802.415L48.7872 806.834V834.111L46.4968 838.531L34.6467 846.922L34.4417 847.319V848.296L34.6467 848.693L46.4968 857.085L48.7872 861.504V888.709L46.4968 893.128L34.6467 901.52L34.4417 901.916V902.894L34.6467 903.29L46.4968 911.682L48.7872 916.101V943.378L46.4968 947.798L34.6467 956.189L34.4417 956.586V957.563L34.6467 957.96L46.4968 966.352L48.7872 970.771V998.374L46.4968 1002.79L34.6467 1011.19L34.4417 1011.58V1012.56L34.6467 1012.96L46.4968 1021.35L48.7872 1025.77V1053.04L46.4968 1057.46L34.6467 1065.85L34.4417 1066.25V1067.23L34.6467 1067.63L46.4968 1076.02L48.7872 1080.44V1107.64L46.4968 1112.06L34.6467 1120.45L34.4417 1120.85V1121.83L34.6467 1122.22L46.4968 1130.61L48.7872 1135.03V1162.31L47.9093 1164H49.0032L49.704 1162.65L49.7584 1162.43V1134.92L49.704 1134.69L47.3049 1130.06L47.1544 1129.89L35.4129 1121.58V1121.1L47.1544 1112.78L47.3049 1112.61L49.704 1107.98L49.7584 1107.76V1080.32L49.704 1080.09L47.3049 1075.47L47.1544 1075.29L35.4129 1066.98V1066.5L47.1544 1058.19L47.3049 1058.01L49.704 1053.39L49.7584 1053.16V1025.65L49.704 1025.43L47.3049 1020.8L47.1544 1020.62L35.4129 1012.31V1011.83L47.1544 1003.52L47.3049 1003.35L49.704 998.716L49.7584 998.492V970.653L49.704 970.429L47.3049 965.8L47.1544 965.627L35.4129 957.312V956.837L47.1544 948.522L47.3049 948.349L49.704 943.72L49.7584 943.497V915.983L49.704 915.76L47.3049 911.13L47.1544 910.957L35.4129 902.643V902.167L47.1544 893.853L47.3049 893.68L49.704 889.05L49.7584 888.827V861.386L49.704 861.162L47.3049 856.533L47.1544 856.36L35.4129 848.045V847.57L47.1544 839.255L47.3049 839.082L49.704 834.453L49.7584 834.23V806.716L49.704 806.493L47.3049 801.863L47.1544 801.69L35.4129 793.376V792.9L47.1544 784.586L47.3049 784.413L49.704 779.783L49.7584 779.56V766Z"
            fill="black" />
        <path
            d="M33.3104 1164L38.4491 1160.37L38.5995 1160.19L38.8529 1159.7L38.9074 1159.48V1137.86L38.8529 1137.64L38.5996 1137.15L38.4491 1136.98L25.5094 1127.82L25.2287 1127.73H24.5297L24.249 1127.82L11.3094 1136.98L11.1589 1137.15L10.9055 1137.64L10.8511 1137.86V1159.48L10.9055 1159.7L11.1589 1160.19L11.3094 1160.37L16.448 1164H18.1287L11.9669 1159.64L11.8223 1159.36V1137.98L11.9669 1137.7L24.6842 1128.7H25.0742L37.7915 1137.7L37.9361 1137.98V1159.36L37.7915 1159.64L31.6297 1164H33.3104Z"
            fill="black" />
        <path fill-rule="evenodd" clip-rule="evenodd"
            d="M24.249 799.616L24.5297 799.527H25.2287L25.5094 799.616L38.4491 808.78L38.5996 808.952L38.8529 809.441L38.9074 809.665V831.281L38.8529 831.504L38.5996 831.993L38.4491 832.166L25.5094 841.33L25.2287 841.419H24.5297L24.249 841.33L11.3094 832.166L11.1589 831.993L10.9055 831.504L10.8511 831.281V809.665L10.9055 809.441L11.1589 808.952L11.3094 808.78L24.249 799.616ZM24.6842 800.498L11.9669 809.504L11.8223 809.783V831.163L11.9669 831.442L24.6842 840.448H25.0742L37.7915 831.442L37.9361 831.163V809.783L37.7915 809.504L25.0742 800.498H24.6842Z"
            fill="black" />
        <path fill-rule="evenodd" clip-rule="evenodd"
            d="M24.249 854.286L24.5297 854.196H25.2287L25.5094 854.286L38.4491 863.449L38.5996 863.622L38.8529 864.111L38.9074 864.334V885.878L38.8529 886.102L38.5996 886.591L38.4491 886.764L25.5094 895.927L25.2287 896.016H24.5297L24.249 895.927L11.3094 886.764L11.1589 886.591L10.9055 886.102L10.8511 885.878V864.334L10.9055 864.111L11.1589 863.622L11.3094 863.449L24.249 854.286ZM24.6842 855.168L11.9669 864.174L11.8223 864.453V885.76L11.9669 886.039L24.6842 895.045H25.0742L37.7915 886.039L37.9361 885.76V864.453L37.7915 864.174L25.0742 855.168H24.6842Z"
            fill="black" />
        <path fill-rule="evenodd" clip-rule="evenodd"
            d="M24.249 908.883L24.5297 908.794H25.2287L25.5094 908.883L38.4491 918.047L38.5995 918.219L38.8529 918.708L38.9074 918.932V940.548L38.8529 940.771L38.5996 941.26L38.4491 941.433L25.5094 950.597L25.2287 950.686H24.5297L24.249 950.597L11.3094 941.433L11.1589 941.26L10.9055 940.771L10.8511 940.548V918.932L10.9055 918.708L11.1589 918.219L11.3094 918.047L24.249 908.883ZM11.9669 918.771L24.6843 909.765H25.0742L37.7915 918.771L37.9361 919.05V940.43L37.7915 940.709L25.0742 949.715H24.6842L11.9669 940.709L11.8223 940.43V919.05L11.9669 918.771Z"
            fill="black" />
        <path fill-rule="evenodd" clip-rule="evenodd"
            d="M24.249 963.553L24.5297 963.463H25.2287L25.5094 963.553L38.4491 972.716L38.5996 972.889L38.8529 973.378L38.9074 973.601V995.544L38.8529 995.767L38.5996 996.256L38.4491 996.429L25.5094 1005.59L25.2287 1005.68H24.5297L24.249 1005.59L11.3094 996.429L11.1589 996.256L10.9055 995.767L10.8511 995.544V973.601L10.9055 973.378L11.1589 972.889L11.3094 972.716L24.249 963.553ZM24.6842 964.435L11.9669 973.441L11.8223 973.72V995.425L11.9669 995.704L24.6842 1004.71H25.0742L37.7915 995.704L37.9361 995.425V973.72L37.7915 973.441L25.0742 964.435H24.6842Z"
            fill="black" />
        <path fill-rule="evenodd" clip-rule="evenodd"
            d="M24.249 1018.55L24.5297 1018.46H25.2287L25.5094 1018.55L38.4491 1027.71L38.5995 1027.88L38.8529 1028.37L38.9074 1028.6V1050.21L38.8529 1050.44L38.5996 1050.93L38.4491 1051.1L25.5094 1060.26L25.2287 1060.35H24.5297L24.249 1060.26L11.3094 1051.1L11.1589 1050.93L10.9055 1050.44L10.8511 1050.21V1028.6L10.9055 1028.37L11.1589 1027.88L11.3094 1027.71L24.249 1018.55ZM11.9669 1028.44L24.6843 1019.43H25.0742L37.7915 1028.44L37.9361 1028.72V1050.09L37.7915 1050.37L25.0742 1059.38H24.6842L11.9669 1050.37L11.8223 1050.09V1028.72L11.9669 1028.44Z"
            fill="black" />
        <path fill-rule="evenodd" clip-rule="evenodd"
            d="M24.249 1073.22L24.5297 1073.13H25.2287L25.5094 1073.22L38.4491 1082.38L38.5995 1082.55L38.8529 1083.04L38.9074 1083.27V1104.81L38.8529 1105.03L38.5996 1105.52L38.4491 1105.7L25.5094 1114.86L25.2287 1114.95H24.5297L24.249 1114.86L11.3094 1105.7L11.1589 1105.52L10.9055 1105.03L10.8511 1104.81V1083.27L10.9055 1083.04L11.1589 1082.55L11.3094 1082.38L24.249 1073.22ZM24.6843 1074.1L11.9669 1083.11L11.8223 1083.39V1104.69L11.9669 1104.97L24.6843 1113.98H25.0742L37.7915 1104.97L37.9361 1104.69V1083.39L37.7915 1083.11L25.0742 1074.1H24.6843Z"
            fill="black" />
    </g>
</svg>