<svg width="109" height="19" viewBox="0 0 109 19" fill="none" xmlns="http://www.w3.org/2000/svg">
<path fill-rule="evenodd" clip-rule="evenodd" d="M0 1.90777L1.90304 0.0107792H12.815L14.718 1.90777V16.6363L12.815 18.5333H1.90304L0 16.6363V1.90777ZM3.84075 3.63783L3.63861 3.83933V14.7047L3.84075 14.9062H10.8773L11.0794 14.7047V3.83933L10.8773 3.63783H3.84075Z" fill="#0C0D0E"/>
<path d="M42.3351 13.758L42.337 13.7605L40.911 18.5333H37.1137L42.2411 1.37258L44.0706 0.0107792H49.3054L51.135 1.37258L56.2623 18.5333H52.465L48.0601 3.79042L47.8663 3.64644H45.5097L45.316 3.79042L43.7357 9.07943L43.7368 9.08099L42.3351 13.758Z" fill="#0C0D0E"/>
<path fill-rule="evenodd" clip-rule="evenodd" d="M59.0814 1.91446L60.9847 0.0107792H72.2379L74.1412 1.91446V11.0719L72.2379 12.9756H62.9222L62.72 13.1771V18.5333H59.0814V1.91446ZM62.9222 3.65162L62.72 3.85312V9.13326L62.9222 9.33477H70.3004L70.5026 9.13326V3.85312L70.3004 3.65162H62.9222Z" fill="#0C0D0E"/>
<path d="M77.0059 1.91606L78.9092 0.0107792H89.1433L91.0466 1.91606V16.628L89.1433 18.5333H78.9092L77.0059 16.628V13.3905H80.6445V14.6876L80.8467 14.8891H87.2058L87.408 14.6876V11.2853L87.2058 11.0838H81.0488V7.43963H87.2058L87.408 7.23812V3.85641L87.2058 3.65491H80.8467L80.6445 3.85641V5.15333H77.0059V1.91606Z" fill="#0C0D0E"/>
<path d="M94.3426 1.90812L96.2457 0.0107792H106.48L108.383 1.90811V5.23401H104.745V3.84004L104.543 3.63854H98.1834L97.9812 3.84004V6.44071L98.1363 6.63668L106.919 8.73266L108.383 10.5829V16.6359L106.48 18.5333H96.2457L94.3426 16.6359V13.3797H97.9812V14.704L98.1834 14.9055H104.543L104.745 14.704V12.1029L104.59 11.9069L95.8066 9.81095L94.3426 7.96072V1.90812Z" fill="#0C0D0E"/>
<path d="M18.1318 4.71799V0H21.7704V3.72765L21.8554 3.89183L26.1943 6.96958H26.4287L30.7677 3.89183L30.8526 3.72765V0H34.4913V4.71799L33.6868 6.27285L29.6809 9.11434V9.4427L33.6868 12.2842L34.4913 13.8391V18.5333H30.8527V14.8294L30.7677 14.6652L26.4287 11.5875H26.1943L21.8554 14.6652L21.7704 14.8294V18.5333H18.1318V13.8391L18.9363 12.2842L22.9422 9.4427V9.11434L18.9363 6.27285L18.1318 4.71799Z" fill="#0C0D0E"/>
</svg>
