<svg width="12" height="12" viewBox="0 0 12 12" fill="none" xmlns="http://www.w3.org/2000/svg">
<path d="M10.9565 0.742554H11.4783C11.7664 0.742554 12 0.976144 12 1.26429V10.6556C12 10.9437 11.7664 11.1773 11.4783 11.1773H10.9565C10.6684 11.1773 10.4348 10.9437 10.4348 10.6556V1.26429C10.4348 0.976144 10.6684 0.742554 10.9565 0.742554Z" fill="#212121"/>
<path d="M8.34783 3.35125H8.86957C9.15771 3.35125 9.3913 3.58484 9.3913 3.87299V10.6556C9.3913 10.9437 9.15771 11.1773 8.86957 11.1773H8.34783C8.05968 11.1773 7.82609 10.9437 7.82609 10.6556V3.87299C7.82609 3.58484 8.05968 3.35125 8.34783 3.35125Z" fill="#212121"/>
<path d="M3.13043 3.35125H3.65217C3.94032 3.35125 4.17391 3.58484 4.17391 3.87299V10.6556C4.17391 10.9437 3.94032 11.1773 3.65217 11.1773H3.13043C2.84229 11.1773 2.6087 10.9437 2.6087 10.6556V3.87299C2.6087 3.58484 2.84229 3.35125 3.13043 3.35125Z" fill="#212121"/>
<path d="M5.73913 5.95994H6.26087C6.54902 5.95994 6.78261 6.19354 6.78261 6.48168V10.6556C6.78261 10.9437 6.54902 11.1773 6.26087 11.1773H5.73913C5.45098 11.1773 5.21739 10.9437 5.21739 10.6556V6.48168C5.21739 6.19354 5.45098 5.95994 5.73913 5.95994Z" fill="#212121"/>
<path d="M0.521739 5.95994H1.04348C1.33163 5.95994 1.56522 6.19354 1.56522 6.48168V10.6556C1.56522 10.9437 1.33163 11.1773 1.04348 11.1773H0.521739C0.233591 11.1773 0 10.9437 0 10.6556V6.48168C0 6.19354 0.233591 5.95994 0.521739 5.95994Z" fill="#212121"/>
</svg>
