<svg width="32" height="34" viewBox="0 0 32 34" fill="none" xmlns="http://www.w3.org/2000/svg">
<path d="M16 0C7.1648 0 0 7.39799 0 16.5208C0 25.6435 7.1648 33.0415 16 33.0415C24.8352 33.0415 32 25.6435 32 16.5208C32 7.39799 24.8384 0 16 0ZM7.8944 17.0759L7.9616 16.9635L12.1248 10.2396C12.1856 10.1437 12.3296 10.1537 12.3744 10.2594C13.0688 11.8685 13.6704 13.8708 13.3888 15.1165C13.2704 15.6286 12.9408 16.3225 12.5696 16.9635C12.5216 17.056 12.4704 17.1485 12.4128 17.2378C12.3872 17.2774 12.3424 17.3005 12.2944 17.3005H8.016C7.9008 17.3005 7.8336 17.1717 7.8944 17.0759ZM26.4448 19.3888C26.4448 19.4515 26.4096 19.5044 26.3584 19.5275C26.0352 19.6696 24.9312 20.195 24.4736 20.8525C23.3024 22.5343 22.4096 24.9397 20.4096 24.9397H12.0704C9.1136 24.9397 6.72 22.4583 6.72 19.3954V19.2962C6.72 19.2169 6.784 19.1509 6.864 19.1509H11.5104C11.6032 19.1509 11.6704 19.2368 11.664 19.3326C11.6288 19.6432 11.6864 19.9637 11.8304 20.2544C12.1056 20.8327 12.6784 21.1928 13.296 21.1928H15.5968V19.3392H13.3216C13.2064 19.3392 13.136 19.2004 13.2032 19.1013C13.2288 19.0616 13.2544 19.022 13.2864 18.9757C13.5008 18.6585 13.808 18.1695 14.1152 17.6111C14.3232 17.2344 14.5248 16.8313 14.688 16.4282C14.72 16.3555 14.7456 16.2795 14.7744 16.2069C14.8192 16.078 14.864 15.9557 14.896 15.8368C14.928 15.7344 14.9568 15.6286 14.9824 15.5295C15.0592 15.1859 15.0912 14.8224 15.0912 14.4457C15.0912 14.2971 15.0848 14.1418 15.072 13.9964C15.0656 13.8345 15.0464 13.6726 15.0272 13.5107C15.0144 13.3686 14.9888 13.2265 14.9632 13.0811C14.928 12.8664 14.8832 12.6516 14.832 12.4368L14.8128 12.3542C14.7744 12.2055 14.7392 12.0668 14.6944 11.9181C14.5632 11.4555 14.416 11.0028 14.256 10.5799C14.1984 10.4114 14.1344 10.2495 14.0672 10.0909C13.9712 9.84637 13.872 9.62499 13.7824 9.41683C13.7344 9.32101 13.696 9.2351 13.6576 9.14589C13.6128 9.04676 13.568 8.94764 13.52 8.85182C13.488 8.77913 13.4496 8.70974 13.424 8.64366L13.1424 8.10839C13.104 8.03569 13.168 7.94648 13.2448 7.96961L15.0048 8.46193H15.0112C15.0144 8.46193 15.0144 8.46193 15.0176 8.46193L15.248 8.53132L15.504 8.60401L15.5968 8.63044V7.55329C15.5968 7.03123 16 6.6083 16.5024 6.6083C16.752 6.6083 16.9792 6.71403 17.1392 6.88585C17.3024 7.05767 17.4048 7.29226 17.4048 7.55329V9.1558L17.5936 9.20867C17.6064 9.21528 17.6224 9.22188 17.6352 9.2318C17.68 9.26484 17.7472 9.3177 17.8304 9.38379C17.8976 9.43665 17.968 9.50274 18.0512 9.57212C18.2208 9.7142 18.4256 9.89593 18.6464 10.1041C18.704 10.157 18.7616 10.2098 18.816 10.266C19.1008 10.5402 19.4208 10.8607 19.728 11.2176C19.8144 11.32 19.8976 11.4191 19.984 11.5282C20.0672 11.6372 20.16 11.743 20.2368 11.8487C20.3424 11.9908 20.4512 12.1394 20.5504 12.2947C20.5952 12.3674 20.6496 12.4434 20.6912 12.5161C20.8192 12.7111 20.928 12.9126 21.0336 13.1142C21.0784 13.2067 21.1232 13.3091 21.1616 13.4082C21.28 13.6792 21.3728 13.9534 21.4304 14.231C21.4496 14.2905 21.4624 14.3532 21.4688 14.4127V14.4259C21.488 14.5052 21.4944 14.5911 21.5008 14.6803C21.5264 14.9612 21.5136 15.2454 21.456 15.5295C21.4304 15.6485 21.3984 15.7608 21.36 15.8831C21.3184 15.9987 21.28 16.1176 21.2288 16.2333C21.1296 16.4679 21.0144 16.7058 20.8768 16.9239C20.832 17.0065 20.7776 17.0924 20.7264 17.175C20.6688 17.2609 20.608 17.3435 20.5568 17.4228C20.4832 17.5252 20.4064 17.6309 20.3264 17.7268C20.256 17.8259 20.1856 17.925 20.1056 18.0142C19.9968 18.1497 19.8912 18.2753 19.7792 18.3975C19.7152 18.4768 19.6448 18.5594 19.5712 18.6321C19.5008 18.7147 19.4272 18.7874 19.3632 18.8535C19.2512 18.9691 19.1616 19.055 19.0848 19.131L18.9024 19.2995C18.8768 19.326 18.8416 19.3392 18.8064 19.3392H17.4048V21.1928H19.168C19.5616 21.1928 19.936 21.0507 20.24 20.7831C20.3424 20.6906 20.7936 20.2875 21.328 19.6795C21.3472 19.6564 21.3696 19.6432 21.3952 19.6366L26.2624 18.1827C26.3552 18.1563 26.4448 18.2257 26.4448 18.3248V19.3888Z" fill="black"/>
</svg>
