<svg width="40" height="41" viewBox="0 0 40 41" fill="none" xmlns="http://www.w3.org/2000/svg">
<rect y="0.445312" width="40" height="40" rx="6" fill="black"/>
<path fill-rule="evenodd" clip-rule="evenodd" d="M3 13.4453C3 11.7885 4.34315 10.4453 6 10.4453H34C35.6569 10.4453 37 11.7885 37 13.4453V24.4453C37 26.1022 35.6569 27.4453 34 27.4453H23V30.4453H27V32.4453H13V30.4453H17V27.4453H6C4.34315 27.4453 3 26.1022 3 24.4453V13.4453ZM19 30.4453H21V27.4453H19V30.4453ZM34 25.4453H6C5.44772 25.4453 5 24.9976 5 24.4453V13.4453C5 12.893 5.44772 12.4453 6 12.4453H34C34.5523 12.4453 35 12.893 35 13.4453V24.4453C35 24.9976 34.5523 25.4453 34 25.4453Z" fill="white"/>
</svg>
