<svg width="32" height="32" viewBox="0 0 32 32" fill="none" xmlns="http://www.w3.org/2000/svg">
<path fill-rule="evenodd" clip-rule="evenodd" d="M15.9316 0.947021C24.2106 0.947021 30.9316 7.66802 30.9316 15.947C30.9316 24.225 24.2106 30.947 15.9316 30.947C7.65264 30.947 0.931648 24.225 0.931648 15.947C0.931648 7.66802 7.65264 0.947021 15.9316 0.947021V0.947021ZM20.6166 13.507C20.2136 13.683 20.0116 13.901 20.0116 14.159C20.0116 14.267 20.0626 14.438 20.1636 14.675C20.2636 14.911 20.3486 15.118 20.4186 15.294L21.4586 17.828C21.5536 18.106 21.7106 18.301 21.9316 18.415C22.0256 18.459 22.1456 18.481 22.2906 18.481C22.4356 18.481 22.5756 18.426 22.7116 18.315C22.8466 18.205 22.9366 18.093 22.9806 17.98L23.0566 17.819C23.1076 17.693 23.2936 17.201 23.6146 16.344C23.6776 16.495 23.7706 16.743 23.8936 17.086C24.0166 17.43 24.0956 17.644 24.1296 17.729C24.1646 17.814 24.1866 17.871 24.1966 17.899C24.2056 17.928 24.2326 17.98 24.2766 18.055C24.3206 18.131 24.3716 18.197 24.4276 18.254C24.5796 18.405 24.7526 18.481 24.9476 18.481C25.1436 18.481 25.3076 18.426 25.4396 18.315C25.5716 18.205 25.6606 18.093 25.7046 17.98L27.1326 14.5C27.1956 14.311 27.2266 14.188 27.2266 14.131C27.2266 13.879 27.0476 13.68 26.6876 13.535C26.4866 13.453 26.3226 13.412 26.1966 13.412C26.0696 13.412 25.9676 13.439 25.8886 13.493C25.8096 13.546 25.7546 13.6 25.7236 13.654C25.6916 13.707 25.6666 13.762 25.6476 13.819C25.5406 14.071 25.3166 14.664 24.9766 15.597L24.4186 14.065C24.3806 13.939 24.3116 13.828 24.2106 13.734C24.0276 13.551 23.8416 13.46 23.6526 13.46C23.4636 13.46 23.3006 13.51 23.1656 13.611C23.0296 13.712 22.9366 13.813 22.8866 13.914L22.8106 14.074C22.4956 14.957 22.3096 15.461 22.2526 15.587L21.6766 14.018C21.5246 13.614 21.2976 13.412 20.9956 13.412C20.8756 13.412 20.7496 13.444 20.6166 13.507V13.507ZM12.9296 13.507C12.5256 13.683 12.3236 13.901 12.3236 14.159C12.3236 14.267 12.3746 14.438 12.4756 14.675C12.5766 14.911 12.6616 15.118 12.7306 15.294L13.7706 17.828C13.8656 18.106 14.0226 18.301 14.2436 18.415C14.3386 18.459 14.4576 18.481 14.6026 18.481C14.7476 18.481 14.8886 18.426 15.0236 18.315C15.1596 18.205 15.2486 18.093 15.2936 17.98L15.3686 17.819C15.4196 17.693 15.6056 17.201 15.9266 16.344C15.9896 16.495 16.0826 16.743 16.2056 17.086C16.3286 17.43 16.4076 17.644 16.4426 17.729C16.4766 17.814 16.4986 17.871 16.5086 17.899C16.5176 17.928 16.5446 17.98 16.5886 18.055C16.6326 18.131 16.6836 18.197 16.7396 18.254C16.8916 18.405 17.0646 18.481 17.2596 18.481C17.4556 18.481 17.6196 18.426 17.7516 18.315C17.8846 18.205 17.9726 18.093 18.0166 17.98L19.4446 14.5C19.5076 14.311 19.5386 14.188 19.5386 14.131C19.5386 13.879 19.3596 13.68 18.9996 13.535C18.7986 13.453 18.6346 13.412 18.5086 13.412C18.3826 13.412 18.2796 13.439 18.2006 13.493C18.1226 13.546 18.0666 13.6 18.0356 13.654C18.0036 13.707 17.9786 13.762 17.9596 13.819C17.8526 14.071 17.6286 14.664 17.2886 15.597L16.7306 14.065C16.6926 13.939 16.6236 13.828 16.5226 13.734C16.3396 13.551 16.1536 13.46 15.9646 13.46C15.7756 13.46 15.6136 13.51 15.4776 13.611C15.3416 13.712 15.2486 13.813 15.1986 13.914L15.1226 14.074C14.8076 14.957 14.6216 15.461 14.5646 15.587L13.9886 14.018C13.8366 13.614 13.6096 13.412 13.3076 13.412C13.1876 13.412 13.0616 13.444 12.9296 13.507V13.507ZM5.24165 13.507C4.83765 13.683 4.63565 13.901 4.63565 14.159C4.63565 14.267 4.68665 14.438 4.78765 14.675C4.88865 14.911 4.97365 15.118 5.04265 15.294L6.08265 17.828C6.17765 18.106 6.33465 18.301 6.55565 18.415C6.65065 18.459 6.76965 18.481 6.91465 18.481C7.05965 18.481 7.20065 18.426 7.33565 18.315C7.47165 18.205 7.56165 18.093 7.60565 17.98L7.68065 17.819C7.73165 17.693 7.91765 17.201 8.23865 16.344C8.30165 16.495 8.39465 16.743 8.51765 17.086C8.64065 17.43 8.71965 17.644 8.75465 17.729C8.78865 17.814 8.81065 17.871 8.82065 17.899C8.82965 17.928 8.85665 17.98 8.90065 18.055C8.94465 18.131 8.99565 18.197 9.05165 18.254C9.20365 18.405 9.37665 18.481 9.57265 18.481C9.76765 18.481 9.93165 18.426 10.0636 18.315C10.1966 18.205 10.2846 18.093 10.3286 17.98L11.7566 14.5C11.8196 14.311 11.8516 14.188 11.8516 14.131C11.8516 13.879 11.6716 13.68 11.3126 13.535C11.1106 13.453 10.9466 13.412 10.8206 13.412C10.6946 13.412 10.5916 13.439 10.5126 13.493C10.4346 13.546 10.3796 13.6 10.3476 13.654C10.3156 13.707 10.2906 13.762 10.2716 13.819C10.1646 14.071 9.94065 14.664 9.60065 15.597L9.04265 14.065C9.00465 13.939 8.93565 13.828 8.83465 13.734C8.65165 13.551 8.46565 13.46 8.27665 13.46C8.08765 13.46 7.92565 13.51 7.78965 13.611C7.65465 13.712 7.56165 13.813 7.51065 13.914L7.43465 14.074C7.11965 14.957 6.93365 15.461 6.87765 15.587L6.30065 14.018C6.14865 13.614 5.92165 13.412 5.61965 13.412C5.49965 13.412 5.37365 13.444 5.24165 13.507V13.507Z" fill="black"/>
</svg>
