<svg width="26" height="26" viewBox="0 0 26 26" fill="none" xmlns="http://www.w3.org/2000/svg">
<path fill-rule="evenodd" clip-rule="evenodd" d="M0.932047 9.49898C3.71741 0.985083 15.7797 -3.52759 20.8171 3.36885C22.9552 6.29592 21.238 8.23297 19.437 10.2645C17.4663 12.4875 17.142 15.3796 19.9128 19.2499C26.8371 28.922 -5.84996 30.2292 0.932047 9.49898ZM16.4681 11.185C16.4681 14.7535 13.7086 18.8686 8.6625 18.8686C7.11299 18.8686 5.67146 18.4214 4.45732 17.6554C4.67452 17.6805 4.89302 17.693 5.11171 17.6928C6.39724 17.6928 7.58004 17.2613 8.519 16.5368C7.31827 16.515 6.30552 15.7342 5.95626 14.6612C6.1234 14.6928 6.29538 14.7099 6.47184 14.7099C6.7162 14.71 6.95947 14.6781 7.19523 14.6149C5.93995 14.3675 4.99433 13.2755 4.99433 11.9677C4.99433 11.9556 4.99433 11.9446 4.99474 11.9332C5.37544 12.142 5.80153 12.2579 6.23719 12.271C5.50068 11.7871 5.01637 10.96 5.01637 10.0231C5.01594 9.54629 5.14413 9.07792 5.38783 8.6658C6.74093 10.2998 8.76273 11.3743 11.0428 11.4873C10.9957 11.2895 10.9716 11.0835 10.9716 10.8715C10.9716 9.38079 12.2002 8.17143 13.7152 8.17143C14.5043 8.17143 15.2171 8.49972 15.7177 9.02463C16.332 8.90529 16.9212 8.68361 17.4597 8.36914C17.2545 8.99957 16.8197 9.52847 16.2533 9.86278C16.8082 9.7975 17.3372 9.65272 17.8288 9.4376C17.4606 9.98001 16.9972 10.4535 16.4603 10.836C16.4657 10.9518 16.4681 11.0682 16.4681 11.185Z" fill="white"/>
<path d="M24.73 13.8657C26.0936 15.4407 26.4085 17.3603 25.4335 18.1533C24.4585 18.9462 22.5627 18.3122 21.1991 16.7372C19.8356 15.1622 19.5206 13.2426 20.4957 12.4496C21.4707 11.6567 23.3665 12.2907 24.73 13.8657Z" fill="white"/>
</svg>
