<svg width="26" height="22" viewBox="0 0 26 22" fill="none" xmlns="http://www.w3.org/2000/svg">
<path d="M10.9575 8.50418C11.579 8.50418 12.0741 9.03679 12.0644 9.68044C12.0644 10.3286 11.5741 10.8566 10.9575 10.8566C10.3508 10.8566 9.8508 10.3286 9.8508 9.68044C9.8508 9.03212 10.3411 8.50418 10.9575 8.50418Z" fill="white"/>
<path d="M15.0499 8.50418C15.6712 8.50418 16.1663 9.03679 16.1566 9.68044C16.1566 10.3286 15.6712 10.8566 15.0499 10.8566C14.443 10.8566 13.943 10.3286 13.943 9.68044C13.943 9.03212 14.4333 8.50418 15.0499 8.50418Z" fill="white"/>
<path fill-rule="evenodd" clip-rule="evenodd" d="M2.75559 4.8622C4.89861 2.24862 9.44018 -1.26928 16.8483 0.459902C28.302 3.13343 27.2462 16.144 23.138 15.548C15.0677 14.3773 12.9053 16.7741 11.295 18.5589C9.94812 20.0518 8.9874 21.1166 5.27915 19.3082C-1.04747 16.2228 -1.42884 9.96544 2.75559 4.8622ZM19.1049 12.1827C19.3617 9.66556 18.6747 7.4791 17.2838 5.5407C17.2804 5.53428 17.2747 5.52961 17.2678 5.52684C16.4828 5.18553 15.6412 4.93411 14.7611 4.79009C14.7532 4.78869 14.7451 4.78969 14.7378 4.79294C14.7306 4.79619 14.7246 4.80152 14.7208 4.80818C14.6125 4.99058 14.4926 5.22858 14.4086 5.41565C13.4619 5.2814 12.5202 5.2814 11.593 5.41565C11.509 5.22449 11.3847 4.99058 11.276 4.80818C11.2677 4.79476 11.2517 4.78775 11.2357 4.79009C10.3561 4.93367 9.51443 5.18509 8.72883 5.52684C8.72206 5.52961 8.71621 5.53428 8.71236 5.54026C7.11578 7.80041 6.67841 10.005 6.89302 12.1822C6.89394 12.1929 6.90025 12.2031 6.90903 12.2095C7.96233 12.9426 8.98285 13.3875 9.98427 13.6826C10.0003 13.6873 10.0172 13.6816 10.0275 13.6692C10.2643 13.3626 10.4755 13.0394 10.6566 12.6995C10.6673 12.6795 10.657 12.656 10.6353 12.6482C10.3003 12.5278 9.98135 12.381 9.67453 12.2142C9.65021 12.2008 9.64836 12.1679 9.67068 12.1522C9.73519 12.1064 9.79984 12.0586 9.86142 12.0105C9.87266 12.0017 9.88821 11.9998 9.9013 12.0054C11.9168 12.8773 14.0988 12.8773 16.0907 12.0054C16.1038 11.9994 16.1194 12.0012 16.1309 12.0101C16.1927 12.0582 16.2572 12.1064 16.3223 12.1522C16.3446 12.1679 16.3431 12.2008 16.3189 12.2142C16.0121 12.3842 15.6931 12.5278 15.3576 12.6476C15.3358 12.6555 15.3261 12.6795 15.3367 12.6995C15.5218 13.0389 15.733 13.3621 15.9654 13.6687C15.9702 13.675 15.977 13.6797 15.9847 13.6822C15.9925 13.6847 16.0008 13.6848 16.0087 13.6826C17.0149 13.3875 18.0354 12.9426 19.0887 12.2095C19.0979 12.2031 19.1038 12.1933 19.1049 12.1827Z" fill="white"/>
<path d="M14.1806 21.4931C10.756 19.6446 16.3111 16.6977 20.7331 17.4762C25.1551 18.2547 17.6052 23.3415 14.1806 21.4931Z" fill="white"/>
</svg>
