<svg width="180" height="27" viewBox="0 0 180 27" fill="none" xmlns="http://www.w3.org/2000/svg">
<path d="M17.9601 14.7792C18.3138 11.5501 18.5159 10.3082 18.6169 9.26494C18.7937 6.18491 18.6169 3.0552 17.9349 0.0248481C20.5367 0.0248481 23.1385 0.0248481 25.7403 0.0248481C27.9885 9.33947 23.4922 17.6854 25.7403 26.9752C23.1132 26.9752 21.7997 26.9752 19.1726 26.9752C14.8026 22.4545 11.3924 17.5612 7.80546 12.4443C7.67916 14.804 7.47708 15.9715 7.50234 18.3312C7.50234 21.2373 7.60337 24.069 7.83072 26.9503C5.2289 26.9503 2.60182 26.9503 0 26.9503C0 17.9586 0 8.96688 0 0C2.62708 0 3.94062 0 6.5677 0C10.7357 4.76909 14.7268 9.38914 17.9601 14.7792Z" fill="white"/>
<path d="M30.0626 26.9752C27.3345 17.5612 32.7907 9.43884 30.0626 0.0248632C37.085 0.0248632 44.0821 0.0248632 51.1045 0.0248632C52.7464 2.58328 52.9485 3.85006 52.9485 6.40847C48.3764 6.40847 43.779 6.40847 39.2069 6.40847C39.2574 8.42043 39.0301 9.43884 38.3985 11.4508C42.617 11.4508 46.8608 11.4508 51.0793 11.4508C50.1194 13.9347 49.5131 15.2015 48.7048 17.6854C44.6126 17.6854 40.5204 17.6854 36.4535 17.6854C35.9988 20.8151 36.3524 24.0938 37.7418 26.9752C35.1905 26.9752 32.6139 26.9752 30.0626 26.9752Z" fill="white"/>
<path d="M64.9304 6.30912C62.2023 6.30912 59.4742 6.30912 56.7461 6.30912C56.7208 3.80039 56.4935 2.5336 54.8515 0.0248632C62.758 0.0248632 70.6645 0.0248632 78.5963 0.0248632C80.8445 2.5336 81.0971 3.80039 81.0213 6.30912C78.2932 6.30912 75.565 6.30912 72.8369 6.30912C71.7254 14.3073 65.865 18.977 70.5635 27C67.9869 27 65.4104 27 62.8591 27C58.5143 18.9273 64.021 14.2824 64.9304 6.30912Z" fill="white"/>
<path d="M95.0743 0.0248677C102.551 -0.0744883 114.045 4.17298 109.498 13.3137C106.593 19.1757 102.93 27.3726 95.0743 26.9752C91.1589 26.9752 87.2436 26.9752 83.3282 26.9752C76.3563 17.1886 90.3001 9.83627 83.3282 0.0248677C87.2436 0.0248677 91.1589 0.0248677 95.0743 0.0248677ZM88.4055 20.5419C90.0474 20.5419 90.8811 20.5419 92.5482 20.5419C96.893 20.7903 100.076 16.3689 101.869 13.2144C103.915 9.66239 101.617 6.38365 97.6256 6.35881C96.0342 6.35881 95.2258 6.35881 93.6092 6.35881C93.0534 11.5253 88.835 15.425 88.4055 20.5419Z" fill="white"/>
<path d="M138.901 26.9752C136.047 26.9752 133.217 26.9752 130.363 26.9752C127.155 24.3919 124.376 21.759 122.204 18.2318C121.092 18.2318 120.562 18.2318 119.451 18.2318C118.92 21.287 119.425 24.4168 121.269 26.9752C118.693 26.9752 116.091 26.9752 113.514 26.9752C107.907 17.1638 119.122 9.8611 113.514 0.0248632C117.985 0.0248632 122.457 0.0248632 126.902 0.0248632C132.005 0.0248632 140.215 3.40296 138.926 9.31464C138.093 13.1398 134.228 16.1454 130.338 17.437C132.485 21.0386 135.466 23.8206 138.648 26.5281C138.749 26.7019 138.8 26.8013 138.901 26.9752ZM123.29 6.11042C123.341 8.69367 122.785 9.9853 121.673 12.5686C123.947 12.5686 125.084 12.5686 127.357 12.5686C129.378 12.5686 130.893 11.0782 131.399 9.43883C131.929 7.74978 130.742 6.08557 128.772 6.08557C126.574 6.11041 125.488 6.11042 123.29 6.11042Z" fill="white"/>
<path d="M142.387 26.9752C139.128 17.437 145.646 9.5382 142.387 0.0248632C144.964 0.0248632 147.54 0.0248632 150.091 0.0248632C152.693 9.414 147.49 17.586 150.091 26.9752C147.515 26.9752 144.938 26.9752 142.387 26.9752Z" fill="white"/>
<path d="M162.722 19.6973C162.696 22.0819 162.898 24.6403 163.429 26.9752C160.852 26.9752 158.25 26.9752 155.674 26.9752C153.552 17.6854 157.796 9.28981 155.674 0.0248617C160.12 0.0248617 164.54 0.0248617 168.986 0.0248617C174.973 -0.0496552 180.05 3.70103 180 9.83626C179.949 16.2199 174.619 19.598 168.531 19.6973C166.182 19.6973 165.02 19.6973 162.722 19.6973ZM163.454 13.264C165.677 13.264 166.788 13.264 169.011 13.264C171.158 13.264 172.371 11.724 172.497 9.96046C172.624 8.19689 171.487 6.58235 169.441 6.58235C167.319 6.58235 166.233 6.58235 164.111 6.58235C164.136 9.26496 163.883 10.5814 163.454 13.264Z" fill="white"/>
</svg>
