<svg width="670" height="2408" viewBox="0 0 670 2408" fill="none" xmlns="http://www.w3.org/2000/svg">
<path fill-rule="evenodd" clip-rule="evenodd" d="M20 10C20 12.9461 18.726 15.5946 16.6989 17.4247C14.0282 19.8359 11 22.6919 11 26.29L11 250.71C11 254.308 14.0281 257.164 16.6989 259.575C18.726 261.405 20 264.054 20 267C20 269.946 18.726 272.595 16.6989 274.425C14.0281 276.836 11 279.692 11 283.29L11 508.5C11 514.575 15.9249 519.5 22 519.5H643.348C647.081 519.5 650.006 516.247 652.458 513.434C654.291 511.33 656.99 510 660 510C665.523 510 670 514.477 670 520C670 522.946 668.726 525.595 666.699 527.425C664.028 529.836 661 532.692 661 536.29V764.71C661 768.308 664.028 771.164 666.699 773.575C668.726 775.405 670 778.054 670 781C670 783.946 668.726 786.595 666.699 788.425C664.028 790.836 661 793.692 661 797.29V1071.5C661 1083.1 651.598 1092.5 640 1092.5H30C19.5066 1092.5 11 1101.01 11 1111.5V1193.71C11 1197.31 14.0282 1200.16 16.6989 1202.58C18.726 1204.41 20 1207.05 20 1210C20 1212.95 18.726 1215.59 16.6989 1217.42C14.0282 1219.84 11 1222.69 11 1226.29V1461.71C11 1465.31 14.0282 1468.16 16.6989 1470.58C18.726 1472.41 20 1475.05 20 1478C20 1480.95 18.726 1483.59 16.6989 1485.42C14.0282 1487.84 11 1490.69 11 1494.29V1756.5C11 1766.99 19.5066 1775.5 30 1775.5H644.086C647.55 1775.5 650.335 1772.69 652.704 1770.16C654.529 1768.22 657.122 1767 660 1767C665.523 1767 670 1771.48 670 1777C670 1779.95 668.726 1782.59 666.699 1784.42C664.028 1786.84 661 1789.69 661 1793.29V2050.71C661 2054.31 664.028 2057.16 666.699 2059.58C668.726 2061.41 670 2064.05 670 2067C670 2069.95 668.726 2072.59 666.699 2074.42C664.028 2076.84 661 2079.69 661 2083.29V2406.5C661 2407.05 660.552 2407.5 660 2407.5V2407.5C659.448 2407.5 659 2407.05 659 2406.5V2083.29C659 2079.69 655.972 2076.84 653.301 2074.42C651.274 2072.59 650 2069.95 650 2067C650 2064.05 651.274 2061.41 653.301 2059.58C655.972 2057.16 659 2054.31 659 2050.71V1793.29C659 1789.69 655.972 1786.84 653.301 1784.42C653.003 1784.16 652.722 1783.87 652.458 1783.57C650.006 1780.75 647.081 1777.5 643.348 1777.5H30C18.402 1777.5 9 1768.1 9 1756.5V1494.29C9 1490.69 5.97185 1487.84 3.30111 1485.42C1.27399 1483.59 0 1480.95 0 1478C0 1475.05 1.27399 1472.41 3.30111 1470.58C5.97185 1468.16 9 1465.31 9 1461.71V1226.29C9 1222.69 5.97185 1219.84 3.30111 1217.42C1.27399 1215.59 0 1212.95 0 1210C0 1207.05 1.27399 1204.41 3.30111 1202.58C5.97185 1200.16 9 1197.31 9 1193.71V1111.5C9 1099.9 18.402 1090.5 30 1090.5H640C650.493 1090.5 659 1081.99 659 1071.5V797.29C659 793.692 655.972 790.836 653.301 788.425C651.274 786.595 650 783.946 650 781C650 778.054 651.274 775.405 653.301 773.575C655.972 771.164 659 768.308 659 764.71V536.29C659 532.692 655.972 529.836 653.301 527.425C653.094 527.238 652.895 527.042 652.704 526.839C650.335 524.312 647.55 521.5 644.086 521.5H22C14.8203 521.5 9 515.68 9 508.5L9.00001 283.29C9.00001 279.692 5.97186 276.836 3.3011 274.425C1.27399 272.595 0 269.946 0 267C0 264.054 1.27399 261.405 3.3011 259.575C5.97186 257.164 9.00001 254.308 9.00001 250.71L9.00002 26.2901C9.00002 22.6919 5.97187 19.8359 3.30112 17.4247C1.27399 15.5946 0 12.9461 0 10C0 4.47715 4.47715 0 10 0C15.5228 0 20 4.47715 20 10Z" fill="url(#paint0_linear_283:711)"/>
<defs>
<linearGradient id="paint0_linear_283:711" x1="335" y1="0" x2="335" y2="2408" gradientUnits="userSpaceOnUse">
<stop stop-color="#FF008A"/>
<stop offset="0.112194" stop-color="#FF00F8"/>
<stop offset="0.216967" stop-color="#6D40F9"/>
<stop offset="0.326339" stop-color="#246FFF"/>
<stop offset="0.505228" stop-color="#1BBAFF"/>
<stop offset="0.61533" stop-color="#43FFE8"/>
<stop offset="0.736953" stop-color="#52FF36"/>
<stop offset="0.868427" stop-color="#FFC103"/>
<stop offset="1" stop-color="#131318"/>
</linearGradient>
</defs>
</svg>
