<?xml version="1.0" standalone="no"?>
<!DOCTYPE svg PUBLIC "-//W3C//DTD SVG 20010904//EN"
 "http://www.w3.org/TR/2001/REC-SVG-20010904/DTD/svg10.dtd">
<svg version="1.0" xmlns="http://www.w3.org/2000/svg"
 width="700.000000pt" height="700.000000pt" viewBox="0 0 700.000000 700.000000"
 preserveAspectRatio="xMidYMid meet">
<metadata>
Created by potrace 1.14, written by Peter Selinger 2001-2017
</metadata>
<g transform="translate(0.000000,700.000000) scale(0.100000,-0.100000)"
fill="#000000" stroke="none">
<path d="M3 5108 c2 -1041 6 -1906 9 -1923 3 -16 9 -59 13 -95 15 -133 26
-202 60 -360 21 -96 91 -339 114 -395 5 -11 25 -65 46 -120 64 -170 213 -461
314 -615 213 -323 469 -603 771 -845 92 -74 370 -265 386 -265 4 0 15 -6 23
-14 26 -22 260 -140 391 -196 268 -115 597 -207 879 -246 25 -3 57 -8 71 -10
162 -25 683 -25 842 1 13 2 46 7 73 10 71 10 87 13 115 18 14 3 43 8 65 12
115 21 314 74 455 122 188 64 473 192 614 278 32 19 62 35 67 35 5 0 9 5 9 10
0 6 5 10 10 10 15 0 220 141 330 227 152 118 324 280 450 422 36 41 70 79 76
85 6 6 48 61 94 121 150 197 277 405 383 628 26 53 47 99 47 102 0 2 11 28 24
57 57 127 151 421 182 573 17 81 54 301 59 350 4 33 9 71 11 85 9 47 11 525 4
605 -15 157 -21 210 -25 225 -2 8 -7 35 -10 60 -17 129 -80 384 -136 552 -348
1036 -1168 1857 -2204 2206 -168 57 -420 119 -555 137 -19 3 -46 7 -60 10 -13
2 -52 7 -86 11 -33 3 -74 8 -90 11 -16 3 -883 8 -1927 10 l-1898 4 4 -1893z"/>
</g>
</svg>
