<svg width="200" height="26" viewBox="0 0 200 26" fill="none" xmlns="http://www.w3.org/2000/svg">
<path d="M64.7211 22.2777L53.6895 0H61.4583C62.3743 0 63.2146 0.53741 63.6393 1.39489L70.5372 15.3247L77.4351 1.39489C77.8596 0.53741 78.7001 0 79.6161 0H87.3849L76.3533 22.2777C73.8973 27.2373 67.1771 27.2373 64.7211 22.2777Z" fill="white"/>
<path d="M112.981 26L101.949 3.7222C99.4935 -1.23736 92.7732 -1.23736 90.3172 3.7222L79.2856 26H87.0544C87.9704 26 88.8107 25.4625 89.2354 24.6051L96.1333 10.6752L103.031 24.6051C103.456 25.4625 104.296 26 105.212 26H112.981Z" fill="white"/>
<path d="M50.6134 3.72405L61.6442 25.9999H53.8753C52.9591 25.9999 52.1189 25.4625 51.6942 24.6051L44.7973 10.6771L37.9003 24.6051C37.4757 25.4625 36.6354 25.9999 35.7194 25.9999H27.9505L38.9812 3.72405C41.4371 -1.23551 48.1574 -1.23551 50.6134 3.72405Z" fill="white"/>
<path d="M0 13.8672V0.00116368H5.74318C7.10245 0.00116368 8.20454 1.16516 8.20454 2.60104V13.8672C8.20454 15.7817 9.67378 17.3337 11.4864 17.3337H22.1523C23.5115 17.3337 24.6136 18.4977 24.6136 19.9336V25.9999H11.4864C5.14266 25.9999 0 20.5679 0 13.8672Z" fill="white"/>
<path d="M164.545 26H143.352C141.993 26 140.891 24.836 140.891 23.4001V0.00121658H152.065C158.777 0.00121658 162.84 3.51871 162.84 9.44487C162.84 12.9624 161.462 15.6005 158.668 17.3975L164.545 26Z" fill="white"/>
<path d="M167.079 2.6011C167.079 1.16522 168.181 0.00121658 169.54 0.00121658H174.371V23.4001C174.371 24.836 173.269 26 171.91 26H167.079V2.6011Z" fill="white"/>
<path d="M178.522 0.00121658V26H183.353C184.712 26 185.814 24.836 185.814 23.4001V19.9974H188.644C195.791 19.9974 200 16.2887 200 9.90368C200 3.67163 195.864 0.00121658 188.898 0.00121658H178.522Z" fill="white"/>
<path d="M125.009 0H105.428L114.897 19.1876C116.962 23.3736 121.06 25.9988 125.529 25.9988C134.512 25.9988 140.305 15.95 136.182 7.52019L135.943 7.0324C133.83 2.71302 129.612 0 125.009 0Z" fill="white"/>
</svg>
