<svg width="180" height="28" viewBox="0 0 180 28" fill="none" xmlns="http://www.w3.org/2000/svg">
<path d="M35.0664 27.7067C36.5345 27.7067 37.7246 26.5013 37.7246 25.0144V19.7519H49.533V12.2115H37.7246V7.70871H57.1208V27.7067H62.4874C63.9555 27.7067 65.1457 26.5013 65.1457 25.0144V7.70745H75.327L71.4603 0.0144196L32.1521 0C30.6896 0.00797272 29.5082 1.211 29.5082 2.69227V27.7067H35.0664Z" fill="white"/>
<path d="M0 0.0144119H7.65897L17.3287 14.0658V2.70599C17.3287 1.21907 18.5188 0.0144119 19.9869 0.0144119H25.4967V27.7067H17.8378L8.19485 14.0101V25.0144C8.19485 26.5013 7.00473 27.7067 5.53662 27.7067H0V0.0144119Z" fill="white"/>
<path d="M96.8637 0.0144196H74.8101L85.4739 20.4509C87.8003 24.9093 92.4158 27.7054 97.4491 27.7054C107.566 27.7054 114.091 17.0025 109.447 8.02409L109.178 7.50455C106.798 2.90403 102.048 0.0144196 96.8637 0.0144196Z" fill="white"/>
<path d="M140.73 27.7067H116.861C115.33 27.7067 114.089 26.467 114.089 24.9376V0.0157166H126.674C134.233 0.0157166 138.81 3.76216 138.81 10.074C138.81 13.8205 137.257 16.6303 134.11 18.5443L140.73 27.7067Z" fill="white"/>
<path d="M143.583 2.78482C143.583 1.25549 144.824 0.0157166 146.355 0.0157166H151.796V24.9376C151.796 26.467 150.555 27.7067 149.024 27.7067H143.583V2.78482Z" fill="white"/>
<path d="M155.81 27.7067V0.0157166H167.496C175.342 0.0157166 180 3.92503 180 10.5627C180 17.3633 175.26 21.3134 167.21 21.3134H164.023V24.9376C164.023 26.467 162.782 27.7067 161.251 27.7067H155.81Z" fill="white"/>
</svg>
