<svg width="28" height="28" viewBox="0 0 28 28" fill="none" xmlns="http://www.w3.org/2000/svg">
<path fill-rule="evenodd" clip-rule="evenodd" d="M1.05655 10.1881C4.04397 1.05654 16.9813 -3.78349 22.3841 3.61324C24.6773 6.75264 22.8355 8.83022 20.9039 11.0091C18.7902 13.3934 18.4424 16.4953 21.4143 20.6464C28.8409 31.0201 -6.21745 32.4222 1.05655 10.1881ZM17.7196 11.9964C17.7196 15.8238 14.7599 20.2374 9.34779 20.2374C7.68588 20.2374 6.13977 19.7578 4.83756 18.9361C5.07051 18.9631 5.30486 18.9765 5.53941 18.9763C6.9182 18.9763 8.18681 18.5135 9.19389 17.7365C7.90604 17.7131 6.81982 16.8756 6.44523 15.7248C6.62449 15.7587 6.80895 15.777 6.99822 15.777C7.2603 15.7772 7.52122 15.7429 7.77408 15.6751C6.42774 15.4097 5.41352 14.2386 5.41352 12.8359C5.41352 12.8229 5.41352 12.811 5.41396 12.7989C5.82228 13.0229 6.27928 13.1471 6.74654 13.1611C5.9566 12.6422 5.43716 11.7551 5.43716 10.7502C5.4367 10.2388 5.57419 9.73646 5.83557 9.29444C7.28682 11.0469 9.4553 12.1995 11.9008 12.3206C11.8503 12.1085 11.8244 11.8875 11.8244 11.6602C11.8244 10.0613 13.1421 8.76421 14.767 8.76421C15.6134 8.76421 16.3778 9.11632 16.9148 9.67931C17.5737 9.55131 18.2056 9.31354 18.7832 8.97626C18.5631 9.65243 18.0968 10.2197 17.4893 10.5783C18.0844 10.5082 18.6518 10.353 19.179 10.1222C18.7842 10.704 18.2872 11.2119 17.7113 11.6221C17.717 11.7463 17.7196 11.8711 17.7196 11.9964Z" fill="white"/>
<path d="M26.5809 14.8716C28.0434 16.5608 28.3811 18.6197 27.3354 19.4702C26.2896 20.3206 24.2563 19.6406 22.7939 17.9513C21.3314 16.2621 20.9936 14.2032 22.0394 13.3528C23.0851 12.5023 25.1185 13.1823 26.5809 14.8716Z" fill="white"/>
</svg>
