<svg width="29" height="28" viewBox="0 0 29 28" fill="none" xmlns="http://www.w3.org/2000/svg">
<path fill-rule="evenodd" clip-rule="evenodd" d="M1.76724 10.1881C4.75466 1.05654 17.692 -3.78349 23.0948 3.61324C25.388 6.75264 23.5462 8.83022 21.6146 11.0091C19.5009 13.3934 19.1531 16.4953 22.125 20.6464C29.5516 31.0201 -5.50675 32.4222 1.76724 10.1881ZM18.4303 11.9964C18.4303 15.8238 15.4706 20.2374 10.0585 20.2374C8.39657 20.2374 6.85047 19.7578 5.54825 18.9361C5.7812 18.9631 6.01556 18.9765 6.25011 18.9763C7.6289 18.9763 8.8975 18.5135 9.90458 17.7365C8.61673 17.7131 7.53052 16.8756 7.15592 15.7248C7.33519 15.7587 7.51965 15.777 7.70891 15.777C7.97099 15.7772 8.23191 15.7429 8.48478 15.6751C7.13843 15.4097 6.12421 14.2386 6.12421 12.8359C6.12421 12.8229 6.12421 12.811 6.12465 12.7989C6.53297 13.0229 6.98997 13.1471 7.45724 13.1611C6.66729 12.6422 6.14785 11.7551 6.14785 10.7502C6.1474 10.2388 6.28488 9.73646 6.54626 9.29444C7.99752 11.0469 10.166 12.1995 12.6115 12.3206C12.561 12.1085 12.5351 11.8875 12.5351 11.6602C12.5351 10.0613 13.8528 8.76421 15.4777 8.76421C16.3241 8.76421 17.0885 9.11632 17.6255 9.67931C18.2844 9.55131 18.9163 9.31354 19.4939 8.97626C19.2738 9.65243 18.8075 10.2197 18.2 10.5783C18.7951 10.5082 19.3625 10.353 19.8897 10.1222C19.4949 10.704 18.9979 11.2119 18.422 11.6221C18.4277 11.7463 18.4303 11.8711 18.4303 11.9964Z" fill="black"/>
<path d="M27.2916 14.8716C28.7541 16.5608 29.0918 18.6197 28.0461 19.4702C27.0003 20.3206 24.967 19.6406 23.5046 17.9513C22.0421 16.2621 21.7043 14.2032 22.7501 13.3528C23.7958 12.5023 25.8291 13.1823 27.2916 14.8716Z" fill="black"/>
</svg>
